<?xml version="1.0" encoding="UTF-8"?>
<svg xmlns="http://www.w3.org/2000/svg" id="a" width="865.76" height="682.89" viewBox="0 0 865.76 682.89">
  <g>
    <circle cx="144.44" cy="97.76" r="17.85" fill="#002346"></circle>
    <path d="M125.91,97.76c0-10.22,8.31-18.53,18.53-18.53,10.22,0,18.53,8.31,18.53,18.53,0,10.22-8.31,18.53-18.53,18.53s-18.53-8.31-18.53-18.53Zm1.37,0c0,9.46,7.7,17.16,17.16,17.16,9.46,0,17.16-7.7,17.16-17.16,0-9.46-7.7-17.16-17.16-17.16-9.46,0-17.16,7.7-17.16,17.16Z" fill="#0d2445"></path>
  </g>
  <g>
    <circle cx="156.93" cy="105.54" r="13.73" fill="#314f3e"></circle>
    <path d="M142.51,105.54c0-7.95,6.47-14.41,14.41-14.41,7.95,0,14.41,6.47,14.41,14.41s-6.47,14.41-14.41,14.41-14.41-6.47-14.41-14.41Zm1.37,0c0,7.19,5.85,13.04,13.04,13.04,7.19,0,13.04-5.85,13.04-13.04s-5.85-13.04-13.04-13.04c-7.19,0-13.04,5.85-13.04,13.04Z" fill="#002346"></path>
  </g>
  <g>
    <rect x="149.56" y="170.33" width="66" height="53" fill="#314f3e"></rect>
    <path d="M216.06,223.83h-67v-54h67v54Zm-66-1h65v-52h-65v52Z" fill="#002346"></path>
  </g>
  <g>
    <path d="M477.55,105.55h56.98c11.8,0,21.37,9.57,21.37,21.37h0c0,11.8-9.57,21.37-21.37,21.37h-56.98c-11.8,0-21.37-9.57-21.37-21.37h0c0-11.8,9.57-21.37,21.37-21.37Z" fill="#314f3e"></path>
    <path d="M534.53,148.79h-56.98c-12.06,0-21.87-9.81-21.87-21.87s9.81-21.87,21.87-21.87h56.98c12.06,0,21.87,9.81,21.87,21.87s-9.81,21.87-21.87,21.87Zm-56.98-42.74c-11.51,0-20.87,9.36-20.87,20.87s9.36,20.87,20.87,20.87h56.98c11.51,0,20.87-9.36,20.87-20.87s-9.36-20.87-20.87-20.87h-56.98Z" fill="#002346"></path>
  </g>
  <g>
    <polygon points="618.05 334.68 695.71 344.16 691.1 222.03 656.88 144.03 629.54 144.03 613.26 160.44 618.05 334.68" fill="#e6e7e8"></polygon>
    <path d="M696.23,344.73l-78.67-9.6-4.81-174.88,16.58-16.71h27.87l.13,.3,34.26,78.09v.1s4.64,122.72,4.64,122.72Zm-77.69-10.49l76.65,9.36-4.58-121.45-34.05-77.61h-26.81l-15.98,16.11,4.77,173.6Z" fill="#002346"></path>
  </g>
  <g>
    <path d="M621.96,587.72v15.77c0,3.07-1.44,5.96-3.9,7.79-4.43,3.3-11.89,8.94-18.5,14.32-1.97,1.6-4.32,2.68-6.82,3.13-5.21,1-14.35,4.18-14.35,15h49.93l8.17-5v5h25v-56.21l-39.53,.2Z" fill="#314f3e"></path>
    <path d="M661.99,644.23h-26v-4.61l-7.53,4.61h-50.57v-.5c0-11.01,9.25-14.43,14.75-15.49,2.42-.44,4.7-1.48,6.6-3.03,6.78-5.52,14.51-11.35,18.52-14.33,2.32-1.73,3.7-4.49,3.7-7.39v-16.27l40.53-.21v57.21Zm-25-1h24v-55.21l-38.53,.19v15.27c0,3.21-1.53,6.27-4.1,8.19-4,2.98-11.71,8.8-18.48,14.31-2.03,1.65-4.47,2.77-7.05,3.23-6.25,1.2-13.68,4.61-13.93,14.01h49.28l8.81-5.39v5.39Z" fill="#002346"></path>
  </g>
  <g>
    <path d="M733.5,590.22v13.22c0,2.71-1.07,5.32-3,7.23l-16.31,16-12.28,7.57c-2.78,1.71-4.47,4.74-4.48,8v3.87l50-7.46,7-6.14,1.4,4.19,24.3-5-10.1-44.16-36.53,2.68Z" fill="#314f3e"></path>
    <path d="M696.93,646.69v-4.45c0-3.46,1.77-6.61,4.72-8.43l12.23-7.54,16.27-15.96c1.82-1.8,2.86-4.31,2.85-6.87v-13.69l37.42-2.75,10.31,45.08-25.24,5.19-1.3-3.9-6.55,5.74-50.72,7.57Zm37.07-56v12.75c0,2.83-1.14,5.59-3.15,7.59l-16.4,16.07-12.28,7.57c-2.65,1.63-4.23,4.47-4.24,7.58v3.29l49.28-7.35,7.45-6.54,1.5,4.48,23.36-4.81-9.89-43.24-35.64,2.61Z" fill="#002346"></path>
  </g>
  <g>
    <path d="M267.84,170.21h197.06c18.55,0,33.59,15.03,33.6,33.58v428.22c0,10.16-8.23,18.39-18.39,18.39H252.64c-10.16,0-18.39-8.23-18.39-18.39h0V203.81c0-18.55,15.04-33.59,33.59-33.59h0Z" fill="#314f3e"></path>
    <path d="M480.11,650.9H252.64c-10.42,0-18.89-8.47-18.89-18.89V203.81c0-18.63,15.02-33.82,33.59-34.09h0s.5-.01,.5-.01h197.07c9.1,0,17.66,3.54,24.1,9.98,6.44,6.44,9.99,15,9.99,24.1v428.22c0,10.42-8.47,18.89-18.89,18.89ZM267.84,170.72c-18.25,0-33.09,14.84-33.09,33.09v428.2c0,9.86,8.03,17.89,17.89,17.89h227.44c9.89,0,17.92-8.03,17.92-17.89V203.81c0-8.86-3.45-17.17-9.7-23.42-6.25-6.25-14.56-9.68-23.39-9.68h-196.57s-.5,0-.5,0Z" fill="#002346"></path>
  </g>
  <g>
    <path d="M278.29,170.49h201.31c17.38,0,31.47,14.08,31.48,31.46v432.46c0,8.99-7.28,16.27-16.27,16.27h-231.73c-8.99,0-16.27-7.28-16.27-16.27h0V201.97c0-17.38,14.09-31.47,31.47-31.47h.01Z" fill="#fff"></path>
    <path d="M494.81,651.18h-231.73c-9.25,0-16.77-7.52-16.77-16.77V201.97c0-17.56,14.23-31.86,31.76-31.97h0s.22-.01,.22-.01h201.32c17.63,0,31.97,14.33,31.97,31.96v432.46c0,9.25-7.52,16.77-16.77,16.77ZM278.28,171c-17.08,0-30.97,13.89-30.97,30.97v432.44c0,8.7,7.07,15.77,15.77,15.77h231.73c8.7,0,15.77-7.07,15.77-15.77V201.97c0-17.09-13.9-30.98-30.97-30.98h-201.12s-.21,.01-.21,.01Z" fill="#002346"></path>
  </g>
  <g>
    <path d="M511.55,261h0c5.4,0,9.78,4.38,9.78,9.78h0v50.84c0,5.4-4.38,9.78-9.78,9.78h0v-70.4h0Z" fill="#e6e7e8"></path>
    <path d="M511.55,331.9h-.5v-71.4h.5c5.67,0,10.28,4.61,10.28,10.28v50.84c0,5.67-4.61,10.28-10.28,10.28Zm.5-70.39v69.37c4.89-.26,8.78-4.32,8.78-9.27v-50.84c0-4.95-3.89-9.01-8.78-9.27Z" fill="#002346"></path>
  </g>
  <g>
    <path d="M251.84,260.72h0v25.14h0c-4.16,0-7.54-3.38-7.54-7.54h0v-10.06c0-4.16,3.38-7.54,7.54-7.54h0Z" fill="#e6e7e8"></path>
    <path d="M252.34,286.36h-.5c-4.43,0-8.04-3.61-8.04-8.04v-10.06c0-4.43,3.61-8.04,8.04-8.04h.5v26.14Zm-1-25.12c-3.65,.26-6.54,3.31-6.54,7.02v10.06c0,3.71,2.89,6.77,6.54,7.02v-24.1Z" fill="#002346"></path>
  </g>
  <g>
    <path d="M251.84,288.65h0v25.16h0c-4.16,0-7.54-3.38-7.54-7.54h0v-10.07c0-4.16,3.37-7.54,7.53-7.55h.01Z" fill="#e6e7e8"></path>
    <path d="M252.34,314.31h-.5c-4.43,0-8.04-3.61-8.04-8.04v-10.07c0-2.15,.83-4.17,2.35-5.69s3.54-2.36,5.68-2.36h.5s0,.5,0,.5v25.66Zm-1-25.14c-1.7,.12-3.27,.84-4.49,2.05-1.33,1.33-2.06,3.1-2.05,4.98v10.07c0,3.71,2.89,6.77,6.54,7.02v-24.12Z" fill="#002346"></path>
  </g>
  <g>
    <path d="M472.86,178.04h-34c-.51,7.08-6.41,12.57-13.51,12.57h-83.54c-7.1,0-13-5.49-13.51-12.57h-41.56c-15.94,0-28.87,12.93-28.87,28.87v409.15c.02,14.78,12.02,26.76,26.8,26.75h193.11c13.22-.03,23.92-10.73,23.95-23.95V206.86c-.02-15.93-12.94-28.83-28.87-28.82Z" fill="#e6e7e8"></path>
    <path d="M284.66,643.31c-15.03,0-27.27-12.22-27.29-27.25V206.91c0-16.19,13.17-29.37,29.37-29.37h42.03l.03,.46c.49,6.79,6.21,12.1,13.01,12.11h83.54c6.8,0,12.52-5.32,13.01-12.11l.03-.46h34.48c16.17,0,29.34,13.15,29.36,29.32v412c-.03,13.45-11,24.42-24.45,24.45h-193.12Zm2.08-464.77c-15.64,0-28.37,12.73-28.37,28.37v409.15c.02,14.48,11.81,26.25,26.29,26.25h193.12c12.9-.03,23.42-10.55,23.45-23.45V206.86c-.02-15.62-12.74-28.32-28.36-28.32h-33.55c-.75,7.08-6.8,12.57-13.97,12.57h-83.54c-7.17,0-13.22-5.49-13.97-12.57h-41.1Z" fill="#002346"></path>
  </g>
  <g>
    <path d="M397.94,220.5h-115.65c-2.78,0-5.03-2.25-5.03-5.03s2.25-5.03,5.03-5.03h115.65c2.78,0,5.03,2.25,5.03,5.03s-2.25,5.03-5.03,5.03Z" fill="#fff"></path>
    <path d="M397.94,221h-115.65c-3.05,0-5.53-2.48-5.53-5.53s2.48-5.53,5.53-5.53h115.65c3.05,0,5.53,2.48,5.53,5.53s-2.48,5.53-5.53,5.53Zm-115.65-10.06c-2.5,0-4.53,2.03-4.53,4.53s2.03,4.53,4.53,4.53h115.65c2.5,0,4.53-2.03,4.53-4.53s-2.03-4.53-4.53-4.53h-115.65Z" fill="#002346"></path>
  </g>
  <g>
    <rect x="277.26" y="235.86" width="206.15" height="72.91" fill="#fff"></rect>
    <path d="M483.91,309.27h-207.15v-73.91h207.15v73.91Zm-206.15-1h205.15v-71.91h-205.15v71.91Z" fill="#002346"></path>
  </g>
  <g>
    <rect x="277.26" y="323.85" width="206.15" height="35.2" fill="#fff"></rect>
    <path d="M483.91,359.55h-207.15v-36.2h207.15v36.2Zm-206.15-1h205.15v-34.2h-205.15v34.2Z" fill="#002346"></path>
  </g>
  <g>
    <rect x="277.26" y="374.13" width="206.15" height="35.2" fill="#fff"></rect>
    <path d="M483.91,409.83h-207.15v-36.2h207.15v36.2Zm-206.15-1h205.15v-34.2h-205.15v34.2Z" fill="#002346"></path>
  </g>
  <g>
    <rect x="277.26" y="459.61" width="206.15" height="35.2" fill="#fff"></rect>
    <path d="M483.91,495.31h-207.15v-36.2h207.15v36.2Zm-206.15-1h205.15v-34.2h-205.15v34.2Z" fill="#002346"></path>
  </g>
  <g>
    <rect x="277.26" y="509.89" width="206.15" height="35.2" fill="#fff"></rect>
    <path d="M483.91,545.59h-207.15v-36.2h207.15v36.2Zm-206.15-1h205.15v-34.2h-205.15v34.2Z" fill="#002346"></path>
  </g>
  <g>
    <rect x="307.29" y="283.49" width="251.4" height="334.37" rx="12.15" ry="12.15" fill="#fff"></rect>
    <path d="M546.54,618.36h-227.11c-6.97,0-12.65-5.67-12.65-12.65V295.64c0-6.97,5.67-12.65,12.65-12.65h227.11c6.97,0,12.65,5.67,12.65,12.65v310.08c0,6.97-5.67,12.65-12.65,12.65Zm-227.11-334.37c-6.42,0-11.65,5.22-11.65,11.65v310.08c0,6.42,5.22,11.65,11.65,11.65h227.11c6.42,0,11.65-5.22,11.65-11.65V295.64c0-6.42-5.22-11.65-11.65-11.65h-227.11Z" fill="#002346"></path>
  </g>
  <g>
    <path d="M129.52,175.14l-3.22,2.9s22.2,10,52.35,10.31c11.87,.2,23.5-3.39,33.19-10.26,3.79-2.6,7.05-5.89,9.63-9.7l-12.09-25.27-29.48-4.61-22.47,7.12-27.91,29.51Z" fill="#f2b3c1"></path>
    <path d="M179.61,188.85c-.32,0-.64,0-.97,0-29.9-.31-52.32-10.25-52.54-10.35l-.69-.31,3.76-3.39,27.98-29.59,.12-.04,22.58-7.16,.11,.02,29.74,4.65,.11,.23,12.21,25.52-.16,.23c-2.62,3.87-5.91,7.18-9.76,9.83-9.57,6.78-20.8,10.35-32.51,10.35Zm-52.41-10.96c4,1.66,24.7,9.69,51.45,9.97,11.87,.21,23.23-3.32,32.9-10.17,3.68-2.53,6.82-5.67,9.35-9.34l-11.86-24.78-29.11-4.55-22.24,7.05-27.85,29.44-2.65,2.38Z" fill="#002346"></path>
  </g>
  <g opacity=".2">
    <path d="M142.94,202.37l-3.11,29-10.07-6.1s9.86-21.43,5.91-45.24c2.66,2.23,6.18,6.61,7.22,14.59,.32,2.57,.33,5.17,.05,7.75Z"></path>
  </g>
  <g>
    <path d="M283.97,244.81l-25.43-2.85-4.46-.5,1.07-26.09c.09-2.15-2.74-3.02-3.87-1.2-12.76,20.5-35.9,61.93-35.9,61.93,6.27-15.07,10.76-37.18,10.76-37.18,.45-26.72-6.78-54.71-9.63-64.66h0c-.69-2.43-1.13-3.78-1.13-3.78l1.41-.14c2.76-.53,5.27-1.93,7.16-4,3.85-4.39,10.08-5.81,15.46-3.54l40.37-5.36c34.08-2.44,4.19,87.36,4.19,87.36Z" fill="#314f3e"></path>
    <path d="M215.82,276.35l-.9-.44c6.18-14.85,10.69-36.87,10.73-37.09,.43-26.3-6.58-53.82-9.62-64.42-.68-2.39-1.12-3.75-1.12-3.76l-.19-.59,2.03-.2c2.59-.5,5.03-1.86,6.84-3.84,3.97-4.52,10.34-6,15.9-3.72l40.24-5.34c5.13-.36,9.14,1.28,11.94,4.89,14.16,18.22-6.33,80.48-7.21,83.12l-.13,.38-30.75-3.45,1.09-26.55c.04-.91-.58-1.43-1.12-1.59-.54-.17-1.35-.09-1.83,.68-12.61,20.25-35.66,61.5-35.89,61.91Zm.23-105.43c.19,.62,.52,1.71,.95,3.21,3.05,10.65,10.1,38.28,9.65,64.81-.05,.27-3.45,16.91-8.4,31.06,6.86-12.19,22.86-40.41,32.62-56.09,.64-1.03,1.81-1.47,2.97-1.11,1.16,.36,1.88,1.38,1.83,2.59l-1.05,25.62,29.02,3.25c1.74-5.37,20.51-64.73,7.25-81.81-2.59-3.33-6.3-4.85-11.05-4.51l-40.48,5.38-.12-.05c-5.19-2.19-11.17-.82-14.89,3.41-1.96,2.14-4.6,3.62-7.44,4.16l-.84,.08Z" fill="#002346"></path>
  </g>
  <g>
    <path d="M232.29,440.92s-2.18,9.45-15,33.41c-9.61,18-25.22,44.3-50.41,81l-2.47,25.48s-18.48,2-33.45,3.62l-10.13,1.13-12.48-154.75-5.58-72.49s-7.19-52.94,21.92-72.49c1.07-1.91,2.03-3.88,2.88-5.9,4.6-10.56,10.16-34.18,14.82-76.36l20.16,2.12,13.85,9.75,27.9,1.13c3.31,.13,6.1-2.44,6.24-5.75,0-.21,0-.42,0-.63-.92-12.36-2.75-24.64-5.45-36.74,0,0,6.28-3.51,10.34-3,0,0,12.44,42.18,10.76,68.44,0,0-3.64,19.88-10.76,37.18,0,0-4,4.62-4.93,17-.66,9.09,.67,18.22,3.9,26.74,3.93,10.51,11.13,32.44,17.94,67.45-.04,0,10.29,30.55-.04,53.66Z" fill="#bbbbc1"></path>
    <path d="M120.37,586.11l-.04-.51-12.48-154.75-5.58-72.49c-.07-.5-6.88-53.32,22.04-72.88,1.04-1.85,1.98-3.78,2.8-5.75,3.19-7.31,9.34-26.93,14.78-76.22l.05-.49,20.78,2.19,.11,.07,13.73,9.67,27.75,1.12c3.06,.16,5.59-2.24,5.72-5.27,0-.19,0-.38,0-.58-.92-12.29-2.75-24.63-5.44-36.66l-.08-.36,.33-.18c.26-.15,6.48-3.57,10.65-3.06l.32,.04,.09,.31c.12,.42,12.45,42.57,10.78,68.61-.04,.26-3.74,20.19-10.8,37.34l-.08,.14s-3.91,4.69-4.81,16.71c-.65,8.96,.69,18.13,3.87,26.53,3.76,10.05,11.08,32.18,17.96,67.52l.05,.15c1.64,5.27,9.33,32.63-.1,53.78-.2,.84-2.66,10.36-15.04,33.49-12.04,22.56-28.99,49.79-50.37,80.94l-2.5,25.76-44.49,4.85Zm22.46-382c-5.45,49.06-11.61,68.68-14.8,76.01-.85,2.03-1.83,4.03-2.9,5.95l-.06,.1-.1,.07c-28.51,19.15-21.77,71.48-21.7,72.01l5.58,72.52,12.44,154.23,9.62-1.07,33.05-3.58,2.44-25.2,.07-.11c21.39-31.17,38.34-58.4,50.38-80.95,12.62-23.59,14.93-33.19,14.95-33.29l.03-.09c9.31-20.83,1.7-47.9,.08-53.12-.03-.09-.05-.17-.07-.24h0c-6.86-35.28-14.17-57.35-17.92-67.37-3.23-8.53-4.59-17.85-3.93-26.95,.88-11.76,4.48-16.59,5-17.22,7-17.03,10.67-36.81,10.7-37.01,1.57-24.61-9.51-63.91-10.65-67.89-3.33-.24-8.1,2.13-9.38,2.8,2.65,11.96,4.46,24.22,5.38,36.44,.01,.23,.02,.46,0,.69-.07,1.73-.81,3.34-2.09,4.51-1.28,1.18-2.94,1.78-4.67,1.72l-28.05-1.14-.12-.08-13.74-9.68-19.54-2.05Z" fill="#002346"></path>
  </g>
  <g>
    <path d="M259.73,242.08v4.57s-17.94,19.3-12.92,24c3.62-.67,6.82-2.73,8.93-5.75,0,0,1.13,12.55-3.9,17.48,0,0-6.7,14.42,9.22,9.68,0,0,32.12-11.18,15.08-44.42l.22-3.65-16.63-1.91Z" fill="#f2b3c1"></path>
    <path d="M255.59,293.5c-2.04,0-3.53-.55-4.48-1.65-2.71-3.13,.17-9.41,.29-9.68l.1-.14c3.87-3.79,3.95-12.48,3.83-15.78-2.15,2.55-5.1,4.27-8.42,4.88l-.25,.04-.18-.17c-5.12-4.79,10.37-21.96,12.76-24.55v-4.93l17.64,2.03-.24,3.98c5.32,10.43,6.38,19.78,3.17,27.81-4.93,12.31-18.45,17.14-18.58,17.18-2.19,.65-4.07,.98-5.63,.98Zm-3.34-10.84c-.31,.71-2.55,6.06-.4,8.54,1.41,1.63,4.46,1.75,9.07,.38,.11-.04,13.22-4.73,17.98-16.62,3.11-7.78,2.04-16.9-3.19-27.1l-.06-.12,.2-3.32-15.62-1.79v4.21l-.13,.14c-4.82,5.19-16.4,19.28-13.11,23.13,3.4-.7,6.36-2.64,8.36-5.5l.77-1.11,.12,1.34c.05,.52,1.08,12.73-3.98,17.81Z" fill="#002346"></path>
  </g>
  <g>
    <path d="M164.41,580.81s6.79,13.59,10,25.06c.67,2.44,2.09,4.6,4.05,6.2,6,4.87,18.59,15.54,18.37,19.58v8.6h-20l-29.75-19.82,11.13-38.93,6.2-.69Z" fill="#314f3e"></path>
    <path d="M197.33,640.75h-20.65l-30.18-20.11,11.32-39.6,6.88-.77,.16,.31c.07,.14,6.85,13.76,10.03,25.15,.65,2.35,1.99,4.41,3.88,5.95,8.58,6.96,18.77,16.09,18.55,20v9.07Zm-20.35-1h19.35v-8.1c.15-2.71-6.48-9.69-18.19-19.19-2.05-1.67-3.51-3.9-4.22-6.45-2.89-10.34-8.78-22.56-9.81-24.66l-5.52,.61-10.94,38.26,29.32,19.53Z" fill="#002346"></path>
  </g>
  <g>
    <path d="M761.92,353.6c.33,1.96-.58,3.91-2.3,4.91-2,1.15-4,2.24-6,3.25-14.67,7.39-30.52,12.15-46.83,14.05h0c-4.56,.56-9.15,.85-13.75,.87-1.67,0-3.1-1.2-3.39-2.85l-6.57-37.61-13.37-76.9-13.41-77.37c-2.51-17.88-14.52-31.29-14.52-31.29l25.64-26.08,42.22,16.91c7.05,2.82,13.7,6.57,19.77,11.13h0c12.54,9.4,22.24,22.09,28,36.66,4.63,11.76,5.06,20.44,5.06,20.44,5.87,35.87-15.64,56.59-15.64,56.59l15.09,87.29Z" fill="#314f3e"></path>
    <path d="M693.04,377.18c-1.92,0-3.56-1.37-3.88-3.26l-6.57-37.61-13.37-76.9-13.41-77.37c-2.46-17.53-14.28-30.91-14.4-31.04l-.31-.35,26.2-26.65,.31,.12,42.22,16.91c7.09,2.84,13.78,6.61,19.89,11.2,12.62,9.46,22.36,22.21,28.16,36.88,4.61,11.7,5.09,20.51,5.09,20.6,5.54,33.86-13.48,54.59-15.6,56.78l15.05,87.04c.37,2.15-.65,4.33-2.54,5.43-2.14,1.23-4.11,2.29-6.03,3.26-14.76,7.44-30.58,12.19-47,14.1-4.56,.56-9.2,.85-13.81,.87Zm-50.58-226.5c1.9,2.26,12.06,14.98,14.34,31.2l13.41,77.35,13.37,76.9,6.57,37.61c.25,1.41,1.46,2.44,2.9,2.44,4.56-.02,9.17-.31,13.69-.87,16.31-1.9,32.01-6.61,46.67-14,1.9-.96,3.86-2.02,5.98-3.24,1.53-.88,2.35-2.65,2.06-4.39l-15.13-87.55,.19-.18c.21-.21,21.25-20.97,15.49-56.15-.01-.14-.49-8.8-5.03-20.34-5.73-14.5-15.36-27.1-27.83-36.44-6.03-4.54-12.65-8.26-19.66-11.07l-41.91-16.79-25.08,25.51Z" fill="#002346"></path>
  </g>
  <g>
    <path d="M542.08,267.98v4.93s43,19.65,68.44,19.1c0,0-3.91,50-2.23,78.49,0,0,5.3,2.79,9.77,2.79,0,0,1.12-34.08,3.91-46.65,2.13-15.45,2.88-31.06,2.24-46.65l.23-10.39v-114.19l-5.26-6.7-17.88,13.4s-8.1,5.31-10.33,23.75l-48.89,82.12Z" fill="#314f3e"></path>
    <path d="M618.54,373.79h-.48c-4.54,0-9.78-2.73-10-2.85l-.25-.13-.02-.28c-1.57-26.6,1.77-72.48,2.19-78.01-.17,0-.34,0-.51,0-25.38,0-67.18-18.96-67.6-19.16l-.29-.13v-5.39l48.91-82.15c2.25-18.37,10.2-23.78,10.54-24l18.25-13.67,5.67,7.22v114.36l-.23,10.4c.64,15.54-.12,31.27-2.25,46.71-2.75,12.42-3.89,46.26-3.91,46.6l-.02,.48Zm-9.77-3.61c1.04,.51,5.16,2.43,8.8,2.6,.15-4.25,1.32-34.6,3.9-46.25,2.11-15.34,2.87-31.01,2.23-46.52l.23-10.42v-114.01l-4.85-6.18-17.49,13.11c-.1,.07-7.96,5.47-10.13,23.41l-.07,.2-48.82,82v4.47c3.77,1.69,42.84,18.93,66.89,18.93,.35,0,.7,0,1.04-.01h.55s-.04,.54-.04,.54c-.04,.5-3.86,49.95-2.25,78.13Z" fill="#002346"></path>
  </g>
  <g>
    <path d="M578.39,269.66s31,28.49,56.42,5.86l45.88,1.44s-2.3-7.26-4.67-12.73l-97.63,5.43Z" fill="#f2b3c1"></path>
    <path d="M612.73,284.69c-18.42,0-34.45-14.46-34.67-14.66l-.86-.79,99.13-5.51,.14,.31c2.35,5.43,4.66,12.7,4.69,12.78l.21,.66-46.38-1.46c-7.23,6.38-14.94,8.67-22.26,8.67Zm-33.09-14.6c5.29,4.4,32.46,25,54.85,5.07l.15-.13h.2s45.18,1.42,45.18,1.42c-.61-1.87-2.43-7.33-4.3-11.71l-96.07,5.34Z" fill="#002346"></path>
  </g>
  <g>
    <path d="M773.37,587.27l-12.37,.91-32.92,2.44-44.1-160.06-19,156.43-31,.53-12,.2-3.9-214.43s.84-39.38,3.91-46.65c0,0,20,12.65,61.14,9.58l6.54,37.64c.29,1.66,1.73,2.86,3.41,2.85,3.82-.02,7.63-.22,11.43-.62,.75-.07,1.52-.15,2.32-.25h0c16.3-1.9,32.15-6.65,46.81-14.03l4.92,60.7,14.81,164.76Z" fill="#bbbbc1"></path>
    <path d="M727.71,591.15l-.11-.4-43.43-157.62-18.75,154.35-43.94,.75v-.5s-3.91-214.43-3.91-214.43c.03-1.63,.88-39.58,3.95-46.85l.23-.54,.5,.31c.2,.12,20.37,12.53,60.84,9.5l.45-.03,6.62,38.09c.25,1.41,1.46,2.44,2.9,2.44h.02c3.79-.02,7.62-.22,11.38-.62,.75-.07,1.51-.15,2.31-.25,16.3-1.9,31.99-6.6,46.65-13.98l.66-.33,4.98,61.44,14.86,165.26-46.21,3.42Zm-43.92-163.17l44.66,162.11,44.37-3.28-14.76-164.25-4.86-59.97c-14.57,7.24-30.15,11.87-46.31,13.75-.8,.1-1.58,.18-2.33,.25-3.79,.4-7.65,.61-11.47,.62h-.02c-1.92,0-3.55-1.37-3.88-3.26l-6.46-37.19c-36.94,2.65-57.04-7.47-60.47-9.38-2.83,8.32-3.66,45.55-3.67,45.93l3.89,213.91,42.06-.71,19.25-158.51Z" fill="#002346"></path>
  </g>
  <g>
    <polygon points="531.31 261 508.55 186.28 641.8 186.28 660.55 261 531.31 261" fill="#bbbbc1"></polygon>
    <path d="M661.19,261.5h-130.25l-.11-.35-22.96-75.37h134.31l.1,.38,18.91,75.34Zm-129.51-1h128.23l-18.5-73.72h-132.19l22.46,73.72Z" fill="#002346"></path>
  </g>
  <polygon points="641.8 186.28 645.61 186.28 663.59 259.88 660.55 261 641.8 186.28" fill="#314f3e"></polygon>
  <g>
    <polygon points="641.8 186.28 645.61 186.28 663.59 259.88 660.55 261 641.8 186.28" fill="#fff"></polygon>
    <path d="M660.2,261.66l-19.04-75.88h4.84l.09,.38,18.09,74.03-3.98,1.47Zm-17.76-74.88l18.46,73.56,2.1-.77-17.78-72.79h-2.78Z" fill="#002346"></path>
  </g>
  <g>
    <rect x="531.31" y="261" width="129.24" height="8.64" fill="#fff"></rect>
    <path d="M661.05,270.14h-130.24v-9.64h130.24v9.64Zm-129.24-1h128.24v-7.64h-128.24v7.64Z" fill="#002346"></path>
  </g>
  <g>
    <path d="M673.36,256.81c-3.02,.84-6.14,1.82-9.36,2.93-1.17,.41-2.32,.83-3.45,1.26v8.64l15.93-4.32-3.12-8.51Z" fill="#bbbbc1"></path>
    <path d="M660.05,270.29v-9.64l.32-.12c1.14-.44,2.29-.86,3.46-1.27,3.21-1.11,6.37-2.1,9.39-2.94l.44-.12,3.47,9.46-17.09,4.63Zm1-8.95v7.64l14.77-4.01-2.77-7.56c-2.86,.81-5.85,1.75-8.89,2.8-1.05,.37-2.09,.74-3.11,1.13Z" fill="#002346"></path>
  </g>
  <g>
    <polygon points="673.36 256.81 662.83 256.81 663.59 259.88 673.36 256.81" fill="#fff"></polygon>
    <path d="M663.23,260.52l-1.04-4.21h14.43l-13.39,4.21Zm.24-3.21l.48,1.93,6.15-1.93h-6.63Z" fill="#002346"></path>
  </g>
  <g>
    <path d="M522.17,230.99s-32.33-15.8-29.54-37.31c0,0,1.68-9.77,15.92-7.4l13.62,44.71Z" fill="#f2b3c1"></path>
    <path d="M522.97,231.93l-1.02-.5c-.33-.16-32.62-16.2-29.81-37.81,.02-.12,1.93-10.25,16.49-7.82l.3,.05,14.04,46.08Zm-18.64-45.53c-9.79,0-11.15,7.03-11.21,7.37-2.43,18.74,22.79,33.33,28.24,36.25l-13.19-43.3c-1.41-.22-2.68-.32-3.84-.32Z" fill="#002346"></path>
  </g>
  <g>
    <path d="M516.22,186.28s-1.71-7.69,1.09-8.3c.52-.09,1.04,.07,1.42,.43l8.27,7.87h-10.78Z" fill="#f2b3c1"></path>
    <path d="M528.23,186.77h-12.41l-.09-.39c-.05-.23-1.25-5.73,.16-7.94,.33-.51,.76-.83,1.3-.95,.68-.13,1.38,.08,1.87,.56l9.16,8.72Zm-11.61-.98h9.15l-7.38-7.02c-.26-.26-.63-.37-.99-.3-.26,.06-.49,.23-.67,.51-.92,1.43-.45,5.1-.11,6.81Z" fill="#002346"></path>
  </g>
  <g>
    <path d="M435.93,34.54v93.69c0,6.08-4.92,11-11,11h-9.44c-2.79,10.46,3.1,21.23,3.1,21.23-22.51-6.65-32.58-15.81-36.83-21.25h-111.12c-6.08,0-11-4.92-11-11V34.54c0-6.08,4.92-11,11-11h154.31c6.07,.01,10.98,4.93,10.98,11Z" fill="#bbbbc1"></path>
    <path d="M419.61,161.28l-1.16-.34c-22.73-6.71-32.86-16.1-36.93-21.23h-110.88c-6.34,0-11.5-5.16-11.5-11.5V34.54c0-6.34,5.16-11.5,11.5-11.5h154.31c6.33,.01,11.48,5.17,11.48,11.5v93.69c0,6.34-5.16,11.5-11.5,11.5h-9.05c-2.47,10.04,3.09,20.39,3.15,20.49l.58,1.06ZM270.64,24.04c-5.79,0-10.5,4.71-10.5,10.5v93.67c0,5.79,4.71,10.5,10.5,10.5h111.36l.15,.19c3.83,4.91,13.51,14.05,35.47,20.75-1.41-2.99-4.95-11.8-2.62-20.55l.1-.37h9.82c5.79,0,10.5-4.71,10.5-10.5V34.54c0-5.78-4.7-10.49-10.48-10.5h-154.31Z" fill="#002346"></path>
  </g>
  <g>
    <path d="M399.53,94.53l4.12-.16-.26-6.83-4.21,.16c-.63-2.47-1.8-4.78-3.43-6.74l3-3.41-5.13-4.51-3.19,3.62c-1.77-.92-3.68-1.52-5.65-1.79l-.19-5.13-6.83,.25,.2,5.33c-2.11,.57-4.08,1.53-5.83,2.84l-3.23-3-4.68,5,3.36,3.16c-1.02,1.74-1.73,3.65-2.09,5.64l-4.22,.16,.26,6.83,4.13-.16c.48,2.15,1.38,4.19,2.63,6l-3.5,4,5.12,4.51,3.32-3.76c1.83,1.17,3.87,1.98,6,2.39l.18,4.68,6.83-.26-.17-4.49c2.14-.46,4.18-1.31,6-2.53l3,2.84,4.68-5-2.89-2.72c1.38-2.09,2.29-4.45,2.67-6.92Zm-16.61,9.3c-6.74,.12-12.3-5.26-12.42-12-.12-6.74,5.26-12.3,12-12.42s12.3,5.26,12.42,12c0,.07,0,.14,0,.21,.07,6.68-5.29,12.14-11.97,12.21-.01,0-.02,0-.03,0h0Z" fill="#fff"></path>
    <path d="M378.93,114.13l-.18-4.79c-1.92-.41-3.74-1.14-5.42-2.15l-3.37,3.82-5.87-5.17,3.57-4.08c-1.1-1.67-1.91-3.5-2.39-5.45l-4.22,.16-.3-7.83,4.32-.16c.36-1.78,.99-3.48,1.88-5.06l-3.44-3.23,5.36-5.73,3.29,3.06c1.61-1.15,3.38-2.01,5.28-2.57l-.2-5.44,7.83-.29,.19,5.21c1.76,.28,3.45,.82,5.05,1.6l3.26-3.7,5.88,5.17-3.05,3.47c1.45,1.83,2.53,3.96,3.16,6.21l4.31-.16,.3,7.83-4.21,.16c-.4,2.25-1.24,4.43-2.45,6.36l2.95,2.78-5.37,5.73-3.08-2.92c-1.67,1.06-3.5,1.83-5.43,2.29l.17,4.57-7.83,.3Zm-5.79-8.24l.36,.23c1.79,1.14,3.75,1.92,5.82,2.32l.39,.08,.18,4.58,5.83-.22-.17-4.41,.41-.09c2.09-.44,4.05-1.27,5.83-2.46l.33-.22,2.92,2.77,4-4.27-2.83-2.67,.23-.35c1.33-2.01,2.23-4.33,2.59-6.72l.06-.41,4.03-.16-.22-5.83-4.12,.16-.1-.39c-.61-2.39-1.76-4.65-3.33-6.54l-.27-.33,2.95-3.36-4.38-3.85-3.12,3.54-.35-.18c-1.72-.89-3.56-1.48-5.49-1.74l-.42-.06-.19-5.05-5.83,.21,.2,5.23-.38,.1c-2.05,.55-3.96,1.48-5.66,2.76l-.33,.25-3.17-2.95-4,4.27,3.29,3.09-.2,.34c-1,1.69-1.68,3.54-2.03,5.47l-.07,.4-4.12,.16,.22,5.83,4.05-.16,.09,.41c.47,2.1,1.33,4.06,2.55,5.83l.22,.32-3.43,3.92,4.37,3.85,3.27-3.71Zm9.57-1.56c-3.31,0-6.44-1.26-8.83-3.57-2.44-2.36-3.82-5.53-3.88-8.92-.06-3.39,1.21-6.61,3.57-9.05,2.36-2.44,5.53-3.82,8.92-3.88,3.39-.02,6.61,1.21,9.05,3.57,2.44,2.36,3.82,5.53,3.88,8.92v.22c.04,3.36-1.24,6.53-3.6,8.93-2.35,2.4-5.5,3.74-8.87,3.78l-.04-.5v.5c-.07,0-.14,0-.22,0Zm.01-24.42c-.07,0-.14,0-.21,0-3.13,.05-6.05,1.32-8.22,3.57-2.17,2.25-3.34,5.21-3.29,8.34,.05,3.13,1.32,6.05,3.57,8.22,2.25,2.17,5.22,3.32,8.34,3.29h.04c6.39-.06,11.53-5.31,11.47-11.71v-.21c-.06-3.13-1.32-6.04-3.57-8.22-2.2-2.13-5.08-3.29-8.13-3.29Z" fill="#002346"></path>
  </g>
  <g>
    <path d="M480.3,133.45v-13.08c0-.34,.26-.61,.6-.62,0,0,.01,0,.02,0h.65c.34,0,.61,.26,.62,.6,0,0,0,.01,0,.02v5.43h7.89v-5.45c0-.34,.26-.61,.6-.62,0,0,.01,0,.02,0h.64c.17,0,.33,.06,.45,.18,.12,.12,.18,.27,.18,.44v13.08c0,.17-.06,.32-.18,.44-.12,.12-.28,.18-.45,.18h-.64c-.34,0-.61-.26-.62-.6,0,0,0-.01,0-.02v-6h-7.89v6c0,.34-.26,.61-.6,.62,0,0-.01,0-.02,0h-.65c-.34,0-.61-.26-.62-.6,0,0,0-.01,0-.02v.02Z" fill="#002346"></path>
    <path d="M498.08,133.45v-12.05h-3.68c-.17,0-.33-.07-.44-.19-.12-.11-.18-.27-.18-.44v-.4c0-.34,.26-.61,.6-.62,0,0,.01,0,.02,0h9.26c.34,0,.61,.26,.62,.6,0,0,0,.01,0,.02v.4c0,.17-.06,.33-.18,.44-.11,.12-.27,.19-.44,.19h-3.69v12.05c0,.34-.26,.61-.6,.62,0,0-.01,0-.02,0h-.64c-.17,0-.33-.06-.45-.18-.12-.12-.18-.27-.18-.44Z" fill="#002346"></path>
    <path d="M506.08,133.45v-13.08c0-.34,.26-.61,.6-.62,0,0,.01,0,.02,0h1.25c.19,0,.37,.05,.52,.16,.16,.1,.27,.25,.33,.42l4.16,11,4.16-11c.05-.18,.17-.33,.33-.42,.15-.11,.33-.16,.52-.16h1.25c.34,0,.61,.26,.62,.6,0,0,0,.01,0,.02v13.08c0,.34-.26,.61-.6,.62,0,0-.01,0-.02,0h-.65c-.34,0-.61-.26-.62-.6,0,0,0-.01,0-.02v-10.91h0l-4,11c-.06,.17-.18,.32-.33,.42-.15,.11-.33,.16-.52,.16h-.28c-.19,0-.37-.05-.52-.16-.16-.1-.27-.25-.33-.42l-4-11h0v10.91c0,.34-.26,.61-.6,.62,0,0-.01,0-.02,0h-.65c-.34,0-.61-.26-.62-.6,0,0,0-.01,0-.02h0Z" fill="#002346"></path>
    <path d="M522.75,133.45v-13.08c0-.34,.26-.61,.6-.62,0,0,.01,0,.02,0h.64c.17,0,.33,.06,.45,.18,.12,.12,.18,.27,.18,.44v12.05h6.52c.34,0,.61,.26,.62,.6,0,0,0,.01,0,.02v.41c0,.34-.26,.61-.6,.62,0,0-.01,0-.02,0h-7.79c-.34,0-.61-.26-.62-.6,0,0,0-.01,0-.02h0Z" fill="#002346"></path>
  </g>
  <g>
    <path d="M201.7,157.81v17.6s7.4-5.17,15.09-5c0,0,3.47-.09,7.66-4.56,2.85-3.07,7.03-4.55,11.17-3.93,1.29,.2,2.56,.52,3.79,.95,0,0,7.4-17.74-7.54-37.71l-15.08-20.11h-10.06l-5.03,52.76Z" fill="#002346"></path>
    <path d="M201.2,176.37v-18.61s5.08-53.21,5.08-53.21h10.77l15.23,20.31c14.94,19.97,7.67,38.02,7.6,38.2l-.18,.44-.45-.16c-1.2-.42-2.45-.73-3.7-.93-3.98-.59-7.99,.82-10.73,3.78-4.29,4.57-7.86,4.72-8.01,4.72-.12,0-.24,0-.36,0-7.34,0-14.39,4.86-14.46,4.91l-.79,.55Zm1-18.54v16.65c2.13-1.33,8.22-4.75,14.6-4.58,0,0,3.31-.17,7.28-4.4,2.96-3.2,7.3-4.72,11.61-4.08,1.16,.18,2.3,.45,3.42,.81,.98-2.83,5.66-19-7.64-36.78l-14.93-19.91h-9.36l-4.99,52.28Z" fill="#002346"></path>
  </g>
  <g>
    <path d="M173.89,256.43l20.59,4.29s21.61-10.34,26.64-7c0,0,.27,3.07-6.71,8.38,0,0,8.38,2.23,15.92,1.11,0,0,19.56-3.35,8.1,11.74-6,7.54-15.33,11.62-24.94,10.93-6.71-.41-13.15-2.8-18.5-6.88l-3.86-2.91-20,.78,2.76-20.44Z" fill="#f2b3c1"></path>
    <path d="M215.6,286.45c-.71,0-1.43-.03-2.15-.08-6.83-.41-13.32-2.83-18.76-6.98l-3.72-2.8-20.41,.79,2.91-21.54,20.95,4.36c2.1-.99,21.94-10.24,26.97-6.89l.2,.13,.02,.24c.01,.13,.2,3.15-6.09,8.18,2.42,.53,8.88,1.73,14.74,.87,.37-.06,9.31-1.54,11.69,2.38,1.35,2.22,.29,5.63-3.13,10.14-5.66,7.11-14.22,11.2-23.22,11.2Zm-24.31-10.86l4,3.02c5.29,4.04,11.59,6.38,18.23,6.78,9.45,.69,18.62-3.33,24.53-10.75,3.15-4.14,4.18-7.18,3.06-9.03-2.04-3.36-10.61-1.94-10.7-1.92-7.57,1.13-15.78-1.03-16.13-1.12l-.97-.26,.8-.61c5.52-4.2,6.37-6.93,6.5-7.72-4.31-2.21-20.09,4.39-25.92,7.17l-.15,.07-20.24-4.22-2.61,19.34,19.59-.76Z" fill="#002346"></path>
  </g>
  <g>
    <path d="M173.89,253.3l-1.55,13.39-2.34,20.29s-85.48,6.42-84.36-22.63c1.49-12.52,5.77-24.54,12.52-35.19l2.8-5.78h0l6.12-12.77c1-2.08,1.91-4.2,2.72-6.35,3.09-8.2,12.74-31.06,22.68-26.22,1.15,.5,2.21,1.18,3.15,2h0c2.66,2.23,6.18,6.61,7.22,14.59,.32,2.57,.33,5.16,.05,7.73l-3.11,29,34.1,21.94Z" fill="#314f3e"></path>
    <path d="M150.47,288.12c-19.94,0-49.42-1.98-60.73-12.88-3.21-3.1-4.76-6.77-4.6-10.91,1.49-12.55,5.85-24.79,12.6-35.44l2.77-5.73,6.12-12.77c.99-2.06,1.9-4.18,2.7-6.31,2.62-6.95,9.58-23.46,17.61-26.66,1.98-.79,3.92-.73,5.76,.16,1.18,.51,2.28,1.21,3.26,2.07,2.78,2.33,6.33,6.82,7.39,14.9,.32,2.6,.34,5.24,.05,7.85l-3.08,28.69,34.1,21.94-3.97,34.4-.41,.03c-.89,.07-8.85,.64-19.57,.64Zm-20.79-110.25c-.77,0-1.56,.16-2.37,.49-7.66,3.05-14.47,19.25-17.04,26.08-.82,2.16-1.74,4.31-2.74,6.39l-8.92,18.55c-6.7,10.57-11,22.67-12.47,35.03-.14,3.8,1.3,7.21,4.3,10.11,16.32,15.74,73.66,12.35,79.11,11.99l3.81-32.96-34.1-21.94,3.14-29.31c.28-2.53,.26-5.09-.05-7.61-1.01-7.76-4.39-12.04-7.04-14.27-.91-.8-1.93-1.44-3.03-1.92-.86-.42-1.72-.63-2.6-.63Z" fill="#002346"></path>
  </g>
  <g>
    <rect x="168.59" y="84.4" width="52.2" height="78.76" rx="26.1" ry="26.1" transform="translate(-31.3 77.36) rotate(-20.84)" fill="#f2b3c1"></rect>
    <path d="M199.44,162.79c-10.72,0-20.85-6.53-24.88-17.13l-9.45-24.83c-5.22-13.7,1.69-29.09,15.39-34.31,13.7-5.22,29.09,1.69,34.31,15.39l9.45,24.83c5.22,13.7-1.69,29.09-15.39,34.31h0c-3.1,1.18-6.29,1.74-9.43,1.74Zm-9.51-77.03c-3.02,0-6.09,.54-9.08,1.68-13.2,5.02-19.84,19.85-14.82,33.04l9.45,24.83c2.43,6.39,7.21,11.46,13.45,14.25,6.24,2.8,13.2,3,19.59,.57h0c13.2-5.02,19.84-19.85,14.82-33.04l-9.45-24.83c-3.89-10.21-13.64-16.5-23.96-16.5Z" fill="#002346"></path>
  </g>
  <g>
    <path d="M171.53,132.64c14.67-11.18,15.93-23.56,15.56-29.35-.2-2.91,1.61-5.59,4.39-6.48,2-.59,4-.17,5.19,3.19,1.67,3.98,2.52,8.25,2.52,12.57,0,0,25-2.65,20.11-17.6,0,0-10.2-25.28-30.17-12.57,0,0-10.19-10.19-22.63,5,0,0-23.5,4.55-20.55,38.81,.39,4.22,.36,8.47-.1,12.69-.75,6.72-2.55,15.8-6.86,21.55l-9.76,14.31c-.08,.12-.04,.28,.08,.36,.06,.04,.14,.05,.21,.03,4.64-1.48,9.49-2.25,14.36-2.27,0,0-13.68,17.94-4.28,28.5,.81,.89,1.75,1.64,2.79,2.23,5.11,2.99,9.45,7.12,12.69,12.07,.79,1.29,1.38,2.69,1.76,4.15,1,3.78,4.18,12.19,12.19,8.35,0,0,10.67-4.44,6.35-19-.5-1.67-1.17-3.29-2-4.82-1.44-2.64-4.35-9.73-1.47-20.35,.77-2.76,1.91-5.4,3.4-7.84,1.87-3.12,4.88-10.66,1.3-23.44l-2.53-10.03-2.55-10.06Z" fill="#002346"></path>
    <path d="M165.19,229.66c-.97,0-1.9-.2-2.77-.6-3.62-1.67-5.35-6.42-6.06-9.1-.37-1.42-.94-2.77-1.7-4.02-3.17-4.85-7.5-8.97-12.52-11.9-1.08-.62-2.07-1.4-2.91-2.32-8.52-9.58,1.06-24.62,3.66-28.32-4.49,.11-8.93,.86-13.22,2.23-.22,.06-.44,.03-.62-.08-.36-.23-.46-.7-.24-1.05l9.77-14.32c4.27-5.7,6.04-14.74,6.78-21.32,.45-4.18,.49-8.41,.1-12.59-2.82-32.71,18.55-38.77,20.77-39.31,4.4-5.33,9.02-8.15,13.74-8.38,4.86-.24,8.23,2.34,9.23,3.2,5.42-3.36,10.65-4.27,15.53-2.7,9.88,3.17,14.84,15.2,15.04,15.71,1.13,3.45,.82,6.53-.9,9.18-4.83,7.46-19.02,9.04-19.62,9.1l-.55,.06v-.56c0-4.27-.83-8.44-2.48-12.38-1.23-3.46-3.21-3.31-4.59-2.9-2.55,.82-4.22,3.28-4.03,5.97,.4,6.29-1.09,18.47-15.49,29.58l5,19.77c3.58,12.78,.69,20.41-1.36,23.82-1.47,2.41-2.59,5-3.35,7.72-2.84,10.47,.05,17.46,1.43,19.98,.85,1.56,1.54,3.22,2.04,4.92,4.4,14.82-6.53,19.56-6.64,19.6-1.42,.68-2.77,1.02-4.04,1.02Zm-20.29-57.29l-.62,.81c-.13,.18-13.32,17.74-4.3,27.87,.77,.84,1.67,1.56,2.66,2.13,5.15,3.01,9.6,7.24,12.86,12.23,.82,1.34,1.43,2.79,1.83,4.3,.66,2.51,2.26,6.95,5.51,8.45,1.72,.8,3.73,.65,5.98-.42,.44-.19,10.22-4.47,6.09-18.41-.48-1.63-1.14-3.22-1.96-4.72-1.43-2.62-4.45-9.9-1.51-20.72,.78-2.81,1.94-5.49,3.46-7.97,1.96-3.27,4.73-10.61,1.25-23.04l-5.16-20.42,.26-.2c14.28-10.88,15.76-22.79,15.36-28.92-.22-3.15,1.73-6.02,4.74-6.99,2.75-.81,4.71,.37,5.82,3.5,1.62,3.86,2.48,7.96,2.54,12.17,2.67-.37,14.29-2.32,18.34-8.58,1.55-2.39,1.82-5.18,.8-8.29-.04-.09-4.98-12.08-14.41-15.1-4.69-1.5-9.74-.56-15.01,2.8l-.34,.21-.28-.28s-3.57-3.45-8.78-3.18c-4.46,.23-8.87,2.97-13.11,8.15l-.11,.14-.18,.04c-.23,.04-23.02,4.89-20.15,38.28,.39,4.24,.36,8.54-.1,12.79-.75,6.71-2.56,15.93-6.96,21.8l-9.35,13.72c4.48-1.36,9.14-2.07,13.84-2.08h1.01Z" fill="#002346"></path>
  </g>
  <g>
    <ellipse cx="165.95" cy="138.51" rx="8.8" ry="11.31" transform="translate(-47.02 101.53) rotate(-30)" fill="#f2b3c1"></ellipse>
    <path d="M167.99,149.74c-1.17,0-2.4-.25-3.62-.74-2.61-1.06-4.91-3.14-6.47-5.85-1.57-2.71-2.21-5.74-1.83-8.53,.39-2.83,1.8-5.08,3.97-6.34h0c2.17-1.25,4.83-1.35,7.48-.27,2.61,1.06,4.91,3.14,6.47,5.85,1.57,2.71,2.21,5.74,1.83,8.53-.39,2.83-1.8,5.08-3.97,6.34-1.17,.68-2.48,1.02-3.86,1.02Zm-4.08-21.49c-1.21,0-2.35,.29-3.37,.88h0c-1.9,1.1-3.14,3.09-3.49,5.62-.36,2.57,.25,5.38,1.71,7.9,1.46,2.52,3.58,4.45,5.99,5.43,2.36,.96,4.71,.89,6.61-.21,1.9-1.1,3.14-3.09,3.49-5.62,.36-2.57-.25-5.38-1.71-7.9-1.46-2.52-3.58-4.45-5.99-5.43-1.1-.45-2.2-.67-3.24-.67Z" fill="#002346"></path>
  </g>
  <g>
    <path d="M159.66,659.33c-15.17,.4-20-6-21.37-14.29-1.53-9.23,1.26-20.63-1.21-27.23-.28-.75-.57-1.53-.86-2.34-4.49-12.49-9.23-30.61-9.23-30.61l7.55-.82,23.73-2.58,1.32,11.07,16.3,44.7c1,2.48,1.61,5.1,1.81,7.77,.79,14.97-18.04,14.33-18.04,14.33Z" fill="#314f3e"></path>
    <path d="M158.33,659.85c-12.34,0-18.87-4.7-20.53-14.73-.71-4.25-.51-8.91-.31-13.41,.22-5.26,.44-10.23-.87-13.73-.28-.75-.57-1.53-.86-2.35-4.45-12.37-9.2-30.47-9.24-30.65l-.15-.56,32.35-3.52,1.37,11.5,16.28,44.65c1.01,2.52,1.64,5.18,1.84,7.9,.21,4-.92,7.27-3.35,9.75-5.23,5.33-14.61,5.13-15.19,5.12-.45,.01-.9,.02-1.33,.02Zm-30.7-74.55c.84,3.15,5.08,18.91,9.07,30.01,.29,.81,.58,1.59,.86,2.33,1.38,3.69,1.16,8.76,.93,14.12-.19,4.45-.39,9.05,.3,13.2,1.1,6.69,4.46,14.32,20.86,13.87h.03c.09,.01,9.49,.25,14.46-4.82,2.23-2.27,3.26-5.29,3.06-8.98-.2-2.61-.79-5.17-1.77-7.61l-16.33-44.83-1.26-10.58-30.21,3.28Z" fill="#002346"></path>
  </g>
  <g>
    <rect x="337.32" y="319.1" width="17.6" height="6.42" rx="3.21" ry="3.21" fill="#314f3e"></rect>
    <path d="M351.71,326.02h-11.18c-2.05,0-3.71-1.66-3.71-3.71s1.66-3.71,3.71-3.71h11.18c2.05,0,3.71,1.66,3.71,3.71s-1.66,3.71-3.71,3.71Zm-11.18-6.42c-1.49,0-2.71,1.22-2.71,2.71s1.22,2.71,2.71,2.71h11.18c1.49,0,2.71-1.22,2.71-2.71s-1.22-2.71-2.71-2.71h-11.18Z" fill="#002346"></path>
  </g>
  <g>
    <rect x="359.95" y="318.54" width="87.99" height="6.42" rx="3.21" ry="3.21" fill="#314f3e"></rect>
    <path d="M444.73,325.46h-81.57c-2.05,0-3.71-1.66-3.71-3.71s1.66-3.71,3.71-3.71h81.57c2.05,0,3.71,1.66,3.71,3.71s-1.66,3.71-3.71,3.71Zm-81.57-6.42c-1.49,0-2.71,1.22-2.71,2.71s1.22,2.71,2.71,2.71h81.57c1.49,0,2.71-1.22,2.71-2.71s-1.22-2.71-2.71-2.71h-81.57Z" fill="#002346"></path>
  </g>
  <g>
    <rect x="359.95" y="331.11" width="30.17" height="6.42" rx="3.21" ry="3.21" fill="#bbbbc1"></rect>
    <path d="M386.91,338.03h-23.75c-2.05,0-3.71-1.66-3.71-3.71s1.66-3.71,3.71-3.71h23.75c2.05,0,3.71,1.66,3.71,3.71s-1.67,3.71-3.71,3.71Zm-23.75-6.42c-1.49,0-2.71,1.22-2.71,2.71s1.22,2.71,2.71,2.71h23.75c1.5,0,2.71-1.22,2.71-2.71s-1.22-2.71-2.71-2.71h-23.75Z" fill="#002346"></path>
  </g>
  <g>
    <rect x="359.95" y="342.57" width="110.62" height="6.42" rx="3.21" ry="3.21" fill="#bbbbc1"></rect>
    <path d="M467.36,349.49h-104.2c-2.05,0-3.71-1.66-3.71-3.71s1.66-3.71,3.71-3.71h104.2c2.05,0,3.71,1.66,3.71,3.71s-1.66,3.71-3.71,3.71Zm-104.2-6.42c-1.49,0-2.71,1.22-2.71,2.71s1.22,2.71,2.71,2.71h104.2c1.49,0,2.71-1.22,2.71-2.71s-1.22-2.71-2.71-2.71h-104.2Z" fill="#002346"></path>
  </g>
  <g>
    <rect x="359.95" y="355.14" width="35.2" height="6.42" rx="3.21" ry="3.21" fill="#e6e7e8"></rect>
    <path d="M391.94,362.06h-28.78c-2.05,0-3.71-1.66-3.71-3.71s1.66-3.71,3.71-3.71h28.78c2.05,0,3.71,1.66,3.71,3.71s-1.66,3.71-3.71,3.71Zm-28.78-6.42c-1.49,0-2.71,1.22-2.71,2.71s1.22,2.71,2.71,2.71h28.78c1.49,0,2.71-1.22,2.71-2.71s-1.22-2.71-2.71-2.71h-28.78Z" fill="#002346"></path>
  </g>
  <g>
    <rect x="397.94" y="355.14" width="19.83" height="6.42" rx="3.21" ry="3.21" fill="#314f3e"></rect>
    <path d="M414.56,362.06h-13.41c-2.05,0-3.71-1.66-3.71-3.71s1.66-3.71,3.71-3.71h13.41c2.05,0,3.71,1.66,3.71,3.71s-1.66,3.71-3.71,3.71Zm-13.41-6.42c-1.49,0-2.71,1.22-2.71,2.71s1.22,2.71,2.71,2.71h13.41c1.49,0,2.71-1.22,2.71-2.71s-1.22-2.71-2.71-2.71h-13.41Z" fill="#002346"></path>
  </g>
  <g>
    <rect x="421.4" y="355.14" width="29.05" height="6.42" rx="3.21" ry="3.21" fill="#314f3e"></rect>
    <path d="M447.24,362.06h-22.63c-2.05,0-3.71-1.66-3.71-3.71s1.66-3.71,3.71-3.71h22.63c2.05,0,3.71,1.66,3.71,3.71s-1.66,3.71-3.71,3.71Zm-22.63-6.42c-1.49,0-2.71,1.22-2.71,2.71s1.22,2.71,2.71,2.71h22.63c1.49,0,2.71-1.22,2.71-2.71s-1.22-2.71-2.71-2.71h-22.63Z" fill="#002346"></path>
  </g>
  <g>
    <rect x="335.64" y="378.88" width="19.27" height="6.42" rx="3.21" ry="3.21" fill="#314f3e"></rect>
    <path d="M351.7,385.8h-12.85c-2.05,0-3.71-1.66-3.71-3.71s1.66-3.71,3.71-3.71h12.85c2.05,0,3.71,1.66,3.71,3.71s-1.66,3.71-3.71,3.71Zm-12.85-6.42c-1.49,0-2.71,1.22-2.71,2.71s1.22,2.71,2.71,2.71h12.85c1.49,0,2.71-1.22,2.71-2.71s-1.22-2.71-2.71-2.71h-12.85Z" fill="#002346"></path>
  </g>
  <g>
    <rect x="359.11" y="378.88" width="38.55" height="6.42" rx="3.21" ry="3.21" fill="#314f3e"></rect>
    <path d="M394.45,385.8h-32.13c-2.05,0-3.71-1.66-3.71-3.71s1.66-3.71,3.71-3.71h32.13c2.05,0,3.71,1.66,3.71,3.71s-1.66,3.71-3.71,3.71Zm-32.13-6.42c-1.49,0-2.71,1.22-2.71,2.71s1.22,2.71,2.71,2.71h32.13c1.49,0,2.71-1.22,2.71-2.71s-1.22-2.71-2.71-2.71h-32.13Z" fill="#002346"></path>
  </g>
  <g>
    <rect x="359.11" y="389.22" width="88.83" height="6.42" rx="3.21" ry="3.21" fill="#e6e7e8"></rect>
    <path d="M444.73,396.14h-82.41c-2.05,0-3.71-1.66-3.71-3.71s1.66-3.71,3.71-3.71h82.41c2.05,0,3.71,1.66,3.71,3.71s-1.66,3.71-3.71,3.71Zm-82.41-6.42c-1.49,0-2.71,1.22-2.71,2.71s1.22,2.71,2.71,2.71h82.41c1.49,0,2.71-1.22,2.71-2.71s-1.22-2.71-2.71-2.71h-82.41Z" fill="#002346"></path>
  </g>
  <g>
    <rect x="400.45" y="378.88" width="17.32" height="6.42" rx="3.21" ry="3.21" fill="#bbbbc1"></rect>
    <path d="M414.56,385.8h-10.9c-2.05,0-3.71-1.66-3.71-3.71s1.66-3.71,3.71-3.71h10.9c2.05,0,3.71,1.66,3.71,3.71s-1.66,3.71-3.71,3.71Zm-10.9-6.42c-1.49,0-2.71,1.22-2.71,2.71s1.22,2.71,2.71,2.71h10.9c1.49,0,2.71-1.22,2.71-2.71s-1.22-2.71-2.71-2.71h-10.9Z" fill="#002346"></path>
  </g>
  <g>
    <rect x="335.64" y="401.51" width="19.27" height="6.42" rx="3.21" ry="3.21" fill="#314f3e"></rect>
    <path d="M351.7,408.43h-12.85c-2.05,0-3.71-1.66-3.71-3.71s1.66-3.71,3.71-3.71h12.85c2.05,0,3.71,1.66,3.71,3.71s-1.66,3.71-3.71,3.71Zm-12.85-6.42c-1.49,0-2.71,1.22-2.71,2.71s1.22,2.71,2.71,2.71h12.85c1.49,0,2.71-1.22,2.71-2.71s-1.22-2.71-2.71-2.71h-12.85Z" fill="#002346"></path>
  </g>
  <g>
    <rect x="335.64" y="412.96" width="19.27" height="6.42" rx="3.21" ry="3.21" fill="#e6e7e8"></rect>
    <path d="M351.7,419.88h-12.85c-2.05,0-3.71-1.66-3.71-3.71s1.66-3.71,3.71-3.71h12.85c2.05,0,3.71,1.66,3.71,3.71s-1.66,3.71-3.71,3.71Zm-12.85-6.42c-1.49,0-2.71,1.22-2.71,2.71s1.22,2.71,2.71,2.71h12.85c1.49,0,2.71-1.22,2.71-2.71s-1.22-2.71-2.71-2.71h-12.85Z" fill="#002346"></path>
  </g>
  <g>
    <rect x="335.64" y="424.41" width="19.27" height="6.42" rx="3.21" ry="3.21" fill="#314f3e"></rect>
    <path d="M351.7,431.33h-12.85c-2.05,0-3.71-1.66-3.71-3.71s1.66-3.71,3.71-3.71h12.85c2.05,0,3.71,1.67,3.71,3.71s-1.66,3.71-3.71,3.71Zm-12.85-6.42c-1.49,0-2.71,1.22-2.71,2.71s1.22,2.71,2.71,2.71h12.85c1.49,0,2.71-1.22,2.71-2.71s-1.22-2.71-2.71-2.71h-12.85Z" fill="#002346"></path>
  </g>
  <g>
    <rect x="358.55" y="424.41" width="21.51" height="6.42" rx="3.21" ry="3.21" fill="#bbbbc1"></rect>
    <path d="M376.85,431.33h-15.09c-2.05,0-3.71-1.66-3.71-3.71s1.66-3.71,3.71-3.71h15.09c2.05,0,3.71,1.67,3.71,3.71s-1.66,3.71-3.71,3.71Zm-15.09-6.42c-1.49,0-2.71,1.22-2.71,2.71s1.22,2.71,2.71,2.71h15.09c1.49,0,2.71-1.22,2.71-2.71s-1.22-2.71-2.71-2.71h-15.09Z" fill="#002346"></path>
  </g>
  <g>
    <rect x="335.64" y="366.59" width="19.27" height="6.42" rx="3.21" ry="3.21" fill="#e6e7e8"></rect>
    <path d="M351.7,373.51h-12.85c-2.05,0-3.71-1.66-3.71-3.71s1.66-3.71,3.71-3.71h12.85c2.05,0,3.71,1.66,3.71,3.71s-1.66,3.71-3.71,3.71Zm-12.85-6.42c-1.49,0-2.71,1.22-2.71,2.71s1.22,2.71,2.71,2.71h12.85c1.49,0,2.71-1.22,2.71-2.71s-1.22-2.71-2.71-2.71h-12.85Z" fill="#002346"></path>
  </g>
  <g>
    <rect x="359.95" y="366.59" width="108.94" height="6.42" rx="3.21" ry="3.21" fill="#e6e7e8"></rect>
    <path d="M465.68,373.51h-102.52c-2.05,0-3.71-1.66-3.71-3.71s1.66-3.71,3.71-3.71h102.52c2.05,0,3.71,1.66,3.71,3.71s-1.66,3.71-3.71,3.71Zm-102.52-6.42c-1.49,0-2.71,1.22-2.71,2.71s1.22,2.71,2.71,2.71h102.52c1.49,0,2.71-1.22,2.71-2.71s-1.22-2.71-2.71-2.71h-102.52Z" fill="#002346"></path>
  </g>
  <g>
    <rect x="359.11" y="412.96" width="39.11" height="6.42" rx="3.21" ry="3.21" fill="#e6e7e8"></rect>
    <path d="M395.01,419.88h-32.69c-2.05,0-3.71-1.66-3.71-3.71s1.66-3.71,3.71-3.71h32.69c2.05,0,3.71,1.66,3.71,3.71s-1.66,3.71-3.71,3.71Zm-32.69-6.42c-1.49,0-2.71,1.22-2.71,2.71s1.22,2.71,2.71,2.71h32.69c1.49,0,2.71-1.22,2.71-2.71s-1.22-2.71-2.71-2.71h-32.69Z" fill="#002346"></path>
  </g>
  <g>
    <rect x="400.17" y="412.96" width="17.6" height="6.42" rx="3.21" ry="3.21" fill="#e6e7e8"></rect>
    <path d="M414.56,419.88h-11.18c-2.05,0-3.71-1.66-3.71-3.71s1.66-3.71,3.71-3.71h11.18c2.05,0,3.71,1.66,3.71,3.71s-1.66,3.71-3.71,3.71Zm-11.18-6.42c-1.49,0-2.71,1.22-2.71,2.71s1.22,2.71,2.71,2.71h11.18c1.49,0,2.71-1.22,2.71-2.71s-1.22-2.71-2.71-2.71h-11.18Z" fill="#002346"></path>
  </g>
  <g>
    <rect x="420.56" y="412.96" width="37.43" height="6.42" rx="3.21" ry="3.21" fill="#314f3e"></rect>
    <path d="M454.78,419.88h-31.01c-2.05,0-3.71-1.66-3.71-3.71s1.66-3.71,3.71-3.71h31.01c2.05,0,3.71,1.66,3.71,3.71s-1.66,3.71-3.71,3.71Zm-31.01-6.42c-1.49,0-2.71,1.22-2.71,2.71s1.22,2.71,2.71,2.71h31.01c1.49,0,2.71-1.22,2.71-2.71s-1.22-2.71-2.71-2.71h-31.01Z" fill="#002346"></path>
  </g>
  <g>
    <rect x="359.11" y="401.51" width="31.01" height="6.42" rx="3.21" ry="3.21" fill="#314f3e"></rect>
    <path d="M386.91,408.43h-24.59c-2.05,0-3.71-1.66-3.71-3.71s1.66-3.71,3.71-3.71h24.59c2.05,0,3.71,1.66,3.71,3.71s-1.67,3.71-3.71,3.71Zm-24.59-6.42c-1.49,0-2.71,1.22-2.71,2.71s1.22,2.71,2.71,2.71h24.59c1.5,0,2.71-1.22,2.71-2.71s-1.22-2.71-2.71-2.71h-24.59Z" fill="#002346"></path>
  </g>
  <g>
    <rect x="393.19" y="401.51" width="42.18" height="6.42" rx="3.21" ry="3.21" fill="#bbbbc1"></rect>
    <path d="M432.16,408.43h-35.76c-2.05,0-3.71-1.66-3.71-3.71s1.66-3.71,3.71-3.71h35.76c2.05,0,3.71,1.66,3.71,3.71s-1.66,3.71-3.71,3.71Zm-35.76-6.42c-1.49,0-2.71,1.22-2.71,2.71s1.22,2.71,2.71,2.71h35.76c1.49,0,2.71-1.22,2.71-2.71s-1.22-2.71-2.71-2.71h-35.76Z" fill="#002346"></path>
  </g>
  <g>
    <rect x="420.56" y="378.88" width="39.95" height="6.42" rx="3.21" ry="3.21" fill="#bbbbc1"></rect>
    <path d="M457.3,385.8h-33.53c-2.05,0-3.71-1.66-3.71-3.71s1.66-3.71,3.71-3.71h33.53c2.05,0,3.71,1.66,3.71,3.71s-1.66,3.71-3.71,3.71Zm-33.53-6.42c-1.49,0-2.71,1.22-2.71,2.71s1.22,2.71,2.71,2.71h33.53c1.49,0,2.71-1.22,2.71-2.71s-1.22-2.71-2.71-2.71h-33.53Z" fill="#002346"></path>
  </g>
  <g>
    <rect x="392.63" y="331.39" width="43.02" height="6.42" rx="3.21" ry="3.21" fill="#e6e7e8"></rect>
    <path d="M432.44,338.31h-36.6c-2.05,0-3.71-1.66-3.71-3.71s1.66-3.71,3.71-3.71h36.6c2.05,0,3.71,1.66,3.71,3.71s-1.66,3.71-3.71,3.71Zm-36.6-6.42c-1.49,0-2.71,1.22-2.71,2.71s1.22,2.71,2.71,2.71h36.6c1.49,0,2.71-1.22,2.71-2.71s-1.22-2.71-2.71-2.71h-36.6Z" fill="#002346"></path>
  </g>
  <g>
    <rect x="327.54" y="456.81" width="215.93" height="135.76" rx="3.55" ry="3.55" fill="#314f3e"></rect>
    <path d="M539.92,593.07h-208.83c-2.23,0-4.05-1.82-4.05-4.05v-128.66c0-2.23,1.82-4.05,4.05-4.05h208.83c2.23,0,4.05,1.82,4.05,4.05v128.66c0,2.23-1.82,4.05-4.05,4.05Zm-208.83-135.76c-1.68,0-3.05,1.37-3.05,3.05v128.66c0,1.68,1.37,3.05,3.05,3.05h208.83c1.68,0,3.05-1.37,3.05-3.05v-128.66c0-1.68-1.37-3.05-3.05-3.05h-208.83Z" fill="#002346"></path>
  </g>
  <g>
    <path d="M543.47,460.37v9.29h-215.93v-9.29c0-1.96,1.58-3.55,3.54-3.56h208.84c1.96,0,3.55,1.59,3.55,3.55h0Z" fill="#bbbbc1"></path>
    <path d="M543.97,470.16h-216.93v-9.79c0-1.08,.42-2.1,1.18-2.87,.76-.77,1.78-1.19,2.86-1.19h208.84c2.23,0,4.05,1.82,4.05,4.05v9.8Zm-215.93-1h214.93v-8.8c0-1.68-1.37-3.05-3.05-3.05h-208.84c-.81,0-1.58,.32-2.15,.9-.57,.58-.89,1.34-.89,2.16v8.79Z" fill="#002346"></path>
  </g>
  <g>
    <circle cx="512.01" cy="463.38" r="3.05" fill="#fff"></circle>
    <path d="M512.01,466.83c-1.9,0-3.45-1.55-3.45-3.45s1.55-3.45,3.45-3.45,3.45,1.55,3.45,3.45-1.55,3.45-3.45,3.45Zm0-6.1c-1.46,0-2.65,1.19-2.65,2.65s1.19,2.64,2.65,2.64,2.65-1.19,2.65-2.64-1.19-2.65-2.65-2.65Z" fill="#002346"></path>
  </g>
  <g>
    <circle cx="522.51" cy="463.38" r="3.05" fill="#fff"></circle>
    <path d="M522.51,466.83c-1.9,0-3.45-1.55-3.45-3.45s1.55-3.45,3.45-3.45,3.45,1.55,3.45,3.45-1.55,3.45-3.45,3.45Zm0-6.1c-1.46,0-2.65,1.19-2.65,2.65s1.19,2.64,2.65,2.64,2.65-1.19,2.65-2.64-1.19-2.65-2.65-2.65Z" fill="#002346"></path>
  </g>
  <g>
    <circle cx="533.02" cy="463.38" r="3.05" fill="#fff"></circle>
    <path d="M533.02,466.83c-1.9,0-3.45-1.55-3.45-3.45s1.55-3.45,3.45-3.45,3.45,1.55,3.45,3.45-1.55,3.45-3.45,3.45Zm0-6.1c-1.46,0-2.65,1.19-2.65,2.65s1.19,2.64,2.65,2.64,2.64-1.19,2.64-2.64-1.19-2.65-2.64-2.65Z" fill="#002346"></path>
  </g>
  <g>
    <g>
      <path d="M370.79,541.13v-32.87c0-.42,.15-.82,.45-1.12,.29-.3,.69-.46,1.11-.45h1.62c.86-.01,1.56,.67,1.57,1.53,0,.01,0,.03,0,.04v13.7h19.83v-13.7c-.02-.85,.66-1.55,1.51-1.57,.02,0,.04,0,.06,0h1.61c.85-.02,1.55,.66,1.57,1.51,0,.02,0,.04,0,.06v32.87c.02,.85-.66,1.55-1.51,1.57-.02,0-.04,0-.06,0h-1.61c-.85,.02-1.55-.66-1.57-1.51,0-.02,0-.04,0-.06v-15h-19.83v15c.01,.86-.67,1.56-1.53,1.57-.01,0-.03,0-.04,0h-1.62c-.42,0-.82-.15-1.11-.45-.3-.3-.46-.7-.45-1.12Z" fill="#fff"></path>
      <path d="M372.31,543.2c-.52,0-1.04-.22-1.42-.6-.39-.39-.6-.93-.59-1.48v-32.87c0-.54,.21-1.08,.59-1.47,.39-.39,.9-.61,1.48-.6h1.63c1.11,0,2.03,.9,2.04,2.02v13.25h18.83v-13.2c-.01-.53,.19-1.05,.57-1.44,.38-.39,.89-.62,1.43-.63h1.68c1.12-.04,2.05,.87,2.07,2v32.94c.01,.54-.19,1.05-.57,1.44-.38,.39-.89,.62-1.43,.63h-1.68c-1.12,.01-2.05-.88-2.07-2v-14.57h-18.83v14.5c0,.54-.2,1.06-.58,1.45-.38,.39-.89,.61-1.44,.62h-1.67s-.03,0-.04,0Zm.02-36.01c-.28,0-.54,.11-.73,.3-.2,.2-.31,.48-.3,.76v32.89c0,.28,.11,.56,.3,.76,.2,.2,.44,.29,.74,.3h1.63c.31,0,.58-.12,.77-.32,.2-.2,.3-.47,.3-.75v-15.51h20.83v15.5c.01,.62,.51,1.09,1.06,1.07h1.62c.33,0,.59-.12,.78-.32,.19-.2,.3-.46,.29-.74v-32.88c-.01-.62-.47-1.07-1.06-1.07h-1.62c-.33,0-.59,.12-.78,.32-.19,.2-.29,.46-.29,.74v14.21h-20.83v-14.2c0-.61-.48-1.07-1.05-1.07h-1.66Z" fill="#002346"></path>
    </g>
    <g>
      <path d="M415.4,541.13v-30.29h-9.21c-.87,0-1.57-.7-1.57-1.57h0v-1c-.01-.86,.67-1.56,1.53-1.57,.01,0,.03,0,.04,0h23.27c.42,0,.82,.15,1.11,.45,.3,.3,.46,.7,.45,1.12v1c.01,.86-.67,1.56-1.53,1.57-.01,0-.02,0-.03,0h-9.27v30.29c.02,.85-.66,1.55-1.51,1.57-.02,0-.04,0-.06,0h-1.62c-.85,.01-1.55-.67-1.56-1.52,0-.02,0-.03,0-.05h-.04Z" fill="#fff"></path>
      <path d="M416.97,543.2c-.95,0-1.76-.67-1.98-1.57h-.05l-.04-.5v-29.79h-8.71c-1.14,0-2.07-.93-2.07-2.07v-1c0-.54,.2-1.06,.58-1.45,.38-.39,.89-.61,1.44-.62h23.32c.56,.02,1.08,.21,1.46,.6,.39,.39,.6,.93,.59,1.48v.99c.01,1.12-.89,2.05-2.02,2.07h-8.81v29.79c.01,.53-.19,1.05-.57,1.44-.38,.39-.88,.62-1.43,.63h-1.72Zm-1.07-2.57h.04v.5c0,.62,.44,1.07,1.05,1.07h1.63c.33,0,.59-.12,.78-.32,.19-.2,.3-.46,.29-.74v-30.8h9.77c.6,0,1.07-.49,1.06-1.06v-1.01c0-.29-.11-.57-.3-.77-.2-.2-.49-.32-.75-.3h-23.28c-.61,0-1.08,.49-1.07,1.06v1.01c0,.59,.48,1.07,1.07,1.07h9.71v30.29Z" fill="#002346"></path>
    </g>
    <g>
      <path d="M435.58,541.13v-32.87c-.02-.85,.66-1.55,1.51-1.57,.02,0,.04,0,.06,0h3.13c.47,0,.93,.14,1.32,.4,.39,.25,.67,.63,.81,1.07l10.47,27.76,10.47-27.76c.13-.44,.42-.82,.81-1.07,.39-.26,.84-.4,1.31-.4h3.14c.42,0,.82,.15,1.11,.45,.3,.3,.46,.7,.45,1.12v32.87c0,.42-.15,.82-.45,1.12-.29,.3-.69,.46-1.11,.45h-1.62c-.86,.01-1.56-.67-1.57-1.53,0-.01,0-.03,0-.04v-27.41h-.1l-10,27.52c-.13,.44-.42,.81-.8,1.06-.39,.26-.85,.4-1.32,.4h-.71c-.47,0-.92-.14-1.31-.4-.39-.24-.68-.62-.81-1.06l-10-27.52h-.1v27.41c.02,.85-.66,1.55-1.51,1.57-.02,0-.04,0-.06,0h-1.51c-.85,.02-1.55-.66-1.57-1.51,0-.02,0-.04,0-.06h-.04Z" fill="#fff"></path>
      <path d="M437.15,543.2c-.95,0-1.76-.67-1.97-1.57h-.05l-.04-.5v-32.87c-.01-.53,.19-1.05,.57-1.44,.38-.39,.89-.62,1.43-.63h3.21c.57,0,1.12,.17,1.59,.49,.47,.31,.83,.79,1.01,1.33l9.99,26.49,10-26.52c.15-.53,.52-1,1.01-1.32,.45-.31,1-.48,1.56-.48h3.15c.55-.03,1.08,.21,1.47,.6,.39,.39,.6,.93,.59,1.48v32.86c0,.54-.21,1.08-.59,1.47-.39,.39-.88,.59-1.48,.6h-1.61c-.53-.01-1.06-.2-1.45-.58-.39-.38-.61-.89-.62-1.44v-24.89l-9.13,25.13c-.16,.52-.52,1-1,1.31-.47,.31-.98,.46-1.59,.48h-.73c-.56,0-1.11-.17-1.57-.49-.48-.3-.84-.77-1.01-1.33l-9.12-25.1v24.85c.02,1.11-.88,2.05-2,2.07h-1.62Zm-1.07-2.57h.07l-.03,.53c.01,.6,.51,1.07,1.06,1.04h1.52c.33,0,.59-.12,.78-.32,.19-.2,.3-.46,.29-.74v-27.92h.95l10.12,27.85c.11,.35,.32,.63,.61,.81,.32,.22,.64,.34,1.04,.32h.72c.37,0,.73-.11,1.03-.31,.29-.19,.5-.47,.6-.79l10.13-27.87h.95v27.91c0,.31,.12,.58,.32,.77,.2,.19,.46,.3,.75,.3h1.63c.28,0,.56-.1,.76-.3,.2-.2,.31-.48,.3-.76v-32.88c0-.29-.11-.57-.3-.77-.2-.2-.48-.32-.75-.3h-3.15c-.39-.04-.72,.11-1.03,.31-.3,.19-.52,.47-.61,.8l-10.95,29.04-10.94-29c-.11-.36-.33-.64-.62-.83-.31-.21-.67-.32-1.04-.32h-3.14c-.33,0-.59,.12-.78,.32-.19,.2-.29,.46-.29,.74v32.38Z" fill="#002346"></path>
    </g>
    <g>
      <path d="M477.51,541.13v-32.87c-.02-.85,.66-1.55,1.51-1.57,.02,0,.04,0,.06,0h1.61c.85-.02,1.55,.66,1.57,1.51,0,.02,0,.04,0,.06v30.3h16.39c.86-.01,1.56,.67,1.57,1.53,0,.01,0,.02,0,.03v1c.01,.86-.67,1.56-1.53,1.57-.01,0-.03,0-.04,0h-19.57c-.85,.02-1.55-.66-1.57-1.51,0-.02,0-.04,0-.06h0Z" fill="#fff"></path>
      <path d="M479.04,543.19c-1.1,0-2.01-.89-2.03-2l.42-.06h-.42v-32.87c-.01-.54,.19-1.05,.57-1.44s.89-.62,1.43-.63h1.68c1.12-.01,2.05,.88,2.07,2v29.87h15.89c.54,0,1.06,.2,1.45,.58,.39,.38,.61,.89,.62,1.44v1.04c.01,1.12-.89,2.06-2.02,2.07h-19.66Zm-1.03-2.07c.01,.62,.5,1.09,1.06,1.07h19.58c.61,0,1.08-.48,1.07-1.06v-1.01c0-.3-.12-.57-.32-.76-.2-.2-.42-.27-.75-.3h-16.9v-30.8c0-.33-.12-.59-.32-.78-.2-.19-.47-.29-.74-.29h-1.62c-.62,.01-1.08,.49-1.07,1.06v32.87Z" fill="#002346"></path>
    </g>
  </g>
  <g>
    <path d="M641.36,148.59l.44,2.07s-8.38,4.75-10.62-5l-.57-6.41-1-11.59s16.3-3,27.66-25.56c-.09,.28-.17,.56-.23,.84h0c-.82,4.06-.27,8.28,1.55,12l-16.82,30.87c-.46,.85-.6,1.83-.41,2.78Z" fill="#f2b3c1"></path>
    <path d="M637.43,152.31c-.84,0-1.72-.14-2.58-.52-2.04-.9-3.44-2.93-4.15-6.02l-1.62-18.51,.44-.08c.16-.03,16.21-3.25,27.31-25.3l.91,.38c-.09,.26-.16,.52-.21,.78-.79,3.93-.25,8.08,1.51,11.68l.11,.23-16.94,31.09c-.4,.75-.53,1.61-.36,2.44l.51,2.42-.31,.18c-.12,.07-2.2,1.22-4.61,1.22Zm-7.29-24.27l1.53,17.57c.63,2.71,1.83,4.51,3.57,5.28,2.34,1.03,5.08-.07,6-.5l-.36-1.7c-.21-1.06-.05-2.16,.46-3.11l16.7-30.65c-1.45-3.06-2.06-6.49-1.79-9.85-10.17,18.13-23.54,22.31-26.11,22.97Z" fill="#002346"></path>
  </g>
  <g opacity=".2">
    <path d="M672.52,66.3c3.84,3,3.92,7.78,.88,11.4-.91,1.08-1.95,2.04-3.11,2.85,1.01-.96,1.95-2,2.79-3.12,2.74-3.67,2.66-7.74-.53-11.13h-.03Z"></path>
  </g>
  <g>
    <path d="M667.86,126.12l-8.19,36.27s-1.39,3.08-5.58-.83l-12.29-10.9-.44-2.07c-.19-.95-.05-1.93,.41-2.78l16.79-30.9,8.88,9.67c.39,.41,.54,.99,.42,1.54Z" fill="#bbbbc1"></path>
    <path d="M657.79,164.04c-1.17,0-2.53-.71-4.04-2.12l-12.4-11-.47-2.23c-.22-1.06-.05-2.17,.46-3.12l17.12-31.52,9.35,10.19c.5,.53,.7,1.27,.54,1.99h0s-8.22,36.37-8.22,36.37c-.02,.05-.53,1.14-1.8,1.39-.17,.04-.36,.05-.54,.05Zm-15.53-13.65l12.17,10.79c1.86,1.74,3.03,1.95,3.69,1.83,.67-.13,1-.65,1.08-.79l8.17-36.21c.09-.39-.02-.8-.3-1.09l-8.41-9.16-16.46,30.29c-.4,.75-.53,1.61-.36,2.44l.41,1.9Z" fill="#002346"></path>
  </g>
  <g>
    <path d="M631.18,145.63l-10.05,14.81s-10.32-12-3.48-21.22l6.78-11c1.73-.1,3.45-.31,5.15-.62l1.6,18.03Z" fill="#bbbbc1"></path>
    <path d="M621.18,161.26l-.43-.5c-.11-.12-10.5-12.41-3.5-21.84l6.89-11.19h.26c1.7-.11,3.41-.32,5.09-.63l.54-.1,1.66,18.76-10.52,15.5Zm3.54-32.56l-6.64,10.78c-5.76,7.77,1.2,17.75,3.02,20.12l9.57-14.1-1.54-17.31c-1.46,.25-2.94,.42-4.41,.52Z" fill="#002346"></path>
  </g>
  <g>
    <path d="M345.32,61.41c.9,3.45,1.36,7.01,1.36,10.58,0,22.35-17.64,40.48-39.39,40.48-2.88-.01-5.75-.35-8.55-1l8.61-38.9,37.97-11.16Z" fill="#002346"></path>
    <path d="M307.29,112.97c-2.92-.01-5.83-.35-8.66-1.01l-.48-.11,8.78-39.67,.28-.08,38.46-11.31,.13,.5c.91,3.49,1.38,7.1,1.38,10.71,0,22.6-17.89,40.98-39.89,40.98Zm-7.96-1.88c2.61,.57,5.28,.87,7.96,.88,21.44,0,38.89-17.94,38.89-39.98,0-3.35-.41-6.7-1.22-9.95l-37.19,10.93-8.44,38.13Z" fill="#002346"></path>
  </g>
  <g>
    <path d="M330.83,39.53c-6.75-5.2-15.02-8.01-23.54-8-17.13,0-31.71,11.24-37.13,26.94l37.19,14.14,23.48-33.08Z" fill="#314f3e"></path>
    <path d="M307.53,73.22l-.36-.14-37.64-14.31,.16-.46c5.63-16.32,20.75-27.28,37.6-27.28h.04c8.57,0,17.02,2.88,23.81,8.1l.38,.29-23.98,33.79Zm-36.74-15.04l36.37,13.83,22.98-32.37c-6.55-4.91-14.63-7.61-22.81-7.61h-.04c-16.28,0-30.88,10.49-36.5,26.15Z" fill="#002346"></path>
  </g>
  <g>
    <path d="M298.78,111.52c-17.66-4-30.88-20.18-30.88-39.53,0-4.6,.76-9.18,2.26-13.53l37.19,14.15-8.57,38.91Z" fill="#fff"></path>
    <path d="M299.16,112.12l-.49-.11c-18.12-4.1-31.27-20.93-31.27-40.02,0-4.67,.77-9.28,2.29-13.69l.17-.49,.48,.18,37.59,14.3-8.77,39.82Zm-28.69-53.01c-1.38,4.16-2.07,8.49-2.07,12.88,0,18.45,12.59,34.74,30,38.93l8.37-37.99-36.3-13.81Z" fill="#002346"></path>
  </g>
  <g>
    <path d="M345.31,61.38c-2.27-8.69-7.37-16.37-14.48-21.85l-23.48,33.08,37.96-11.23Z" fill="#e6e7e8"></path>
    <path d="M306.11,73.5l24.62-34.68,.41,.32c7.16,5.52,12.37,13.37,14.66,22.12l.12,.47-39.81,11.78Zm24.83-33.25l-22.34,31.47,36.11-10.68c-2.25-8.18-7.12-15.53-13.77-20.79Z" fill="#002346"></path>
  </g>
  <g>
    <rect x="602.67" y="37.51" width="59.83" height="92.35" rx="29.91" ry="29.91" transform="translate(54.16 -185.75) rotate(17.44)" fill="#f2b3c1"></rect>
    <path d="M627.69,129.6c-3.01,0-6.07-.45-9.09-1.4h0c-16-5.03-24.92-22.13-19.9-38.12l9.75-31.02c2.43-7.75,7.74-14.08,14.94-17.84,7.2-3.76,15.43-4.49,23.18-2.05,7.75,2.43,14.09,7.74,17.84,14.94,3.76,7.2,4.49,15.43,2.05,23.18l-9.75,31.02c-4.08,12.97-16.1,21.3-29.03,21.3Zm-8.8-2.34c15.48,4.86,32.03-3.78,36.89-19.25l9.75-31.02c2.35-7.5,1.65-15.46-1.99-22.43-3.64-6.97-9.77-12.1-17.27-14.46-7.5-2.35-15.46-1.65-22.43,1.99-6.97,3.64-12.1,9.77-14.46,17.27l-9.75,31.02c-4.86,15.48,3.78,32.03,19.25,36.89h0Z" fill="#002346"></path>
  </g>
  <g>
    <path d="M605.42,71.18s-6-6.66-3.04-12.05c1.83-3.33,2.34-7.17,2.16-10.96-.1-2.14,.36-4.37,2.06-6.06,2.95-2.93,5.08-6.53,6.54-10.42,1.13-3.03,3.79-6.07,9.66-7.29,0,0,9.78-4.19,19.28,7.54,0,0,7,8.94,14.24,8.1,0,0,21.23,1.68,17,21.79,0,0,10.9,.84,5.87,19,0,0,2.79,12-7,14.52l-11.3-2.24s4.87-20.1-1.55-22.62c0,0-38-1.56-47.64-11.81,.06,0-4.38,6.77-6.28,12.5Z" fill="#002346"></path>
    <path d="M672.2,95.86l-11.92-2.36,.12-.51c1.32-5.44,3.66-19.95-1.17-22.01-2.47-.11-37.25-1.78-47.43-11.5-2.88,4.72-4.87,8.71-5.91,11.85l-.27,.82-.58-.64c-.25-.28-6.2-6.99-3.11-12.62,1.59-2.9,2.3-6.5,2.1-10.7-.12-2.69,.62-4.85,2.21-6.43,2.74-2.72,4.9-6.17,6.42-10.24,1.48-3.97,4.86-6.53,10.02-7.61,0-.01,10.14-4.17,19.77,7.71,.07,.09,6.92,8.72,13.79,7.92,.5,.03,10.04,.86,15.11,7.63,2.79,3.73,3.64,8.52,2.54,14.24,1.05,.22,3.37,.96,5.09,3.41,2.43,3.46,2.67,8.85,.7,16.02,.27,1.33,2.19,12.52-7.39,14.99l-.11,.03Zm-10.71-3.14l10.68,2.12c9.07-2.43,6.64-13.42,6.53-13.89l-.03-.12,.03-.12c1.91-6.91,1.74-12.05-.51-15.28-1.96-2.81-4.89-3.08-4.92-3.09l-.56-.05,.12-.55c1.19-5.66,.43-10.35-2.26-13.95-4.79-6.41-14.2-7.23-14.29-7.24-7.32,.87-14.3-7.92-14.59-8.29-9.13-11.27-18.3-7.55-18.69-7.39-4.9,1.03-8.03,3.38-9.38,7.01-1.57,4.21-3.81,7.78-6.66,10.6-1.38,1.37-2.03,3.28-1.92,5.68,.2,4.39-.54,8.17-2.22,11.23-2.23,4.05,1.06,9.02,2.43,10.8,1.13-3.07,3.05-6.85,5.73-11.25,.06-.09,.11-.17,.15-.24l-2.29-3.79,3.24,3.44c9.39,9.98,46.92,11.64,47.3,11.65l.16,.03c6.23,2.45,2.71,19.45,1.97,22.7Z" fill="#002346"></path>
  </g>
  <g>
    <ellipse cx="664.38" cy="96.32" rx="11.03" ry="7.26" transform="translate(391.77 709.8) rotate(-74.29)" fill="#f2b3c1"></ellipse>
    <path d="M662.74,107.61c-.5,0-.99-.07-1.47-.2-4.11-1.16-6.06-7.08-4.34-13.19,.82-2.93,2.35-5.47,4.31-7.17,2.01-1.75,4.24-2.39,6.27-1.82,4.11,1.16,6.06,7.08,4.34,13.19-.82,2.93-2.35,5.47-4.31,7.17-1.54,1.33-3.2,2.02-4.8,2.02Zm3.3-21.6c-1.37,0-2.81,.61-4.16,1.78-1.81,1.57-3.24,3.95-4.01,6.69-1.57,5.59,.07,10.97,3.66,11.98,1.7,.48,3.61-.1,5.36-1.62,1.81-1.57,3.24-3.95,4.01-6.69,1.57-5.59-.07-10.97-3.66-11.98-.39-.11-.79-.17-1.2-.17Z" fill="#002346"></path>
  </g>
  <g>
    <path d="M744.07,269.64c-21,16.81-55.36,21.78-55.36,21.78-9.35-12.41-16.73-37.35-16.73-37.35,0,0,31.39-20.4,40.49-33.57" fill="#314f3e"></path>
    <path d="M688.49,291.96l-.18-.24c-9.3-12.34-16.73-37.26-16.81-37.51l-.11-.36,.31-.2c.31-.2,31.41-20.5,40.35-33.43l.82,.57c-8.56,12.39-36.99,31.31-40.31,33.5,.94,3.07,7.85,25.13,16.36,36.6,3.39-.54,35.19-5.92,54.82-21.63l.62,.78c-20.86,16.7-55.25,21.83-55.6,21.88l-.29,.04Z" fill="#002346"></path>
  </g>
  <path d="M714.61,213.74c-.15,0-.3-.07-.4-.19-20.91-27.04-2.37-61.62-2.18-61.97,.13-.24,.44-.33,.68-.2,.24,.13,.33,.44,.2,.68-.19,.34-18.41,34.36,2.1,60.88,.17,.22,.13,.53-.09,.7-.09,.07-.2,.1-.31,.1Z" fill="#002346"></path>
  <path d="M683.98,431.06c-.22,0-.42-.15-.48-.37l-16.08-60.76c-.07-.27,.09-.54,.36-.61,.27-.08,.54,.09,.61,.36l16.08,60.76c.07,.27-.09,.54-.36,.61-.04,.01-.09,.02-.13,.02Z" fill="#002346"></path>
  <path d="M177.82,456.48s-.03,0-.04,0c-.28-.02-.48-.26-.46-.54l9.15-111.82c.02-.27,.27-.47,.54-.46,.28,.02,.48,.26,.46,.54l-9.15,111.82c-.02,.26-.24,.46-.5,.46Z" fill="#002346"></path>
  <path d="M166.88,555.83s-.03,0-.05,0c-.28-.03-.48-.27-.45-.54l5.08-55.15c.03-.28,.27-.46,.54-.45,.28,.03,.48,.27,.45,.54l-5.08,55.15c-.02,.26-.24,.45-.5,.45Z" fill="#002346"></path>
  <g>
    <circle cx="192.34" cy="106.95" r="14.5" fill="#002346"></circle>
    <path d="M192.34,121.85c-8.22,0-14.9-6.69-14.9-14.9s6.69-14.9,14.9-14.9,14.9,6.69,14.9,14.9-6.69,14.9-14.9,14.9Zm0-29c-7.77,0-14.1,6.32-14.1,14.1s6.32,14.1,14.1,14.1,14.1-6.32,14.1-14.1-6.32-14.1-14.1-14.1Z" fill="#002346"></path>
  </g>
  <path d="M395.15,477.71h-45.63c-.28,0-.5-.22-.5-.5s.22-.5,.5-.5h45.63c.28,0,.5,.22,.5,.5s-.22,.5-.5,.5Z" fill="#002346"></path>
  <path d="M421.15,485.21h-71.63c-.28,0-.5-.22-.5-.5s.22-.5,.5-.5h71.63c.28,0,.5,.22,.5,.5s-.22,.5-.5,.5Z" fill="#002346"></path>
  <path d="M466.15,492.71h-116.63c-.28,0-.5-.22-.5-.5s.22-.5,.5-.5h116.63c.28,0,.5,.22,.5,.5s-.22,.5-.5,.5Z" fill="#002346"></path>
  <path d="M499.84,492.71h-29.32c-.28,0-.5-.22-.5-.5s.22-.5,.5-.5h29.32c.28,0,.5,.22,.5,.5s-.22,.5-.5,.5Z" fill="#002346"></path>
  <path d="M483.83,556.31h-133.75c-.28,0-.5-.22-.5-.5s.22-.5,.5-.5h133.75c.28,0,.5,.22,.5,.5s-.22,.5-.5,.5Z" fill="#002346"></path>
  <path d="M452.83,563.31h-102.75c-.28,0-.5-.22-.5-.5s.22-.5,.5-.5h102.75c.28,0,.5,.22,.5,.5s-.22,.5-.5,.5Z" fill="#002346"></path>
  <path d="M431.83,570.31h-81.75c-.28,0-.5-.22-.5-.5s.22-.5,.5-.5h81.75c.28,0,.5,.22,.5,.5s-.22,.5-.5,.5Z" fill="#002346"></path>
</svg>
