<svg xmlns="http://www.w3.org/2000/svg" viewBox="0 0 800 600" fill="none" role="img" aria-label="Illustration: moderne Webseite und App mit wachsenden Kennzahlen">
  <defs>
    <pattern id="dots" width="26" height="26" patternUnits="userSpaceOnUse">
      <circle cx="2" cy="2" r="1.5" fill="#404040"/>
    </pattern>
  </defs>
  <rect width="800" height="600" fill="#171717"/>
  <rect width="800" height="600" fill="url(#dots)" opacity="0.4"/>

  <!-- Browserfenster mit Lime-Schatten -->
  <rect x="82" y="102" width="470" height="370" rx="18" fill="#a3e635"/>
  <rect x="70" y="90" width="470" height="370" rx="18" fill="#262626" stroke="#404040" stroke-width="2"/>
  <line x1="70" y1="138" x2="540" y2="138" stroke="#404040" stroke-width="2"/>
  <circle cx="98" cy="114" r="6" fill="#ff573b"/>
  <circle cx="120" cy="114" r="6" fill="#fbbf24"/>
  <circle cx="142" cy="114" r="6" fill="#a3e635"/>
  <rect x="170" y="102" width="250" height="24" rx="12" fill="#171717"/>
  <rect x="186" y="112" width="120" height="5" rx="2.5" fill="#525252"/>

  <!-- Headline, Text, CTA -->
  <rect x="100" y="170" width="230" height="16" rx="8" fill="#fafafa"/>
  <rect x="100" y="196" width="150" height="16" rx="8" fill="#a3e635"/>
  <rect x="100" y="238" width="220" height="8" rx="4" fill="#525252"/>
  <rect x="100" y="256" width="190" height="8" rx="4" fill="#525252"/>
  <rect x="100" y="274" width="140" height="8" rx="4" fill="#525252"/>
  <rect x="100" y="306" width="150" height="40" rx="20" fill="#a3e635"/>
  <rect x="122" y="322" width="60" height="8" rx="4" fill="#171717"/>
  <path d="M196 320 l8 6 -8 6" stroke="#171717" stroke-width="2.5" stroke-linecap="round" stroke-linejoin="round"/>

  <!-- Chart-Panel im Browser -->
  <rect x="360" y="170" width="150" height="176" rx="12" fill="#171717" stroke="#404040" stroke-width="2"/>
  <polyline points="378,320 408,290 428,302 458,258 490,216" stroke="#a3e635" stroke-width="3" stroke-linecap="round" stroke-linejoin="round"/>
  <circle cx="490" cy="216" r="5" fill="#a3e635"/>

  <!-- Karten-Reihe im Browser -->
  <rect x="100" y="378" width="124" height="56" rx="10" fill="#171717" stroke="#404040" stroke-width="2"/>
  <circle cx="118" cy="396" r="6" fill="#a3e635"/>
  <rect x="112" y="412" width="70" height="6" rx="3" fill="#525252"/>
  <rect x="240" y="378" width="124" height="56" rx="10" fill="#171717" stroke="#404040" stroke-width="2"/>
  <circle cx="258" cy="396" r="6" fill="#a3e635"/>
  <rect x="252" y="412" width="70" height="6" rx="3" fill="#525252"/>
  <rect x="380" y="378" width="124" height="56" rx="10" fill="#171717" stroke="#404040" stroke-width="2"/>
  <circle cx="398" cy="396" r="6" fill="#a3e635"/>
  <rect x="392" y="412" width="70" height="6" rx="3" fill="#525252"/>

  <!-- Smartphone mit Lime-Schatten -->
  <g transform="rotate(6 645 330)">
    <rect x="572" y="172" width="170" height="340" rx="28" fill="#a3e635"/>
    <rect x="560" y="160" width="170" height="340" rx="28" fill="#262626" stroke="#404040" stroke-width="2"/>
    <rect x="572" y="188" width="146" height="284" rx="14" fill="#171717"/>
    <rect x="615" y="170" width="60" height="6" rx="3" fill="#404040"/>
    <rect x="586" y="206" width="80" height="8" rx="4" fill="#fafafa"/>
    <rect x="586" y="226" width="118" height="56" rx="10" fill="#a3e635"/>
    <rect x="598" y="240" width="60" height="7" rx="3.5" fill="#171717"/>
    <rect x="598" y="256" width="40" height="7" rx="3.5" fill="#171717"/>
    <rect x="586" y="294" width="118" height="40" rx="10" fill="#262626" stroke="#404040" stroke-width="1.5"/>
    <circle cx="604" cy="314" r="8" fill="#404040"/>
    <rect x="620" y="306" width="56" height="6" rx="3" fill="#737373"/>
    <rect x="620" y="318" width="40" height="6" rx="3" fill="#525252"/>
    <rect x="586" y="342" width="118" height="40" rx="10" fill="#262626" stroke="#404040" stroke-width="1.5"/>
    <circle cx="604" cy="362" r="8" fill="#404040"/>
    <rect x="620" y="354" width="56" height="6" rx="3" fill="#737373"/>
    <rect x="620" y="366" width="40" height="6" rx="3" fill="#525252"/>
    <rect x="586" y="430" width="118" height="30" rx="15" fill="#262626"/>
    <circle cx="614" cy="445" r="5" fill="#525252"/>
    <circle cx="645" cy="445" r="5" fill="#a3e635"/>
    <circle cx="676" cy="445" r="5" fill="#525252"/>
  </g>

  <!-- Schwebender Erfolgs-Chip -->
  <rect x="40" y="486" width="210" height="60" rx="18" fill="#262626" stroke="#404040" stroke-width="2"/>
  <circle cx="70" cy="516" r="14" fill="#a3e635"/>
  <path d="M63 516 l5 5 9 -10" stroke="#171717" stroke-width="2.5" stroke-linecap="round" stroke-linejoin="round"/>
  <rect x="94" y="502" width="120" height="8" rx="4" fill="#fafafa"/>
  <rect x="94" y="518" width="90" height="7" rx="3.5" fill="#525252"/>

  <!-- Sparkles -->
  <path d="M712 64 l6 18 18 6 -18 6 -6 18 -6 -18 -18 -6 18 -6 z" fill="#a3e635"/>
  <path d="M56 176 l4 12 12 4 -12 4 -4 12 -4 -12 -12 -4 12 -4 z" fill="#d9f99d"/>
  <path d="M756 420 l4 12 12 4 -12 4 -4 12 -4 -12 -12 -4 12 -4 z" fill="#a3e635"/>
</svg>
