<?xml version="1.0" encoding="UTF-8"?>
<svg xmlns="http://www.w3.org/2000/svg" id="a" width="865.76" height="682.89" viewBox="0 0 865.76 682.89">
  <g>
    <path d="M715.12,146.5h-.46V46.61c0-21.39-17.34-38.72-38.72-38.72h-244.45c-21.39,0-38.72,17.34-38.72,38.72V606.59c0,21.39,17.34,38.72,38.72,38.72h244.45c21.39,0,38.72-17.34,38.72-38.72V219.7h.46c.9,0,1.64-.73,1.64-1.64v-69.93c0-.9-.73-1.64-1.64-1.64Z" fill="#002346"></path>
    <path d="M390.56,193.21v43.13c0,.9,.73,1.64,1.64,1.64h.57v-46.4h-.57c-.9,0-1.64,.73-1.64,1.64Z" fill="#002346"></path>
    <path d="M390.56,132.62v43.13c0,.9,.73,1.64,1.64,1.64h.57v-46.38h-.57c-.9,0-1.63,.72-1.64,1.62Z" fill="#002346"></path>
    <path d="M390.86,86.94v18.67c0,.8,.65,1.45,1.45,1.45h.44v-21.56h-.44c-.8,0-1.44,.64-1.45,1.44Z" fill="#002346"></path>
  </g>
  <g opacity=".3">
    <rect x="397.82" y="12.96" width="311.75" height="627.3" rx="33.97" ry="33.97"></rect>
  </g>
  <path d="M530.59,33.04c-1.97,0-3.58-1.6-3.58-3.58s1.6-3.58,3.58-3.58h46.03c1.97,0,3.58,1.6,3.58,3.58s-1.6,3.58-3.58,3.58h-46.03Z" fill="#fff"></path>
  <path d="M505.91,33.04c-1.97,0-3.58-1.6-3.58-3.58,0-1.97,1.6-3.58,3.58-3.58s3.58,1.6,3.58,3.58h0c0,1.97-1.6,3.57-3.58,3.58Z" fill="#fff"></path>
  <path d="M519.08,33.04c-1.97,0-3.58-1.6-3.58-3.58,0-1.97,1.6-3.58,3.58-3.58s3.58,1.6,3.58,3.58h0c0,1.97-1.6,3.58-3.58,3.58Z" fill="#fff"></path>
  <path d="M601.51,33.04c-1.97,0-3.58-1.6-3.58-3.58s1.6-3.58,3.58-3.58,3.58,1.6,3.58,3.58h0c0,1.97-1.6,3.57-3.58,3.58Z" fill="#fff"></path>
  <path d="M588.34,33.04c-1.97,0-3.58-1.6-3.58-3.58s1.6-3.58,3.58-3.58,3.58,1.6,3.58,3.58h0c0,1.97-1.6,3.57-3.58,3.58Z" fill="#fff"></path>
  <path d="M702.33,39.31V611.31c0,11.31-9.17,20.48-20.48,20.48h-253.45c-12.88,0-23.32-10.44-23.32-23.32V51.72c0-19.06,15.45-34.5,34.51-34.5h43.28c4.2,0,7.9,2.78,9.08,6.81l3.55,12.23c1.31,4.52,5.45,7.63,10.16,7.64h96.07c4.71,0,8.85-3.12,10.16-7.64l3.55-12.23c1.19-4.02,4.87-6.77,9.06-6.77h55.73c5.85,0,11.16,2.27,15.11,5.98,4.29,4.02,6.98,9.73,7,16.08Z" fill="#fff"></path>
  <path d="M715.12,219.7h-.47v-73.2h.47c.9,0,1.64,.73,1.64,1.64h0v69.93c0,.9-.73,1.64-1.64,1.64Z" fill="#2f2e41"></path>
  <g>
    <path d="M392.19,191.58h.57v46.4h-.57c-.9,0-1.64-.73-1.64-1.64h0v-43.13c0-.9,.73-1.64,1.64-1.64h0Z" fill="#002346"></path>
    <path d="M392.19,131h.57v46.38h-.57c-.9,0-1.64-.73-1.64-1.64h0v-43.13c0-.9,.74-1.62,1.64-1.62Z" fill="#002346"></path>
    <path d="M392.31,85.51h.44v21.56h-.44c-.8,0-1.45-.65-1.45-1.45v-18.67c0-.8,.66-1.44,1.45-1.44Z" fill="#002346"></path>
  </g>
  <path d="M675.81,41.75h-11.09c-.71,0-1.29-.58-1.29-1.29v-5.52c0-.7,.57-1.28,1.27-1.29h11.07c.12-.02,.23-.01,.35,.02,.16,.05,.29,.17,.34,.33,.04,.12,.04,.24,.02,.36v1.4h.69c.35-.02,.68,.26,.71,.64v2.71c0,.39-.31,.7-.7,.7h-.71s0,1.32,0,1.32c0,.06-.01,.13-.04,.19-.09,.23-.3,.39-.54,.43-.03,0-.05,0-.08,0Zm-11.11-7.11c-.15,0-.28,.14-.28,.29v5.52c0,.16,.13,.29,.29,.29h10.75v-1.44c0-.28,.22-.5,.5-.5h.91v-2.06h-.91c-.28,0-.5-.22-.5-.5v-1.61h-10.76Zm12.45,2.11s.03,0,.05,0h-.05Z" fill="#002346"></path>
  <polygon points="665.24 39.95 665.24 35.46 674.71 35.46 674.71 37.49 674.71 37.92 674.71 39.95 665.24 39.95" fill="#002346"></polygon>
  <path d="M658.61,36.58c-.11,0-.22-.04-.32-.11-5.86-4.77-10.34-.26-10.53-.06-.19,.2-.51,.21-.71,.01-.2-.19-.21-.51-.02-.71,.05-.05,5.29-5.39,11.88-.02,.21,.17,.25,.49,.07,.7-.1,.12-.24,.18-.39,.18Z" fill="#002346"></path>
  <path d="M649.07,38.25c-.12,0-.24-.04-.33-.13-.21-.18-.22-.5-.04-.7,.04-.04,3.65-3.98,8.55-.08,.22,.17,.25,.49,.08,.7-.17,.22-.49,.25-.7,.08-4.16-3.3-7.07-.17-7.19-.03-.1,.11-.24,.17-.37,.17Z" fill="#002346"></path>
  <path d="M650.72,39.89c-.13,0-.26-.05-.36-.15-.19-.2-.18-.52,.02-.71,.86-.82,3.07-1.9,5.25-.07,.21,.18,.24,.49,.06,.7-.18,.21-.49,.24-.7,.06-2.05-1.72-3.84-.05-3.92,.02-.1,.09-.22,.14-.35,.14Z" fill="#002346"></path>
  <circle cx="653.01" cy="40.84" r=".82" fill="#002346"></circle>
  <path d="M642.13,41.62c-.28,0-.5-.22-.5-.5v-7.49c0-.28,.22-.5,.5-.5s.5,.22,.5,.5v7.49c0,.28-.22,.5-.5,.5Z" fill="#002346"></path>
  <path d="M638.47,41.62c-.28,0-.5-.22-.5-.5v-5.84c0-.28,.22-.5,.5-.5s.5,.22,.5,.5v5.84c0,.28-.22,.5-.5,.5Z" fill="#002346"></path>
  <path d="M634.88,41.62c-.28,0-.5-.22-.5-.5v-4.74c0-.28,.22-.5,.5-.5s.5,.22,.5,.5v4.74c0,.28-.22,.5-.5,.5Z" fill="#002346"></path>
  <path d="M631.27,41.62c-.28,0-.5-.22-.5-.5v-3.1c0-.28,.22-.5,.5-.5s.5,.22,.5,.5v3.1c0,.28-.22,.5-.5,.5Z" fill="#002346"></path>
  <g>
    <path d="M517.79,96.13h-16.49v4.89h11.7c-.58,6.85-6.29,9.79-11.68,9.79-7.1,.03-12.88-5.7-12.91-12.8,0-.08,0-.15,0-.23,0-7.41,5.73-13.11,12.93-13.11,5.55,0,8.82,3.54,8.82,3.54l3.42-3.55s-4.4-4.9-12.42-4.9c-10.21,0-18.12,8.62-18.12,17.93s7.43,18.02,18.37,18.02c9.62,0,16.67-6.59,16.67-16.34,0-2.06-.3-3.25-.3-3.25h0Z" fill="#4885ed"></path>
    <g id="b">
      <path d="M531.3,92.58c-6.77,0-11.62,5.29-11.62,11.46s4.7,11.65,11.7,11.65c6.33,0,11.52-4.84,11.52-11.52,0-7.64-6.03-11.59-11.59-11.59h0Zm.07,4.54c3.33,0,6.48,2.69,6.48,7.03s-3.14,7.01-6.5,7.01c-3.69,0-6.59-2.95-6.59-7.04s2.87-6.99,6.61-6.99h-.01Z" fill="#db3236"></path>
    </g>
    <g id="c">
      <path d="M556.56,92.58c-6.77,0-11.62,5.29-11.62,11.46s4.7,11.65,11.7,11.65c6.33,0,11.52-4.84,11.52-11.52,0-7.64-6.03-11.59-11.59-11.59h0Zm.07,4.54c3.33,0,6.48,2.69,6.48,7.03s-3.14,7.01-6.5,7.01c-3.69,0-6.59-2.95-6.59-7.04s2.87-6.99,6.61-6.99h-.01Z" fill="#f4c20d"></path>
    </g>
    <path d="M581.34,92.6c-6.21,0-11.09,5.44-11.09,11.55,0,6.95,5.66,11.57,10.99,11.57,3.29,0,5.04-1.31,6.32-2.81v2.28c0,3.99-2.42,6.38-6.07,6.38s-5.3-2.63-5.93-4.11l-4.44,1.84c1.58,3.33,4.75,6.81,10.41,6.81,6.19,0,10.88-3.89,10.88-12.05v-20.75h-4.83v1.96c-1.49-1.61-3.53-2.65-6.23-2.65h0Zm.45,4.53c3.05,0,6.17,2.6,6.17,7.04s-3.12,7-6.24,7c-3.31,0-6.39-2.69-6.39-6.96s3.2-7.08,6.46-7.08h0Z" fill="#4885ed"></path>
    <path d="M613.97,92.57c-5.86,0-10.78,4.66-10.78,11.54,0,7.28,5.48,11.59,11.33,11.59,4.89,0,7.9-2.67,9.68-5.07l-3.99-2.66c-1.04,1.61-2.77,3.18-5.66,3.18-3.25,0-4.74-1.78-5.67-3.5l15.49-6.43-.79-1.88c-1.5-3.69-4.99-6.77-9.61-6.77h0Zm.2,4.44c2.11,0,3.63,1.12,4.28,2.47l-10.35,4.32c-.45-3.35,2.73-6.79,6.06-6.79h.01Z" fill="#db3236"></path>
    <path d="M595.79,115.02h5.09v-34.06h-5.09v34.06Z" fill="#3cba54"></path>
  </g>
  <g>
    <rect x="423.2" y="147.96" width="261" height="43" fill="#f1f2f2"></rect>
    <path d="M684.7,191.46H422.7v-44h262v44Zm-261-1h260v-42H423.7v42Z" fill="#002346"></path>
  </g>
  <g>
    <rect x="641.37" y="147.96" width="43" height="43" fill="#314f3e"></rect>
    <path d="M684.87,191.46h-44v-44h44v44Zm-43-1h42v-42h-42v42Z" fill="#002346"></path>
  </g>
  <path d="M672.68,175.53c.06,.2,.04,.43-.07,.61-.21,.38-.69,.52-1.07,.32l-5.28-2.86c-2.12,3.02-6.17,3.99-9.43,2.26-3.53-1.91-4.83-6.32-2.92-9.85,1.91-3.53,6.32-4.83,9.85-2.92,1.69,.92,2.95,2.47,3.5,4.31,.48,1.58,.4,3.28-.23,4.81l5.27,2.86c.19,.09,.33,.26,.39,.46Zm-17.83-4.45c1.02,2.97,4.26,4.54,7.22,3.52,2.79-.96,4.38-3.9,3.66-6.76-.76-3.04-3.85-4.89-6.89-4.13-3.04,.76-4.89,3.85-4.13,6.89,.04,.16,.09,.31,.14,.47Z" fill="#fff"></path>
  <g>
    <path d="M447.16,172.74c-.45,.22-1.34,.45-2.49,.45-2.66,0-4.67-1.68-4.67-4.78s2-4.96,4.93-4.96c1.18,0,1.92,.25,2.24,.42l-.29,.99c-.46-.22-1.12-.39-1.91-.39-2.21,0-3.68,1.42-3.68,3.89,0,2.31,1.33,3.8,3.63,3.8,.74,0,1.5-.15,1.99-.39l.25,.97Z" fill="#002346"></path>
    <path d="M449.17,169.88c.03,1.67,1.09,2.35,2.33,2.35,.88,0,1.41-.15,1.88-.35l.21,.88c-.43,.2-1.18,.42-2.25,.42-2.09,0-3.33-1.37-3.33-3.42s1.21-3.66,3.18-3.66c2.21,0,2.8,1.95,2.8,3.19,0,.25-.03,.45-.04,.57h-4.76Zm3.61-.88c.01-.78-.32-2-1.71-2-1.25,0-1.79,1.15-1.89,2h3.6Z" fill="#002346"></path>
    <path d="M455.5,163.1h1.23v9.95h-1.23v-9.95Z" fill="#002346"></path>
    <path d="M458.8,163.1h1.23v9.95h-1.23v-9.95Z" fill="#002346"></path>
    <path d="M465.11,163.72c.59-.1,1.36-.18,2.34-.18,1.21,0,2.09,.28,2.65,.78,.52,.45,.83,1.13,.83,1.98s-.25,1.53-.73,2.02c-.64,.69-1.7,1.04-2.89,1.04-.36,0-.7-.01-.98-.08v3.78h-1.22v-9.33Zm1.22,4.55c.27,.07,.6,.1,1.01,.1,1.47,0,2.37-.71,2.37-2.02s-.88-1.85-2.23-1.85c-.53,0-.94,.04-1.15,.1v3.67Z" fill="#002346"></path>
    <path d="M472.45,163.1h1.23v4.23h.03c.2-.35,.5-.66,.88-.87,.36-.21,.8-.35,1.26-.35,.91,0,2.37,.56,2.37,2.9v4.03h-1.23v-3.89c0-1.09-.41-2.02-1.57-2.02-.8,0-1.43,.56-1.65,1.23-.07,.17-.08,.35-.08,.59v4.09h-1.23v-9.95Z" fill="#002346"></path>
    <path d="M486.36,169.6c0,2.51-1.74,3.6-3.38,3.6-1.84,0-3.25-1.34-3.25-3.49,0-2.27,1.48-3.6,3.36-3.6s3.26,1.41,3.26,3.49Zm-5.38,.07c0,1.48,.85,2.61,2.06,2.61s2.06-1.11,2.06-2.63c0-1.15-.57-2.61-2.03-2.61s-2.09,1.34-2.09,2.63Z" fill="#002346"></path>
    <path d="M487.91,168.1c0-.7-.01-1.27-.06-1.83h1.09l.07,1.12h.03c.34-.64,1.12-1.27,2.24-1.27,.94,0,2.4,.56,2.4,2.89v4.05h-1.23v-3.91c0-1.09-.41-2-1.57-2-.81,0-1.44,.57-1.65,1.26-.06,.15-.08,.36-.08,.57v4.08h-1.23v-4.94Z" fill="#002346"></path>
    <path d="M496.36,169.88c.03,1.67,1.09,2.35,2.33,2.35,.88,0,1.41-.15,1.88-.35l.21,.88c-.43,.2-1.18,.42-2.25,.42-2.09,0-3.33-1.37-3.33-3.42s1.21-3.66,3.18-3.66c2.21,0,2.8,1.95,2.8,3.19,0,.25-.03,.45-.04,.57h-4.76Zm3.61-.88c.01-.78-.32-2-1.71-2-1.25,0-1.79,1.15-1.89,2h3.6Z" fill="#002346"></path>
  </g>
  <g>
    <path d="M447.16,219.74c-.45,.22-1.34,.45-2.49,.45-2.66,0-4.67-1.68-4.67-4.78s2-4.96,4.93-4.96c1.18,0,1.92,.25,2.24,.42l-.29,.99c-.46-.22-1.12-.39-1.91-.39-2.21,0-3.68,1.42-3.68,3.89,0,2.31,1.33,3.8,3.63,3.8,.74,0,1.5-.15,1.99-.39l.25,.97Z" fill="#002346"></path>
    <path d="M449.17,216.88c.03,1.67,1.09,2.35,2.33,2.35,.88,0,1.41-.15,1.88-.35l.21,.88c-.43,.2-1.18,.42-2.25,.42-2.09,0-3.33-1.37-3.33-3.42s1.21-3.66,3.18-3.66c2.21,0,2.8,1.95,2.8,3.19,0,.25-.03,.45-.04,.57h-4.76Zm3.61-.88c.01-.78-.32-2-1.71-2-1.25,0-1.79,1.15-1.89,2h3.6Z" fill="#002346"></path>
    <path d="M455.5,210.1h1.23v9.95h-1.23v-9.95Z" fill="#002346"></path>
    <path d="M458.8,210.1h1.23v9.95h-1.23v-9.95Z" fill="#002346"></path>
    <path d="M465.11,210.72c.59-.1,1.36-.18,2.34-.18,1.21,0,2.09,.28,2.65,.78,.52,.45,.83,1.13,.83,1.98s-.25,1.53-.73,2.02c-.64,.69-1.7,1.04-2.89,1.04-.36,0-.7-.01-.98-.08v3.78h-1.22v-9.33Zm1.22,4.55c.27,.07,.6,.1,1.01,.1,1.47,0,2.37-.71,2.37-2.02s-.88-1.85-2.23-1.85c-.53,0-.94,.04-1.15,.1v3.67Z" fill="#002346"></path>
    <path d="M472.45,210.1h1.23v4.23h.03c.2-.35,.5-.66,.88-.87,.36-.21,.8-.35,1.26-.35,.91,0,2.37,.56,2.37,2.9v4.03h-1.23v-3.89c0-1.09-.41-2.02-1.57-2.02-.8,0-1.43,.56-1.65,1.23-.07,.17-.08,.35-.08,.59v4.09h-1.23v-9.95Z" fill="#002346"></path>
    <path d="M486.36,216.6c0,2.51-1.74,3.6-3.38,3.6-1.84,0-3.25-1.34-3.25-3.49,0-2.27,1.48-3.6,3.36-3.6s3.26,1.41,3.26,3.49Zm-5.38,.07c0,1.48,.85,2.61,2.06,2.61s2.06-1.11,2.06-2.63c0-1.15-.57-2.61-2.03-2.61s-2.09,1.34-2.09,2.63Z" fill="#002346"></path>
    <path d="M487.91,215.1c0-.7-.01-1.27-.06-1.83h1.09l.07,1.12h.03c.34-.64,1.12-1.27,2.24-1.27,.94,0,2.4,.56,2.4,2.89v4.05h-1.23v-3.91c0-1.09-.41-2-1.57-2-.81,0-1.44,.57-1.65,1.26-.06,.15-.08,.36-.08,.57v4.08h-1.23v-4.94Z" fill="#002346"></path>
    <path d="M496.36,216.88c.03,1.67,1.09,2.35,2.33,2.35,.88,0,1.41-.15,1.88-.35l.21,.88c-.43,.2-1.18,.42-2.25,.42-2.09,0-3.33-1.37-3.33-3.42s1.21-3.66,3.18-3.66c2.21,0,2.8,1.95,2.8,3.19,0,.25-.03,.45-.04,.57h-4.76Zm3.61-.88c.01-.78-.32-2-1.71-2-1.25,0-1.79,1.15-1.89,2h3.6Z" fill="#002346"></path>
    <path d="M512.3,219.74c-.45,.22-1.34,.45-2.49,.45-2.66,0-4.67-1.68-4.67-4.78s2-4.96,4.93-4.96c1.18,0,1.92,.25,2.24,.42l-.29,.99c-.46-.22-1.12-.39-1.91-.39-2.21,0-3.68,1.42-3.68,3.89,0,2.31,1.33,3.8,3.63,3.8,.74,0,1.5-.15,1.99-.39l.25,.97Z" fill="#002346"></path>
    <path d="M519.76,216.6c0,2.51-1.74,3.6-3.38,3.6-1.83,0-3.25-1.34-3.25-3.49,0-2.27,1.48-3.6,3.36-3.6s3.26,1.41,3.26,3.49Zm-5.38,.07c0,1.48,.85,2.61,2.06,2.61s2.06-1.11,2.06-2.63c0-1.15-.57-2.61-2.03-2.61s-2.09,1.34-2.09,2.63Z" fill="#002346"></path>
    <path d="M521.69,213.27l1.33,3.81c.22,.62,.41,1.18,.55,1.74h.04c.15-.56,.35-1.12,.57-1.74l1.32-3.81h1.29l-2.66,6.78h-1.18l-2.58-6.78h1.32Z" fill="#002346"></path>
    <path d="M528.49,216.88c.03,1.67,1.09,2.35,2.33,2.35,.88,0,1.41-.15,1.88-.35l.21,.88c-.43,.2-1.18,.42-2.25,.42-2.09,0-3.33-1.37-3.33-3.42s1.21-3.66,3.18-3.66c2.21,0,2.8,1.95,2.8,3.19,0,.25-.03,.45-.04,.57h-4.76Zm3.62-.88c.01-.78-.32-2-1.71-2-1.25,0-1.79,1.15-1.89,2h3.6Z" fill="#002346"></path>
    <path d="M534.82,215.38c0-.8-.01-1.48-.06-2.12h1.08l.04,1.33h.06c.31-.91,1.05-1.48,1.88-1.48,.14,0,.24,.01,.35,.04v1.16c-.13-.03-.25-.04-.42-.04-.87,0-1.49,.66-1.65,1.58-.03,.17-.05,.36-.05,.57v3.61h-1.22v-4.66Z" fill="#002346"></path>
  </g>
  <g>
    <path d="M447.16,258.21c-.45,.22-1.34,.45-2.49,.45-2.66,0-4.67-1.68-4.67-4.78s2-4.96,4.93-4.96c1.18,0,1.92,.25,2.24,.42l-.29,.99c-.46-.22-1.12-.39-1.91-.39-2.21,0-3.68,1.42-3.68,3.89,0,2.31,1.33,3.8,3.63,3.8,.74,0,1.5-.15,1.99-.39l.25,.97Z" fill="#002346"></path>
    <path d="M449.17,255.36c.03,1.67,1.09,2.35,2.33,2.35,.88,0,1.41-.15,1.88-.35l.21,.88c-.43,.2-1.18,.42-2.25,.42-2.09,0-3.33-1.37-3.33-3.42s1.21-3.66,3.18-3.66c2.21,0,2.8,1.95,2.8,3.19,0,.25-.03,.45-.04,.57h-4.76Zm3.61-.88c.01-.78-.32-2-1.71-2-1.25,0-1.79,1.15-1.89,2h3.6Z" fill="#002346"></path>
    <path d="M455.5,248.58h1.23v9.95h-1.23v-9.95Z" fill="#002346"></path>
    <path d="M458.8,248.58h1.23v9.95h-1.23v-9.95Z" fill="#002346"></path>
    <path d="M465.11,249.19c.59-.1,1.36-.18,2.34-.18,1.21,0,2.09,.28,2.65,.78,.52,.45,.83,1.13,.83,1.98s-.25,1.53-.73,2.02c-.64,.69-1.7,1.04-2.89,1.04-.36,0-.7-.01-.98-.08v3.78h-1.22v-9.33Zm1.22,4.55c.27,.07,.6,.1,1.01,.1,1.47,0,2.37-.71,2.37-2.02s-.88-1.85-2.23-1.85c-.53,0-.94,.04-1.15,.1v3.67Z" fill="#002346"></path>
    <path d="M472.45,248.58h1.23v4.23h.03c.2-.35,.5-.66,.88-.87,.36-.21,.8-.35,1.26-.35,.91,0,2.37,.56,2.37,2.9v4.03h-1.23v-3.89c0-1.09-.41-2.02-1.57-2.02-.8,0-1.43,.56-1.65,1.23-.07,.17-.08,.35-.08,.59v4.09h-1.23v-9.95Z" fill="#002346"></path>
    <path d="M486.36,255.08c0,2.51-1.74,3.6-3.38,3.6-1.84,0-3.25-1.34-3.25-3.49,0-2.27,1.48-3.6,3.36-3.6s3.26,1.41,3.26,3.49Zm-5.38,.07c0,1.48,.85,2.61,2.06,2.61s2.06-1.11,2.06-2.63c0-1.15-.57-2.61-2.03-2.61s-2.09,1.34-2.09,2.63Z" fill="#002346"></path>
    <path d="M487.91,253.58c0-.7-.01-1.27-.06-1.83h1.09l.07,1.12h.03c.34-.64,1.12-1.27,2.24-1.27,.94,0,2.4,.56,2.4,2.89v4.05h-1.23v-3.91c0-1.09-.41-2-1.57-2-.81,0-1.44,.57-1.65,1.26-.06,.15-.08,.36-.08,.57v4.08h-1.23v-4.94Z" fill="#002346"></path>
    <path d="M496.36,255.36c.03,1.67,1.09,2.35,2.33,2.35,.88,0,1.41-.15,1.88-.35l.21,.88c-.43,.2-1.18,.42-2.25,.42-2.09,0-3.33-1.37-3.33-3.42s1.21-3.66,3.18-3.66c2.21,0,2.8,1.95,2.8,3.19,0,.25-.03,.45-.04,.57h-4.76Zm3.61-.88c.01-.78-.32-2-1.71-2-1.25,0-1.79,1.15-1.89,2h3.6Z" fill="#002346"></path>
    <path d="M512.3,258.21c-.45,.22-1.34,.45-2.49,.45-2.66,0-4.67-1.68-4.67-4.78s2-4.96,4.93-4.96c1.18,0,1.92,.25,2.24,.42l-.29,.99c-.46-.22-1.12-.39-1.91-.39-2.21,0-3.68,1.42-3.68,3.89,0,2.31,1.33,3.8,3.63,3.8,.74,0,1.5-.15,1.99-.39l.25,.97Z" fill="#002346"></path>
    <path d="M517.43,258.52l-.1-.85h-.04c-.38,.53-1.11,1.01-2.07,1.01-1.37,0-2.07-.97-2.07-1.95,0-1.64,1.46-2.54,4.08-2.52v-.14c0-.56-.15-1.57-1.54-1.57-.63,0-1.29,.2-1.77,.5l-.28-.81c.56-.36,1.37-.6,2.23-.6,2.07,0,2.58,1.41,2.58,2.77v2.54c0,.59,.03,1.16,.11,1.62h-1.12Zm-.18-3.46c-1.34-.03-2.87,.21-2.87,1.53,0,.8,.53,1.18,1.16,1.18,.88,0,1.44-.56,1.64-1.13,.04-.13,.07-.27,.07-.39v-1.18Z" fill="#002346"></path>
    <path d="M520.26,257.26c.36,.24,1.01,.49,1.62,.49,.9,0,1.32-.45,1.32-1.01,0-.59-.35-.91-1.26-1.25-1.22-.43-1.79-1.11-1.79-1.92,0-1.09,.88-1.99,2.34-1.99,.69,0,1.29,.2,1.67,.42l-.31,.9c-.27-.17-.76-.39-1.39-.39-.73,0-1.13,.42-1.13,.92,0,.56,.41,.81,1.29,1.15,1.18,.45,1.78,1.04,1.78,2.04,0,1.19-.92,2.03-2.54,2.03-.74,0-1.43-.18-1.9-.46l.31-.94Z" fill="#002346"></path>
    <path d="M525.97,248.58h1.23v4.23h.03c.2-.35,.5-.66,.88-.87,.36-.21,.8-.35,1.26-.35,.91,0,2.37,.56,2.37,2.9v4.03h-1.23v-3.89c0-1.09-.41-2.02-1.57-2.02-.8,0-1.43,.56-1.65,1.23-.07,.17-.08,.35-.08,.59v4.09h-1.23v-9.95Z" fill="#002346"></path>
    <path d="M543.35,258.21c-.45,.22-1.35,.45-2.49,.45-2.66,0-4.66-1.68-4.66-4.78s2-4.96,4.93-4.96c1.18,0,1.92,.25,2.24,.42l-.29,.99c-.46-.22-1.12-.39-1.9-.39-2.21,0-3.68,1.42-3.68,3.89,0,2.31,1.33,3.8,3.63,3.8,.74,0,1.5-.15,1.99-.39l.25,.97Z" fill="#002346"></path>
    <path d="M550.81,255.08c0,2.51-1.74,3.6-3.38,3.6-1.84,0-3.25-1.34-3.25-3.49,0-2.27,1.48-3.6,3.36-3.6s3.26,1.41,3.26,3.49Zm-5.38,.07c0,1.48,.86,2.61,2.06,2.61s2.06-1.11,2.06-2.63c0-1.15-.57-2.61-2.03-2.61s-2.09,1.34-2.09,2.63Z" fill="#002346"></path>
    <path d="M552.74,251.74l1.33,3.81c.22,.62,.41,1.18,.55,1.74h.04c.15-.56,.35-1.12,.57-1.74l1.32-3.81h1.29l-2.66,6.78h-1.18l-2.58-6.78h1.32Z" fill="#002346"></path>
    <path d="M559.54,255.36c.03,1.67,1.09,2.35,2.33,2.35,.88,0,1.41-.15,1.88-.35l.21,.88c-.43,.2-1.18,.42-2.25,.42-2.09,0-3.33-1.37-3.33-3.42s1.21-3.66,3.18-3.66c2.21,0,2.8,1.95,2.8,3.19,0,.25-.03,.45-.04,.57h-4.76Zm3.62-.88c.01-.78-.32-2-1.71-2-1.25,0-1.79,1.15-1.89,2h3.6Z" fill="#002346"></path>
    <path d="M565.87,253.86c0-.8-.01-1.48-.05-2.12h1.08l.04,1.33h.06c.31-.91,1.05-1.48,1.88-1.48,.14,0,.24,.01,.35,.04v1.16c-.12-.03-.25-.04-.42-.04-.87,0-1.48,.66-1.65,1.58-.03,.17-.06,.36-.06,.57v3.61h-1.22v-4.66Z" fill="#002346"></path>
  </g>
  <g>
    <path d="M447.16,295.38c-.45,.22-1.34,.45-2.49,.45-2.66,0-4.67-1.68-4.67-4.78s2-4.96,4.93-4.96c1.18,0,1.92,.25,2.24,.42l-.29,.99c-.46-.22-1.12-.39-1.91-.39-2.21,0-3.68,1.42-3.68,3.89,0,2.31,1.33,3.8,3.63,3.8,.74,0,1.5-.15,1.99-.39l.25,.97Z" fill="#002346"></path>
    <path d="M449.17,292.53c.03,1.67,1.09,2.35,2.33,2.35,.88,0,1.41-.15,1.88-.35l.21,.88c-.43,.2-1.18,.42-2.25,.42-2.09,0-3.33-1.37-3.33-3.42s1.21-3.66,3.18-3.66c2.21,0,2.8,1.95,2.8,3.19,0,.25-.03,.45-.04,.57h-4.76Zm3.61-.88c.01-.78-.32-2-1.71-2-1.25,0-1.79,1.15-1.89,2h3.6Z" fill="#002346"></path>
    <path d="M455.5,285.75h1.23v9.95h-1.23v-9.95Z" fill="#002346"></path>
    <path d="M458.8,285.75h1.23v9.95h-1.23v-9.95Z" fill="#002346"></path>
    <path d="M465.11,286.36c.59-.1,1.36-.18,2.34-.18,1.21,0,2.09,.28,2.65,.78,.52,.45,.83,1.13,.83,1.98s-.25,1.53-.73,2.02c-.64,.69-1.7,1.04-2.89,1.04-.36,0-.7-.01-.98-.08v3.78h-1.22v-9.33Zm1.22,4.55c.27,.07,.6,.1,1.01,.1,1.47,0,2.37-.71,2.37-2.02s-.88-1.85-2.23-1.85c-.53,0-.94,.04-1.15,.1v3.67Z" fill="#002346"></path>
    <path d="M472.45,285.75h1.23v4.23h.03c.2-.35,.5-.66,.88-.87,.36-.21,.8-.35,1.26-.35,.91,0,2.37,.56,2.37,2.9v4.03h-1.23v-3.89c0-1.09-.41-2.02-1.57-2.02-.8,0-1.43,.56-1.65,1.23-.07,.17-.08,.35-.08,.59v4.09h-1.23v-9.95Z" fill="#002346"></path>
    <path d="M486.36,292.25c0,2.51-1.74,3.6-3.38,3.6-1.84,0-3.25-1.34-3.25-3.49,0-2.27,1.48-3.6,3.36-3.6s3.26,1.41,3.26,3.49Zm-5.38,.07c0,1.48,.85,2.61,2.06,2.61s2.06-1.11,2.06-2.63c0-1.15-.57-2.61-2.03-2.61s-2.09,1.34-2.09,2.63Z" fill="#002346"></path>
    <path d="M487.91,290.75c0-.7-.01-1.27-.06-1.83h1.09l.07,1.12h.03c.34-.64,1.12-1.27,2.24-1.27,.94,0,2.4,.56,2.4,2.89v4.05h-1.23v-3.91c0-1.09-.41-2-1.57-2-.81,0-1.44,.57-1.65,1.26-.06,.15-.08,.36-.08,.57v4.08h-1.23v-4.94Z" fill="#002346"></path>
    <path d="M496.36,292.53c.03,1.67,1.09,2.35,2.33,2.35,.88,0,1.41-.15,1.88-.35l.21,.88c-.43,.2-1.18,.42-2.25,.42-2.09,0-3.33-1.37-3.33-3.42s1.21-3.66,3.18-3.66c2.21,0,2.8,1.95,2.8,3.19,0,.25-.03,.45-.04,.57h-4.76Zm3.61-.88c.01-.78-.32-2-1.71-2-1.25,0-1.79,1.15-1.89,2h3.6Z" fill="#002346"></path>
    <path d="M505.7,286.38c.62-.13,1.5-.2,2.34-.2,1.3,0,2.14,.24,2.73,.77,.47,.42,.74,1.06,.74,1.79,0,1.25-.79,2.07-1.78,2.41v.04c.73,.25,1.16,.92,1.39,1.91,.31,1.32,.53,2.23,.73,2.59h-1.26c-.15-.27-.36-1.08-.63-2.26-.28-1.3-.79-1.79-1.89-1.83h-1.15v4.09h-1.22v-9.31Zm1.22,4.3h1.25c1.3,0,2.13-.71,2.13-1.79,0-1.22-.88-1.75-2.17-1.77-.59,0-1.01,.06-1.21,.11v3.45Z" fill="#002346"></path>
    <path d="M513.93,292.53c.03,1.67,1.09,2.35,2.33,2.35,.88,0,1.41-.15,1.88-.35l.21,.88c-.43,.2-1.18,.42-2.25,.42-2.09,0-3.33-1.37-3.33-3.42s1.21-3.66,3.18-3.66c2.21,0,2.8,1.95,2.8,3.19,0,.25-.03,.45-.04,.57h-4.76Zm3.62-.88c.01-.78-.32-2-1.71-2-1.25,0-1.79,1.15-1.89,2h3.6Z" fill="#002346"></path>
    <path d="M520.26,291.12c0-.87-.03-1.57-.06-2.21h1.11l.05,1.16h.03c.5-.83,1.3-1.32,2.41-1.32,1.64,0,2.87,1.39,2.87,3.45,0,2.44-1.49,3.64-3.08,3.64-.9,0-1.68-.39-2.09-1.06h-.03v3.68h-1.22v-7.34Zm1.22,1.81c0,.18,.03,.35,.05,.5,.22,.85,.97,1.44,1.85,1.44,1.3,0,2.06-1.06,2.06-2.62,0-1.36-.71-2.52-2.02-2.52-.84,0-1.62,.6-1.86,1.53-.04,.15-.08,.34-.08,.5v1.16Z" fill="#002346"></path>
    <path d="M531.98,295.69l-.1-.85h-.04c-.38,.53-1.11,1.01-2.07,1.01-1.37,0-2.07-.97-2.07-1.95,0-1.64,1.46-2.54,4.08-2.52v-.14c0-.56-.15-1.57-1.54-1.57-.63,0-1.29,.2-1.77,.5l-.28-.81c.56-.36,1.37-.6,2.23-.6,2.07,0,2.58,1.41,2.58,2.77v2.54c0,.59,.03,1.16,.11,1.62h-1.12Zm-.18-3.46c-1.34-.03-2.87,.21-2.87,1.53,0,.8,.53,1.18,1.16,1.18,.88,0,1.44-.56,1.64-1.13,.04-.13,.07-.27,.07-.39v-1.18Z" fill="#002346"></path>
    <path d="M536.35,287.01c.01,.42-.29,.76-.78,.76-.44,0-.74-.34-.74-.76s.32-.77,.77-.77,.76,.34,.76,.77Zm-1.37,8.68v-6.78h1.23v6.78h-1.23Z" fill="#002346"></path>
    <path d="M538.25,291.03c0-.8-.01-1.48-.06-2.12h1.08l.04,1.33h.06c.31-.91,1.05-1.48,1.88-1.48,.14,0,.24,.01,.35,.04v1.16c-.13-.03-.25-.04-.42-.04-.87,0-1.49,.66-1.65,1.58-.03,.17-.05,.36-.05,.57v3.61h-1.22v-4.66Z" fill="#002346"></path>
  </g>
  <g>
    <path d="M447.16,335.17c-.45,.22-1.34,.45-2.49,.45-2.66,0-4.67-1.68-4.67-4.78s2-4.96,4.93-4.96c1.18,0,1.92,.25,2.24,.42l-.29,.99c-.46-.22-1.12-.39-1.91-.39-2.21,0-3.68,1.42-3.68,3.89,0,2.31,1.33,3.8,3.63,3.8,.74,0,1.5-.15,1.99-.39l.25,.97Z" fill="#002346"></path>
    <path d="M449.17,332.31c.03,1.67,1.09,2.35,2.33,2.35,.88,0,1.41-.15,1.88-.35l.21,.88c-.43,.2-1.18,.42-2.25,.42-2.09,0-3.33-1.37-3.33-3.42s1.21-3.66,3.18-3.66c2.21,0,2.8,1.95,2.8,3.19,0,.25-.03,.45-.04,.57h-4.76Zm3.61-.88c.01-.78-.32-2-1.71-2-1.25,0-1.79,1.15-1.89,2h3.6Z" fill="#002346"></path>
    <path d="M455.5,325.53h1.23v9.95h-1.23v-9.95Z" fill="#002346"></path>
    <path d="M458.8,325.53h1.23v9.95h-1.23v-9.95Z" fill="#002346"></path>
    <path d="M465.11,326.15c.59-.1,1.36-.18,2.34-.18,1.21,0,2.09,.28,2.65,.79,.52,.45,.83,1.13,.83,1.97s-.25,1.53-.73,2.02c-.64,.69-1.7,1.04-2.89,1.04-.36,0-.7-.01-.98-.08v3.78h-1.22v-9.33Zm1.22,4.55c.27,.07,.6,.1,1.01,.1,1.47,0,2.37-.71,2.37-2.02s-.88-1.85-2.23-1.85c-.53,0-.94,.04-1.15,.1v3.67Z" fill="#002346"></path>
    <path d="M472.45,325.53h1.23v4.23h.03c.2-.35,.5-.66,.88-.87,.36-.21,.8-.35,1.26-.35,.91,0,2.37,.56,2.37,2.9v4.03h-1.23v-3.89c0-1.09-.41-2.02-1.57-2.02-.8,0-1.43,.56-1.65,1.23-.07,.17-.08,.35-.08,.59v4.09h-1.23v-9.95Z" fill="#002346"></path>
    <path d="M486.36,332.03c0,2.51-1.74,3.6-3.38,3.6-1.84,0-3.25-1.34-3.25-3.49,0-2.27,1.48-3.6,3.36-3.6s3.26,1.41,3.26,3.49Zm-5.38,.07c0,1.48,.85,2.61,2.06,2.61s2.06-1.11,2.06-2.63c0-1.15-.57-2.61-2.03-2.61s-2.09,1.34-2.09,2.63Z" fill="#002346"></path>
    <path d="M487.91,330.53c0-.7-.01-1.27-.06-1.83h1.09l.07,1.12h.03c.34-.64,1.12-1.27,2.24-1.27,.94,0,2.4,.56,2.4,2.88v4.05h-1.23v-3.91c0-1.09-.41-2-1.57-2-.81,0-1.44,.57-1.65,1.26-.06,.15-.08,.36-.08,.57v4.08h-1.23v-4.95Z" fill="#002346"></path>
    <path d="M496.36,332.31c.03,1.67,1.09,2.35,2.33,2.35,.88,0,1.41-.15,1.88-.35l.21,.88c-.43,.2-1.18,.42-2.25,.42-2.09,0-3.33-1.37-3.33-3.42s1.21-3.66,3.18-3.66c2.21,0,2.8,1.95,2.8,3.19,0,.25-.03,.45-.04,.57h-4.76Zm3.61-.88c.01-.78-.32-2-1.71-2-1.25,0-1.79,1.15-1.89,2h3.6Z" fill="#002346"></path>
  </g>
  <g>
    <path d="M447.16,373.65c-.45,.22-1.34,.45-2.49,.45-2.66,0-4.67-1.68-4.67-4.78s2-4.96,4.93-4.96c1.18,0,1.92,.25,2.24,.42l-.29,1c-.46-.22-1.12-.39-1.91-.39-2.21,0-3.68,1.42-3.68,3.89,0,2.31,1.33,3.8,3.63,3.8,.74,0,1.5-.15,1.99-.39l.25,.97Z" fill="#002346"></path>
    <path d="M449.17,370.79c.03,1.67,1.09,2.35,2.33,2.35,.88,0,1.41-.15,1.88-.35l.21,.88c-.43,.2-1.18,.42-2.25,.42-2.09,0-3.33-1.37-3.33-3.42s1.21-3.66,3.18-3.66c2.21,0,2.8,1.95,2.8,3.19,0,.25-.03,.45-.04,.58h-4.76Zm3.61-.88c.01-.78-.32-2-1.71-2-1.25,0-1.79,1.15-1.89,2h3.6Z" fill="#002346"></path>
    <path d="M455.5,364.01h1.23v9.95h-1.23v-9.95Z" fill="#002346"></path>
    <path d="M458.8,364.01h1.23v9.95h-1.23v-9.95Z" fill="#002346"></path>
    <path d="M465.11,364.62c.59-.1,1.36-.18,2.34-.18,1.21,0,2.09,.28,2.65,.78,.52,.45,.83,1.13,.83,1.98s-.25,1.53-.73,2.02c-.64,.69-1.7,1.04-2.89,1.04-.36,0-.7-.01-.98-.08v3.78h-1.22v-9.33Zm1.22,4.55c.27,.07,.6,.1,1.01,.1,1.47,0,2.37-.71,2.37-2.02s-.88-1.85-2.23-1.85c-.53,0-.94,.04-1.15,.1v3.67Z" fill="#002346"></path>
    <path d="M472.45,364.01h1.23v4.23h.03c.2-.35,.5-.66,.88-.87,.36-.21,.8-.35,1.26-.35,.91,0,2.37,.56,2.37,2.9v4.03h-1.23v-3.89c0-1.09-.41-2.02-1.57-2.02-.8,0-1.43,.56-1.65,1.23-.07,.17-.08,.35-.08,.59v4.09h-1.23v-9.95Z" fill="#002346"></path>
    <path d="M486.36,370.51c0,2.51-1.74,3.6-3.38,3.6-1.84,0-3.25-1.34-3.25-3.49,0-2.27,1.48-3.6,3.36-3.6s3.26,1.42,3.26,3.49Zm-5.38,.07c0,1.49,.85,2.61,2.06,2.61s2.06-1.11,2.06-2.63c0-1.15-.57-2.61-2.03-2.61s-2.09,1.34-2.09,2.63Z" fill="#002346"></path>
    <path d="M487.91,369.01c0-.7-.01-1.27-.06-1.83h1.09l.07,1.12h.03c.34-.64,1.12-1.27,2.24-1.27,.94,0,2.4,.56,2.4,2.89v4.05h-1.23v-3.91c0-1.09-.41-2-1.57-2-.81,0-1.44,.57-1.65,1.26-.06,.15-.08,.36-.08,.57v4.08h-1.23v-4.94Z" fill="#002346"></path>
    <path d="M496.36,370.79c.03,1.67,1.09,2.35,2.33,2.35,.88,0,1.41-.15,1.88-.35l.21,.88c-.43,.2-1.18,.42-2.25,.42-2.09,0-3.33-1.37-3.33-3.42s1.21-3.66,3.18-3.66c2.21,0,2.8,1.95,2.8,3.19,0,.25-.03,.45-.04,.58h-4.76Zm3.61-.88c.01-.78-.32-2-1.71-2-1.25,0-1.79,1.15-1.89,2h3.6Z" fill="#002346"></path>
    <path d="M505.7,364.62c.59-.1,1.36-.18,2.34-.18,1.21,0,2.09,.28,2.65,.78,.52,.45,.83,1.13,.83,1.98s-.25,1.53-.73,2.02c-.64,.69-1.7,1.04-2.89,1.04-.36,0-.7-.01-.98-.08v3.78h-1.22v-9.33Zm1.22,4.55c.27,.07,.6,.1,1.01,.1,1.47,0,2.37-.71,2.37-2.02s-.88-1.85-2.23-1.85c-.53,0-.94,.04-1.15,.1v3.67Z" fill="#002346"></path>
    <path d="M513.04,364.01h1.23v9.95h-1.23v-9.95Z" fill="#002346"></path>
    <path d="M520.09,373.95l-.1-.85h-.04c-.38,.53-1.11,1.01-2.07,1.01-1.37,0-2.07-.97-2.07-1.95,0-1.64,1.46-2.54,4.08-2.52v-.14c0-.56-.15-1.57-1.54-1.57-.63,0-1.29,.2-1.76,.5l-.28-.81c.56-.36,1.37-.6,2.23-.6,2.07,0,2.58,1.42,2.58,2.77v2.54c0,.59,.03,1.16,.11,1.62h-1.12Zm-.18-3.46c-1.35-.03-2.87,.21-2.87,1.53,0,.8,.53,1.18,1.16,1.18,.88,0,1.44-.56,1.64-1.13,.04-.13,.07-.27,.07-.39v-1.18Z" fill="#002346"></path>
    <path d="M523.09,369.01c0-.7-.01-1.27-.06-1.83h1.09l.07,1.12h.03c.34-.64,1.12-1.27,2.24-1.27,.94,0,2.4,.56,2.4,2.89v4.05h-1.23v-3.91c0-1.09-.41-2-1.57-2-.81,0-1.44,.57-1.65,1.26-.06,.15-.08,.36-.08,.57v4.08h-1.23v-4.94Z" fill="#002346"></path>
    <path d="M530.69,372.69c.37,.24,1.01,.49,1.62,.49,.9,0,1.32-.45,1.32-1.01,0-.59-.35-.91-1.26-1.25-1.22-.43-1.79-1.11-1.79-1.92,0-1.09,.88-1.99,2.34-1.99,.69,0,1.29,.2,1.67,.42l-.31,.9c-.27-.17-.76-.39-1.39-.39-.73,0-1.13,.42-1.13,.92,0,.56,.41,.81,1.29,1.15,1.18,.45,1.78,1.04,1.78,2.04,0,1.19-.92,2.03-2.54,2.03-.74,0-1.43-.18-1.91-.46l.31-.94Z" fill="#002346"></path>
  </g>
  <g>
    <path d="M447.16,410.74c-.45,.22-1.34,.45-2.49,.45-2.66,0-4.67-1.68-4.67-4.78s2-4.96,4.93-4.96c1.18,0,1.92,.25,2.24,.42l-.29,.99c-.46-.22-1.12-.39-1.91-.39-2.21,0-3.68,1.42-3.68,3.89,0,2.31,1.33,3.8,3.63,3.8,.74,0,1.5-.15,1.99-.39l.25,.97Z" fill="#002346"></path>
    <path d="M449.17,407.88c.03,1.67,1.09,2.35,2.33,2.35,.88,0,1.41-.15,1.88-.35l.21,.88c-.43,.2-1.18,.42-2.25,.42-2.09,0-3.33-1.37-3.33-3.42s1.21-3.66,3.18-3.66c2.21,0,2.8,1.95,2.8,3.19,0,.25-.03,.45-.04,.57h-4.76Zm3.61-.88c.01-.78-.32-2-1.71-2-1.25,0-1.79,1.15-1.89,2h3.6Z" fill="#002346"></path>
    <path d="M455.5,401.1h1.23v9.95h-1.23v-9.95Z" fill="#002346"></path>
    <path d="M458.8,401.1h1.23v9.95h-1.23v-9.95Z" fill="#002346"></path>
    <path d="M465.11,401.72c.59-.1,1.36-.18,2.34-.18,1.21,0,2.09,.28,2.65,.78,.52,.45,.83,1.13,.83,1.98s-.25,1.53-.73,2.02c-.64,.69-1.7,1.04-2.89,1.04-.36,0-.7-.01-.98-.08v3.78h-1.22v-9.33Zm1.22,4.55c.27,.07,.6,.1,1.01,.1,1.47,0,2.37-.71,2.37-2.02s-.88-1.85-2.23-1.85c-.53,0-.94,.04-1.15,.1v3.67Z" fill="#002346"></path>
    <path d="M472.45,401.1h1.23v4.23h.03c.2-.35,.5-.66,.88-.87,.36-.21,.8-.35,1.26-.35,.91,0,2.37,.56,2.37,2.9v4.03h-1.23v-3.89c0-1.09-.41-2.02-1.57-2.02-.8,0-1.43,.56-1.65,1.23-.07,.17-.08,.35-.08,.59v4.09h-1.23v-9.95Z" fill="#002346"></path>
    <path d="M486.36,407.6c0,2.51-1.74,3.6-3.38,3.6-1.84,0-3.25-1.34-3.25-3.49,0-2.27,1.48-3.6,3.36-3.6s3.26,1.41,3.26,3.49Zm-5.38,.07c0,1.48,.85,2.61,2.06,2.61s2.06-1.11,2.06-2.63c0-1.15-.57-2.61-2.03-2.61s-2.09,1.34-2.09,2.63Z" fill="#002346"></path>
    <path d="M487.91,406.1c0-.7-.01-1.27-.06-1.83h1.09l.07,1.12h.03c.34-.64,1.12-1.27,2.24-1.27,.94,0,2.4,.56,2.4,2.89v4.05h-1.23v-3.91c0-1.09-.41-2-1.57-2-.81,0-1.44,.57-1.65,1.26-.06,.15-.08,.36-.08,.57v4.08h-1.23v-4.94Z" fill="#002346"></path>
    <path d="M496.36,407.88c.03,1.67,1.09,2.35,2.33,2.35,.88,0,1.41-.15,1.88-.35l.21,.88c-.43,.2-1.18,.42-2.25,.42-2.09,0-3.33-1.37-3.33-3.42s1.21-3.66,3.18-3.66c2.21,0,2.8,1.95,2.8,3.19,0,.25-.03,.45-.04,.57h-4.76Zm3.61-.88c.01-.78-.32-2-1.71-2-1.25,0-1.79,1.15-1.89,2h3.6Z" fill="#002346"></path>
    <path d="M505.53,409.56c.55,.34,1.35,.62,2.19,.62,1.25,0,1.97-.66,1.97-1.61,0-.88-.5-1.39-1.78-1.88-1.54-.55-2.49-1.34-2.49-2.68,0-1.47,1.22-2.56,3.05-2.56,.97,0,1.67,.22,2.09,.46l-.34,.99c-.31-.17-.94-.45-1.79-.45-1.29,0-1.78,.77-1.78,1.41,0,.88,.57,1.32,1.88,1.82,1.6,.62,2.41,1.39,2.41,2.77,0,1.46-1.08,2.72-3.31,2.72-.91,0-1.9-.27-2.41-.6l.31-1.02Z" fill="#002346"></path>
    <path d="M513.93,402.36c.01,.42-.29,.76-.79,.76-.43,0-.74-.34-.74-.76s.32-.77,.77-.77,.76,.34,.76,.77Zm-1.37,8.68v-6.78h1.23v6.78h-1.23Z" fill="#002346"></path>
    <path d="M521.68,404.27c-.03,.49-.05,1.04-.05,1.86v3.94c0,1.55-.31,2.51-.97,3.1-.66,.62-1.61,.81-2.46,.81s-1.71-.2-2.26-.56l.31-.94c.45,.28,1.15,.53,1.99,.53,1.26,0,2.19-.66,2.19-2.37v-.76h-.03c-.38,.63-1.11,1.13-2.16,1.13-1.68,0-2.88-1.43-2.88-3.31,0-2.3,1.5-3.6,3.05-3.6,1.18,0,1.82,.62,2.12,1.18h.03l.05-1.02h1.08Zm-1.27,2.68c0-.21-.01-.39-.07-.56-.22-.71-.83-1.3-1.72-1.3-1.18,0-2.02,.99-2.02,2.56,0,1.33,.67,2.44,2,2.44,.76,0,1.44-.48,1.71-1.26,.07-.21,.1-.45,.1-.66v-1.22Z" fill="#002346"></path>
    <path d="M523.58,406.1c0-.7-.01-1.27-.06-1.83h1.09l.07,1.12h.03c.34-.64,1.12-1.27,2.24-1.27,.94,0,2.4,.56,2.4,2.89v4.05h-1.23v-3.91c0-1.09-.41-2-1.57-2-.81,0-1.44,.57-1.65,1.26-.06,.15-.08,.36-.08,.57v4.08h-1.23v-4.94Z" fill="#002346"></path>
    <path d="M535.1,411.05l-.1-.85h-.04c-.38,.53-1.11,1.01-2.07,1.01-1.37,0-2.07-.97-2.07-1.95,0-1.64,1.46-2.54,4.08-2.52v-.14c0-.56-.15-1.57-1.54-1.57-.63,0-1.29,.2-1.76,.5l-.28-.81c.56-.36,1.37-.6,2.23-.6,2.07,0,2.58,1.41,2.58,2.77v2.54c0,.59,.03,1.16,.11,1.62h-1.12Zm-.18-3.46c-1.35-.03-2.87,.21-2.87,1.53,0,.8,.53,1.18,1.16,1.18,.88,0,1.44-.56,1.64-1.13,.04-.13,.07-.27,.07-.39v-1.18Z" fill="#002346"></path>
    <path d="M538.1,401.1h1.23v9.95h-1.23v-9.95Z" fill="#002346"></path>
    <path d="M544.41,401.73c.53-.11,1.37-.2,2.23-.2,1.22,0,2,.21,2.59,.69,.49,.36,.79,.92,.79,1.67,0,.91-.6,1.71-1.6,2.07v.03c.9,.22,1.95,.97,1.95,2.37,0,.81-.32,1.43-.8,1.89-.66,.6-1.72,.88-3.26,.88-.84,0-1.49-.06-1.89-.11v-9.29Zm1.22,3.87h1.11c1.29,0,2.04-.67,2.04-1.58,0-1.11-.84-1.54-2.07-1.54-.56,0-.88,.04-1.08,.08v3.04Zm0,4.52c.24,.04,.59,.06,1.02,.06,1.26,0,2.42-.46,2.42-1.83,0-1.29-1.11-1.82-2.44-1.82h-1.01v3.6Z" fill="#002346"></path>
    <path d="M558.15,407.6c0,2.51-1.74,3.6-3.38,3.6-1.84,0-3.25-1.34-3.25-3.49,0-2.27,1.48-3.6,3.36-3.6s3.26,1.41,3.26,3.49Zm-5.38,.07c0,1.48,.86,2.61,2.06,2.61s2.06-1.11,2.06-2.63c0-1.15-.57-2.61-2.03-2.61s-2.09,1.34-2.09,2.63Z" fill="#002346"></path>
    <path d="M565.83,407.6c0,2.51-1.74,3.6-3.38,3.6-1.84,0-3.25-1.34-3.25-3.49,0-2.27,1.48-3.6,3.36-3.6s3.26,1.41,3.26,3.49Zm-5.38,.07c0,1.48,.86,2.61,2.06,2.61s2.06-1.11,2.06-2.63c0-1.15-.57-2.61-2.03-2.61s-2.09,1.34-2.09,2.63Z" fill="#002346"></path>
    <path d="M567.22,409.78c.37,.24,1.01,.49,1.62,.49,.9,0,1.32-.45,1.32-1.01,0-.59-.35-.91-1.26-1.25-1.22-.43-1.79-1.11-1.79-1.92,0-1.09,.88-1.99,2.34-1.99,.69,0,1.29,.2,1.67,.42l-.31,.9c-.27-.17-.76-.39-1.39-.39-.73,0-1.13,.42-1.13,.92,0,.56,.41,.81,1.29,1.15,1.18,.45,1.78,1.04,1.78,2.04,0,1.19-.92,2.03-2.54,2.03-.74,0-1.43-.18-1.91-.46l.31-.94Z" fill="#002346"></path>
    <path d="M574.41,402.32v1.95h1.77v.94h-1.77v3.66c0,.84,.24,1.32,.92,1.32,.32,0,.56-.04,.71-.08l.06,.92c-.24,.1-.62,.17-1.09,.17-.57,0-1.04-.18-1.33-.52-.35-.36-.48-.97-.48-1.76v-3.7h-1.05v-.94h1.05v-1.62l1.21-.32Z" fill="#002346"></path>
    <path d="M578.16,407.88c.03,1.67,1.09,2.35,2.32,2.35,.88,0,1.42-.15,1.88-.35l.21,.88c-.43,.2-1.18,.42-2.26,.42-2.09,0-3.33-1.37-3.33-3.42s1.21-3.66,3.18-3.66c2.21,0,2.8,1.95,2.8,3.19,0,.25-.03,.45-.04,.57h-4.76Zm3.61-.88c.01-.78-.32-2-1.71-2-1.25,0-1.79,1.15-1.89,2h3.6Z" fill="#002346"></path>
    <path d="M584.49,406.38c0-.8-.01-1.48-.05-2.12h1.08l.04,1.33h.06c.31-.91,1.05-1.48,1.88-1.48,.14,0,.24,.01,.35,.04v1.16c-.12-.03-.25-.04-.42-.04-.87,0-1.48,.66-1.65,1.58-.03,.17-.06,.36-.06,.57v3.61h-1.22v-4.66Z" fill="#002346"></path>
  </g>
  <g>
    <path d="M662.06,257.92c-.28,0-.5-.22-.5-.5v-10.12c0-.28,.22-.5,.5-.5h10.12c.28,0,.5,.22,.5,.5s-.22,.5-.5,.5h-9.62v9.62c0,.28-.22,.5-.5,.5Z" fill="#002346"></path>
    <path d="M674.71,260.45c-.13,0-.26-.05-.35-.15l-12.65-12.65c-.2-.2-.2-.51,0-.71s.51-.2,.71,0l12.65,12.65c.2,.2,.2,.51,0,.71-.1,.1-.23,.15-.35,.15Z" fill="#002346"></path>
  </g>
  <g>
    <path d="M662.06,296.4c-.28,0-.5-.22-.5-.5v-10.12c0-.28,.22-.5,.5-.5h10.12c.28,0,.5,.22,.5,.5s-.22,.5-.5,.5h-9.62v9.62c0,.28-.22,.5-.5,.5Z" fill="#002346"></path>
    <path d="M674.71,298.93c-.13,0-.26-.05-.35-.15l-12.65-12.65c-.2-.2-.2-.51,0-.71s.51-.2,.71,0l12.65,12.65c.2,.2,.2,.51,0,.71-.1,.1-.23,.15-.35,.15Z" fill="#002346"></path>
  </g>
  <g>
    <path d="M662.06,336.4c-.28,0-.5-.22-.5-.5v-10.12c0-.28,.22-.5,.5-.5h10.12c.28,0,.5,.22,.5,.5s-.22,.5-.5,.5h-9.62v9.62c0,.28-.22,.5-.5,.5Z" fill="#002346"></path>
    <path d="M674.71,338.93c-.13,0-.26-.05-.35-.15l-12.65-12.65c-.2-.2-.2-.51,0-.71s.51-.2,.71,0l12.65,12.65c.2,.2,.2,.51,0,.71-.1,.1-.23,.15-.35,.15Z" fill="#002346"></path>
  </g>
  <g>
    <path d="M662.06,371.4c-.28,0-.5-.22-.5-.5v-10.12c0-.28,.22-.5,.5-.5h10.12c.28,0,.5,.22,.5,.5s-.22,.5-.5,.5h-9.62v9.62c0,.28-.22,.5-.5,.5Z" fill="#002346"></path>
    <path d="M674.71,373.93c-.13,0-.26-.05-.35-.15l-12.65-12.65c-.2-.2-.2-.51,0-.71s.51-.2,.71,0l12.65,12.65c.2,.2,.2,.51,0,.71-.1,.1-.23,.15-.35,.15Z" fill="#002346"></path>
  </g>
  <g>
    <path d="M662.06,411.83c-.28,0-.5-.22-.5-.5v-10.12c0-.28,.22-.5,.5-.5h10.12c.28,0,.5,.22,.5,.5s-.22,.5-.5,.5h-9.62v9.62c0,.28-.22,.5-.5,.5Z" fill="#002346"></path>
    <path d="M674.71,414.36c-.13,0-.26-.05-.35-.15l-12.65-12.65c-.2-.2-.2-.51,0-.71s.51-.2,.71,0l12.65,12.65c.2,.2,.2,.51,0,.71-.1,.1-.23,.15-.35,.15Z" fill="#002346"></path>
  </g>
  <g>
    <path d="M616.64,176.79c-.12,0-.23-.04-.33-.12-.21-.18-.23-.5-.05-.7l11.7-13.65c.18-.21,.5-.23,.71-.05,.21,.18,.23,.5,.05,.7l-11.7,13.65c-.1,.12-.24,.17-.38,.17Z" fill="#002346"></path>
    <path d="M628.35,176.79c-.14,0-.28-.06-.38-.17l-11.7-13.65c-.18-.21-.16-.52,.05-.7,.21-.18,.53-.16,.71,.05l11.7,13.65c.18,.21,.16,.52-.05,.7-.09,.08-.21,.12-.33,.12Z" fill="#002346"></path>
  </g>
  <g>
    <path d="M662.06,222.48c-.12,0-.23-.04-.33-.12-.21-.18-.23-.5-.05-.7l11.7-13.65c.18-.21,.5-.23,.71-.05,.21,.18,.23,.5,.05,.7l-11.7,13.65c-.1,.12-.24,.17-.38,.17Z" fill="#002346"></path>
    <path d="M673.76,222.48c-.14,0-.28-.06-.38-.17l-11.7-13.65c-.18-.21-.16-.52,.05-.7s.52-.16,.71,.05l11.7,13.65c.18,.21,.16,.52-.05,.7-.09,.08-.21,.12-.33,.12Z" fill="#002346"></path>
  </g>
  <rect x="423.2" y="233.89" width="261" height="1" fill="#002346"></rect>
  <rect x="423.2" y="272.37" width="261" height="1" fill="#002346"></rect>
  <rect x="423.2" y="349.32" width="261" height="1" fill="#002346"></rect>
  <rect x="423.2" y="310.85" width="261" height="1" fill="#002346"></rect>
  <rect x="423.2" y="387.8" width="261" height="1" fill="#002346"></rect>
  <g>
    <g>
      <g>
        <rect x="250.58" y="474.02" width="8.44" height="166" fill="#fff"></rect>
        <path d="M259.51,640.52h-9.44v-167h9.44v167Zm-8.44-1h7.44v-165h-7.44v165Z" fill="#002346"></path>
      </g>
      <g>
        <rect x="185.21" y="469.45" width="139.16" height="25.89" rx="12.95" ry="12.95" fill="#fff"></rect>
        <path d="M311.43,495.84h-113.27c-7.41,0-13.45-6.03-13.45-13.45s6.03-13.45,13.45-13.45h113.27c7.41,0,13.45,6.03,13.45,13.45s-6.03,13.45-13.45,13.45Zm-113.27-25.89c-6.86,0-12.45,5.58-12.45,12.45s5.58,12.45,12.45,12.45h113.27c6.86,0,12.45-5.58,12.45-12.45s-5.58-12.45-12.45-12.45h-113.27Z" fill="#002346"></path>
      </g>
      <g>
        <path d="M229.71,635.32h50.16c11.61,0,21.04,9.43,21.04,21.04h-92.24c0-11.61,9.43-21.04,21.04-21.04Z" fill="#fff"></path>
        <path d="M301.41,656.85h-93.24v-.5c0-11.88,9.66-21.54,21.54-21.54h50.16c11.88,0,21.54,9.66,21.54,21.54v.5Zm-92.23-1h91.22c-.27-11.09-9.37-20.04-20.53-20.04h-50.16c-11.16,0-20.26,8.94-20.53,20.04Z" fill="#002346"></path>
      </g>
    </g>
    <g>
      <g>
        <path d="M225.34,578.32s17.41-14.65,37.18-.39c0,0,12.41,9.65,4.14,17.93,0,0-8.74,5.98-21.61-4.14,0,0-13.68-11.17-19.71-13.4Z" fill="#7cd295"></path>
        <path d="M259.68,598.03c-3.83,0-8.96-1.28-14.91-5.95-.14-.12-13.7-11.15-19.59-13.33l-.75-.28,.61-.51c.18-.15,17.92-14.71,37.75-.41,.29,.22,6.78,5.34,7.16,11.46,.16,2.63-.83,5.04-2.96,7.17-.08,.06-2.79,1.85-7.32,1.85Zm-33.41-19.84c6.32,2.78,18.54,12.72,19.08,13.16,12.45,9.79,20.97,4.17,21.05,4.11,1.87-1.88,2.77-4.05,2.63-6.4-.35-5.7-6.72-10.73-6.79-10.78-17.16-12.37-32.7-2.47-35.97-.1Z" fill="#002346"></path>
      </g>
      <g>
        <path d="M206.09,571.16s19.2-26.8,7.7-53c0,0-12.87-25.75,2.3-33.56,0,0,18.85-7.82,28.96,19.77,0,0,13.56,40.26-38.97,66.8Z" fill="#7cd295"></path>
        <path d="M204.62,572.43l1.1-1.54c.19-.27,18.91-26.89,7.65-52.55-.12-.24-12.89-26.23,2.51-34.16,.3-.13,6.67-2.7,14.09,.56,6.63,2.9,11.85,9.45,15.52,19.47,.04,.11,3.4,10.36,.23,23.71-2.92,12.31-12.13,29.87-39.42,43.65l-1.69,.85Zm17.58-88.38c-3.49,0-5.89,.97-5.92,.98-14.55,7.5-2.19,32.67-2.06,32.93,9.94,22.66-2.99,45.97-6.77,51.99,25.74-13.48,34.54-30.33,37.36-42.19,3.12-13.11-.16-23.14-.19-23.24-3.58-9.75-8.63-16.12-15.02-18.92-2.69-1.18-5.26-1.55-7.41-1.55Z" fill="#002346"></path>
      </g>
      <g>
        <path d="M157.29,493.93c-4.77,2.35-7.9,7.18-7.82,12.5,.1,6.64,4.17,15.78,23.4,20.92,0,0,22.56,5.59,25.07,22.33,0,0,6.22-20.75-4.39-40.57-4.07-7.59-10.83-13.46-19.07-15.96-5.18-1.57-11.35-2.11-17.19,.77Z" fill="#7cd295"></path>
        <path d="M197.8,551.8l-.31-2.05c-2.44-16.24-24.5-21.9-24.72-21.95-19.45-5.21-23.65-14.49-23.75-21.37-.08-5.39,3.09-10.46,8.08-12.92h0c5.1-2.51,11-2.78,17.53-.8,8.22,2.49,15.09,8.24,19.35,16.19,10.58,19.76,4.49,40.71,4.42,40.92l-.6,1.98Zm-31.42-59.47c-3.19,0-6.15,.67-8.87,2.01h0c-4.67,2.3-7.63,7.04-7.56,12.07,.1,6.56,4.17,15.43,23.06,20.48,.21,.05,21.02,5.38,24.99,20.66,1.21-5.64,3.67-22.33-4.84-38.22-4.14-7.73-10.81-13.32-18.8-15.74-2.79-.85-5.45-1.27-7.98-1.27Z" fill="#002346"></path>
      </g>
      <g>
        <path d="M156.22,562.86c1.16,2.21,3.3,4.66,7,7.25,0,0,14.52,8.42,18.29,20.3,0,0-.36-19.38-11.4-34.09,0,0-.96-1.81-2.93-3.23-6.5-4.68-14.69,2.68-10.97,9.77Z" fill="#7cd295"></path>
        <path d="M182.04,593.59l-.97-3.04c-3.68-11.57-17.94-19.96-18.08-20.04-3.44-2.41-5.85-4.9-7.18-7.43h0c-2.08-3.96-.57-7.85,1.84-9.94,2.86-2.49,6.71-2.65,9.81-.42,2.03,1.46,3.02,3.31,3.06,3.39,10.96,14.6,11.45,34.1,11.45,34.3l.06,3.19Zm-19.19-41.51c-1.83,0-3.46,.78-4.59,1.75-1.98,1.72-3.6,5.06-1.63,8.81h0c1.26,2.4,3.56,4.78,6.85,7.08,.52,.3,12.48,7.33,17.35,17.7-.59-5.98-2.83-19.81-11.09-30.84-.05-.08-.98-1.8-2.83-3.13-1.38-.99-2.77-1.38-4.07-1.38Z" fill="#002346"></path>
      </g>
      <g>
        <polygon points="173.8 608.74 176.24 656.78 217.01 656.78 219.77 609.19 173.8 608.74" fill="#fff"></polygon>
        <path d="M217.01,657.24h-40.77c-.25,0-.45-.19-.46-.44l-2.44-48.04c0-.13,.04-.25,.13-.34,.09-.09,.2-.15,.34-.14l45.98,.46c.13,0,.25,.05,.33,.15,.09,.09,.13,.22,.12,.34l-2.76,47.59c-.01,.25-.22,.44-.46,.44Zm-40.33-.93h39.89l2.71-46.66-45-.45,2.4,47.11Z" fill="#002346"></path>
      </g>
      <path d="M205.52,608.97s-.02,0-.04,0c-.26-.02-.45-.24-.43-.5,.01-.19,1.59-19.16,14.63-27.99,7.73-5.23,17.85-5.93,30.1-2.08,.24,.08,.38,.34,.3,.58s-.33,.38-.58,.3c-11.96-3.76-21.82-3.1-29.3,1.96-12.67,8.58-14.22,27.11-14.23,27.29-.02,.24-.22,.43-.46,.43Z" fill="#002346"></path>
      <path d="M198.44,608.65c-.2,0-.39-.13-.45-.34-7.23-25.83,10.27-40.8,13.85-43.54,1.07-.82,2.32-1.79,3.53-2.83,31.77-27.34,13.39-57.95,13.2-58.25-.13-.22-.07-.5,.15-.64,.22-.14,.5-.07,.64,.15,.19,.31,18.99,31.58-13.38,59.44-1.22,1.05-2.49,2.04-3.57,2.86-3.5,2.67-20.58,17.3-13.52,42.55,.07,.25-.08,.5-.32,.57-.04,.01-.08,.02-.13,.02Z" fill="#002346"></path>
      <path d="M195.13,608.99c-.16,0-.31-.08-.39-.22-11.24-18.11-2.86-41.17-.02-47.81,.71-1.67,1.22-3.07,1.59-4.39,7.89-28.42-16.09-45.67-16.34-45.84-.21-.15-.26-.44-.11-.65,.15-.21,.44-.26,.65-.11,.25,.17,24.77,17.78,16.7,46.85-.38,1.37-.9,2.8-1.63,4.51-2.79,6.53-11.04,29.23-.04,46.96,.14,.22,.07,.5-.15,.64-.08,.05-.16,.07-.24,.07Z" fill="#002346"></path>
      <path d="M183.32,608.7s-.01,0-.02,0c-.26-.01-.46-.23-.44-.48,1.22-30.19-16.49-42.2-16.67-42.32-.21-.14-.27-.43-.13-.64,.14-.21,.43-.27,.64-.13,.18,.12,18.33,12.39,17.08,43.13-.01,.25-.22,.45-.46,.45Z" fill="#002346"></path>
    </g>
    <path d="M513.63,662.8s-18.79,1.04-31.32-3.76l-74.34-26.94s5.64-17.12,13.99-23.39l35.5,8.56,5.08-1.35c.7-.19,1.45,.11,1.83,.73l2.28,3.75s3.13,.63,8.35,8.77c0,0,11.9,18.59,25.48,22.97,0,0,12.74,5.01,13.16,10.65Z" fill="#1e3163"></path>
    <g>
      <path d="M513.73,662.59s-18.79,1.12-31.34-3.64l-74.44-26.65s5.57-17.15,13.9-23.44l35.53,8.43,5.07-1.37c.7-.19,1.45,.11,1.83,.73l2.3,3.74s3.13,.61,8.38,8.74c0,0,11.97,18.54,25.56,22.88,0,0,12.76,4.96,13.2,10.6Z" fill="#314f3e"></path>
      <path d="M508.93,663.2c-6.46,0-18.1-.51-26.72-3.78l-74.89-26.82,.15-.46c.23-.71,5.72-17.37,14.08-23.69l.19-.14,.23,.05,35.41,8.4,4.95-1.34c.92-.25,1.89,.14,2.39,.95l2.2,3.58c.84,.3,3.9,1.81,8.48,8.89,.12,.18,12.03,18.44,25.3,22.67,.56,.22,13.08,5.15,13.54,11.04l.04,.51-.51,.03c-.06,0-1.92,.11-4.83,.11Zm-100.35-31.21l73.98,26.49c11.13,4.22,27.42,3.77,30.59,3.64-1.12-5.06-12.68-9.61-12.8-9.66-13.58-4.33-25.31-22.31-25.8-23.07-5.01-7.75-8.04-8.51-8.07-8.52l-.21-.05-.12-.18-2.3-3.74c-.26-.43-.79-.64-1.27-.51l-5.19,1.41-35.42-8.4c-7.26,5.66-12.44,19.86-13.39,22.59Z" fill="#002346"></path>
    </g>
    <g>
      <path d="M298.55,265.53l-1.53,2.29c-.29,.43-.31,.99-.06,1.44l25.33,45.44c.33,.58,1.16,.59,1.49,0l3.85-6.78c.39-.69,.61-1.46,.65-2.25l.12-2.44c.05-1.02,.33-2.01,.82-2.91l6.64-12.16s-2.96,23.95,10.85,33.25c.6,.4,1.4,.33,2.09,.13,1.43-.42,3.7-1.76,4.67-6,0,0,.25,19.8-5.69,21.53,0,0-10.15,54.94-35.88,32.91l3.71,32.42-7.92,.49-.49-7.99v-12.59s3.01-7.39,.41-30.24l-2.05-19.02-11.77-65.95s1.98-5.28-5.03-12.01l9.42,7.84c.77,.64,.93,1.75,.37,2.58Z" fill="#314f3e"></path>
      <path d="M307.22,403.44l-.53-8.49v-12.71s.04-.09,.04-.09c.03-.07,2.92-7.61,.38-29.99l-2.05-19.02-11.79-66.05,.05-.13s1.74-5.08-4.91-11.48l.67-.74,9.42,7.84c.96,.8,1.17,2.19,.47,3.24l-1.53,2.29c-.18,.28-.2,.63-.04,.92l25.33,45.45c.09,.16,.25,.18,.31,.18h0c.06,0,.22-.02,.31-.18l3.85-6.78c.35-.62,.55-1.32,.59-2.03l.12-2.44c.05-1.09,.35-2.17,.88-3.12l7.89-14.46-.32,2.6c-.03,.24-2.75,23.76,10.63,32.77,.5,.34,1.26,.19,1.67,.06,1.48-.44,3.44-1.77,4.33-5.63l.94-4.05,.05,4.16c0,.81,.17,19.58-5.75,21.91-.67,3.44-6.7,32.6-20.65,37.54-4.69,1.66-9.74,.37-15.03-3.83l3.63,31.71-8.94,.56Zm.47-21.01v12.5l.46,7.46,6.89-.43-3.8-33.16,.97,.83c5.35,4.58,10.4,6.08,15.01,4.44,13.97-4.94,20-36.75,20.06-37.07l.06-.3,.3-.09c3.88-1.13,5.06-11.63,5.29-18.08-1.23,2.33-2.92,3.19-3.99,3.5-1.01,.3-1.88,.23-2.51-.19-11.33-7.63-11.56-25.06-11.24-31.38l-5.53,10.12c-.45,.82-.71,1.76-.76,2.69l-.12,2.44c-.04,.87-.29,1.72-.72,2.48l-3.85,6.78c-.24,.43-.68,.69-1.18,.69h0c-.5,0-.94-.26-1.18-.7l-25.33-45.45c-.35-.62-.32-1.37,.08-1.96l1.53-2.29c.41-.62,.29-1.44-.28-1.91l-5.31-4.42c2.69,4.34,1.97,7.54,1.75,8.24l11.74,65.82,2.06,19.05c2.46,21.61-.05,29.41-.41,30.38Z" fill="#002346"></path>
    </g>
    <g>
      <path d="M257.84,212.61c.64,.21,6.87,7.51,4.29,16.75,0,0,15.24,12.24,26.62,25.76,0,0-2.02-16.87,10.37-21.96l-27.54-31.93-13.74,11.38Z" fill="#f2b3c1"></path>
      <path d="M289.45,256.72l-1.08-1.28c-11.22-13.33-26.4-25.57-26.55-25.69l-.26-.21,.09-.32c2.5-8.94-3.4-15.79-4.02-16.16l-.85-.29,.74-.55,14.12-11.69,28.32,32.82-.64,.26c-11.89,4.88-10.08,21.28-10.06,21.44l.2,1.66Zm-26.75-27.55c1.98,1.62,15.11,12.47,25.46,24.48-.14-4.25,.38-16.19,10.14-20.68l-26.78-31.04-12.91,10.69c1.8,1.83,6.18,8.49,4.09,16.55Z" fill="#002346"></path>
    </g>
    <path d="M299.12,233.16s-9.72,2.64-10.15,16.6c0,0-17.51-12.23-17.88-28.76l28.03,12.17Z" fill="#002346"></path>
    <g>
      <path d="M258.05,234.08s2.62-4.44,5.5-3.48c0,0,16.48,13.74,25.21,24.52,0,0,6.67,5.85,5.03,12.01l11.77,65.95,2.74,26.27s1.37,14.78-1.09,22.99v12.59h-8.21s2.53-27.06,.72-62.51l-15.67-65.05-25.98-33.28Z" fill="#f1f2f2"></path>
      <path d="M307.69,395.42h-9.26l.05-.55c.03-.27,2.51-27.43,.72-62.44l-15.63-64.86-26.12-33.46,.17-.29c.12-.2,2.87-4.78,6.08-3.7l.16,.09c.17,.14,16.62,13.89,25.27,24.59,.22,.19,6.75,6,5.15,12.35l11.75,65.84,2.74,26.31c.06,.61,1.34,14.89-1.09,23.11v13.01Zm-8.16-1h7.16l.02-12.23c2.41-8.02,1.09-22.65,1.07-22.8l-2.74-26.26-11.78-66.02,.03-.11c1.54-5.78-4.81-11.45-4.88-11.51-8.35-10.31-23.89-23.42-25.12-24.45-2.05-.59-4.04,2.1-4.64,3l25.83,33.08,.03,.1,15.67,65.05c1.67,32.43-.32,58.11-.66,62.13Z" fill="#002346"></path>
    </g>
    <g>
      <path d="M338.65,281.6l4.52-9.8c.27-.58,.45-1.2,.54-1.83l1.59-11.53c.29-2.09,1.03-4.09,2.19-5.84,2.35-3.55,6.32-10.39,6.97-16.75,.04-.39,.48-.6,.81-.39,1.04,.66,2.81,2.34,2.81,6.19l-.25,7.6c0,.27,.33,.38,.49,.17l7.15-9.95s-.27-.91,1.37-2.46l2.1-1.92s1.73-2.01,5.02-.09c0,0,2.83,1.55,1,4.29l-3.19,4.29s5.75,1.46,1.55,6.75c0,0,6.2-.18,3.28,5.47,0,0,5.2-.46,2.37,5.02,0,0-4.01,5.56-6.75,6.38,0,0-6.4,9.45-10.56,12.84-.92,.75-1.6,1.77-1.89,2.93l-3.6,14.24s-5.2,8.57-11.04,.09c0,0-3.47-4.47-6.48-15.69Z" fill="#f2b3c1"></path>
      <path d="M350.54,301.53c-2.06,0-4.02-1.33-5.83-3.96-.13-.16-3.54-4.65-6.55-15.84l-.05-.17,4.6-9.96c.25-.54,.42-1.11,.5-1.69l1.59-11.53c.3-2.16,1.08-4.25,2.27-6.05,2.3-3.48,6.25-10.26,6.89-16.52,.04-.36,.25-.66,.57-.82,.32-.16,.7-.14,1,.06,1.13,.72,3.04,2.53,3.04,6.62l-.22,6.85,6.59-9.18c-.01-.46,.18-1.4,1.54-2.69l2.1-1.92h0s2.02-2.24,5.61-.15c.05,.03,1.42,.8,1.78,2.25,.22,.89,.01,1.81-.61,2.75l-2.8,3.76c.82,.34,2.14,1.09,2.61,2.48,.4,1.19,.09,2.56-.92,4.08,.98,.12,2.45,.51,3.18,1.68,.6,.96,.58,2.22-.06,3.75,.77,.07,1.9,.34,2.51,1.25,.69,1.03,.53,2.53-.48,4.48-.2,.29-4.03,5.56-6.88,6.58-.85,1.24-6.62,9.6-10.56,12.81-.87,.7-1.46,1.62-1.72,2.66l-3.66,14.38c-.1,.16-2.45,3.98-5.91,4.08-.05,0-.09,0-.14,0Zm-11.37-19.89c2.93,10.84,6.31,15.29,6.34,15.34,1.66,2.41,3.37,3.6,5.13,3.55,2.7-.08,4.75-3.07,5.05-3.54l3.58-14.16c.31-1.25,1.03-2.35,2.06-3.19,4.06-3.3,10.4-12.64,10.46-12.73l.1-.15,.17-.05c2.11-.63,5.4-4.69,6.49-6.2,.77-1.51,.96-2.71,.5-3.4-.64-.96-2.41-.83-2.42-.83l-.9,.08,.41-.8c.79-1.52,.94-2.69,.44-3.48-.83-1.32-3.24-1.27-3.27-1.27l-1.07,.03,.67-.84c1.22-1.54,1.66-2.85,1.31-3.89-.51-1.52-2.57-2.06-2.59-2.07l-.72-.18,3.64-4.89c.45-.67,.61-1.33,.46-1.94-.25-1.01-1.29-1.61-1.3-1.61-2.87-1.67-4.34-.09-4.4-.02l-2.14,1.95c-1.33,1.25-1.22,1.97-1.22,1.98l.07,.24-.15,.17-7.15,9.95c-.2,.28-.55,.39-.87,.28-.32-.11-.53-.41-.52-.75l.24-7.6c0-3.59-1.61-5.15-2.57-5.75-.71,6.49-4.75,13.43-7.1,16.99-1.11,1.67-1.84,3.62-2.11,5.64l-1.59,11.53c-.09,.68-.29,1.35-.58,1.97l-4.44,9.63Z" fill="#002346"></path>
    </g>
    <path d="M365.48,239.22s.06,2.48,2.8,2.79c1.08,.12,2.17-.17,3.09-.74l3.43-1.8-3.04,4.09s-3.27-.51-5.18,3.23l-3.18,5.86c-.54,.99-.27,2.22,.62,2.9h0c.89,.68,2.15,.61,2.96-.16l4.46-4.27c.33-.32,.86-.29,1.16,.06h0c.26,.31,.25,.76-.03,1.06l-5.36,5.7c-.78,.83-.68,2.14,.22,2.84h0c.73,.57,1.76,.54,2.45-.07l4.57-3.98c.36-.31,.88-.32,1.25-.02h0c.47,.38,.47,1.1,0,1.49-2.14,1.79-7.04,6.67-3.48,8.99l-.93,1.3s-3.71-2.09-1.33-6.1c0,0-3.47,1.46-4.56-1.37,0,0-.73-1.09-.09-3.28,0,0-3.19,1.19-4.01-2.28,0,0-.55-1.37,1.19-4.38l2.65-4.47s-2.58-.37-2.76-2.83l3.13-4.56Z" fill="#002346"></path>
    <path d="M356.91,262.98c-.15,0-.29-.06-.39-.19-.17-.21-.14-.53,.08-.7,3.01-2.42,1.84-8.76,1.83-8.82-.05-.27,.13-.53,.4-.58,.27-.05,.53,.13,.58,.4,.05,.28,1.29,6.99-2.18,9.79-.09,.07-.2,.11-.31,.11Z" fill="#002346"></path>
    <g>
      <path d="M227.4,465.94s1.55,10.06,64.63,7.74h74.69l15.87,36.76-2.32,35.22,18.58,1.93,15.09,31.73,46.44-6.97-26.7-80.11s4.41-56.75-8.63-79.37c-3.03-5.25-8.65-8.47-14.72-8.59l-94.71-1.89-8.41-7.49-8.51-.09c-.12,1.06-.26,2.14-.42,3.24-.28,1.94-.59,3.81-.92,5.61-6.29-1.95-12.58-3.9-18.86-5.85l-51.08,68.11Z" fill="#bbbbc1"></path>
      <path d="M413.63,579.88l-15.13-31.81-18.77-1.96,2.34-35.58-15.69-36.35h-74.36c-62.8,2.31-65.05-7.73-65.12-8.16l-.03-.21,51.42-68.56,18.66,5.79c.3-1.66,.58-3.35,.82-5.04,.15-1.09,.29-2.17,.42-3.23l.05-.45,9.15,.1,8.42,7.49,94.53,1.88c6.27,.13,12.07,3.51,15.14,8.84,12.7,22.04,8.9,76.82,8.7,79.56l26.86,80.58-47.39,7.11Zm-32.85-34.66l18.38,1.91,15.05,31.65,45.48-6.82-26.55-79.64v-.1c.05-.57,4.25-56.86-8.55-79.08-2.9-5.02-8.37-8.22-14.29-8.34l-94.9-1.89-8.41-7.49-7.87-.09c-.11,.92-.23,1.86-.37,2.8-.27,1.88-.58,3.78-.93,5.63l-.1,.55-19.06-5.91-50.7,67.6c.72,1.28,7.5,9.25,64.04,7.17h75.04s16.04,37.18,16.04,37.18l-2.3,34.86Z" fill="#002346"></path>
    </g>
    <g>
      <path d="M304.32,394.92l.41,9.71s-5.47-.82-7.39-.96c0,0,.93-6.25,1.34-8.85l5.64,.09Z" fill="#bbbbc1"></path>
      <path d="M305.26,405.22l-.6-.09c-.05,0-5.48-.82-7.35-.95l-.54-.04,.08-.53s.93-6.25,1.34-8.85l.07-.43,6.54,.11,.46,10.79Zm-7.34-1.99c1.76,.17,4.96,.63,6.29,.83l-.37-8.64-4.73-.08c-.36,2.28-.98,6.43-1.2,7.89Z" fill="#002346"></path>
    </g>
    <g>
      <polygon points="413.92 579.33 420.7 600.77 452.44 600.56 444.51 574.88 413.92 579.33" fill="#f2b3c1"></polygon>
      <path d="M420.34,601.27l-7.07-22.36,31.59-4.59,8.26,26.74-32.78,.22Zm-5.76-21.54l6.49,20.53,30.7-.2-7.61-24.63-29.58,4.3Z" fill="#002346"></path>
    </g>
    <g>
      <path d="M457.46,617.27l-5.01-16.71-31.74,.21,1.25,7.94s3.97,16.91,30.28,15.24c0,0-1.04-3.55,5.22-6.68Z" fill="#fff"></path>
      <path d="M448.71,624.57c-23.27,0-27.2-15.58-27.24-15.74l-1.35-8.55,32.7-.21,5.24,17.47-.38,.19c-5.76,2.88-5,5.97-4.96,6.1l.16,.59-.61,.04c-1.23,.08-2.42,.12-3.56,.12Zm-27.42-23.3l1.16,7.36c.03,.13,4.15,16.23,29.22,14.85-.05-1.2,.44-3.97,5.19-6.47l-4.78-15.95-30.79,.2Z" fill="#002346"></path>
    </g>
    <path d="M513.76,670.54c.04,2.51-2.03,4.54-4.53,4.46-19.92-.66-27.34-3.01-27.34-3.01l-73.91-26.51c-1.68-.6-2.63-2.37-2.22-4.1l2.2-9.28,74.34,26.94c12.53,4.8,31.32,3.76,31.32,3.76l.13,7.75Z" fill="#002346"></path>
    <g>
      <path d="M389.27,546.49l-4.28,16s-4.96,19.38,15.78,29.3c0,0,2.93-4.28,8.34-2.25l2.41-15.51-12.68-26.42-9.57-1.11Z" fill="#f2b3c1"></path>
      <path d="M400.93,592.42l-.39-.18c-20.86-9.98-16.1-29.68-16.04-29.87l4.4-16.42,10.27,1.19,.12,.25,12.74,26.56-2.53,16.28-.58-.22c-4.98-1.87-7.72,2.03-7.75,2.07l-.24,.35Zm-11.29-45.39l-4.17,15.58c-.2,.77-4.55,18.88,15.15,28.54,.85-.98,3.65-3.65,8.08-2.29l2.29-14.77-12.49-26.04-8.86-1.03Z" fill="#002346"></path>
    </g>
    <g>
      <path d="M387.42,553.95l23.67,23.12-1.99,12.46s-4.71-2.37-8.34,2.25c0,0-15.17-5.32-16.4-23.38,0,0,.15-3.54,.62-5.92l2.43-8.54Z" fill="#fff"></path>
      <path d="M400.93,592.38l-.34-.12c-.16-.05-15.49-5.64-16.73-23.81,0-.2,.16-3.66,.63-6.05l2.67-9.38,24.46,23.89-2.13,13.39-.61-.3c-.18-.09-4.4-2.12-7.72,2.11l-.22,.28Zm-13.27-37.48l-2.2,7.73c-.45,2.27-.6,5.77-.6,5.81,1.09,16,13.56,21.85,15.74,22.76,3-3.55,6.66-2.82,8.1-2.34l1.85-11.59-22.88-22.36Z" fill="#002346"></path>
    </g>
    <g>
      <path d="M432.02,657.26c-19.28-10.89-27.66-31.34-27.66-31.34l-11.33-21.93c-14.13-24.87-30.9-33.26-30.9-33.26,14.72-10.01,22.86-8.24,22.86-8.24-3.66,21.99,15.77,29.3,15.77,29.3,2.7-3.86,7.27-3.11,10.62-1.81,2.53,.98,4.26,3.36,4.44,6.07l1.11,16.69c.82,10.12,8.76,21.07,8.76,21.07,8.21,13.68,6.34,23.45,6.34,23.45Z" fill="#314f3e"></path>
      <path d="M432.38,658.03l-.61-.34c-19.2-10.85-27.79-31.38-27.88-31.59l-11.31-21.89c-13.88-24.44-30.52-32.96-30.68-33.04l-.76-.38,.71-.48c14.73-10.01,22.91-8.39,23.24-8.32l.47,.1-.08,.47c-3.33,19.96,12.45,27.49,15.11,28.61,2.31-2.99,6.09-3.56,10.98-1.67,2.7,1.05,4.56,3.6,4.75,6.51l1.11,16.69c.8,9.86,8.58,20.7,8.66,20.81,8.24,13.73,6.51,23.43,6.43,23.83l-.13,.68Zm-69.3-87.35c3.41,1.96,18.01,11.27,30.38,33.05l11.34,21.94c.1,.24,8.38,20,26.81,30.77,.23-2.47,.39-11.12-6.37-22.38-.3-.42-8-11.14-8.83-21.29l-1.11-16.7c-.17-2.52-1.78-4.73-4.12-5.64-3.19-1.24-7.52-1.96-10.03,1.63l-.22,.32-.36-.14c-.2-.07-19.48-7.59-16.17-29.34-1.88-.17-9.35-.18-21.32,7.77Z" fill="#002346"></path>
    </g>
    <g>
      <path d="M352.14,576.06s-4.36,1.84,1.48,12.05l33.2,51.99s22.63,32.28,38.31,26.27l4.37-5.65-39.04-45.79-9.67-25.36-22.62-14.78s-2.41-1.67-6.04,1.26Z" fill="#fff"></path>
      <path d="M420.97,667.62c-15.27,0-33.7-26.02-34.55-27.23l-33.21-52.01c-2.71-4.75-3.66-8.38-2.84-10.81,.43-1.29,1.25-1.8,1.51-1.94,3.85-3.08,6.49-1.33,6.6-1.25l22.75,14.86,9.7,25.43,39.25,46.03-4.71,6.08-.13,.05c-1.41,.54-2.86,.79-4.35,.79Zm-68.63-91.11s-.7,.35-1.05,1.43c-.48,1.48-.38,4.41,2.77,9.92l33.19,51.97c.21,.3,22.45,31.7,37.58,26.12l4.04-5.22-38.83-45.55-.03-.08-9.61-25.21-22.49-14.69c-.09-.06-2.19-1.4-5.45,1.23l-.12,.07Z" fill="#002346"></path>
    </g>
    <g>
      <path d="M258.05,234.08l25.98,33.28,15.67,65.05s2.84,44.18-2.36,71.27c0,0-8.34,2.64-11.16,14.24-.7,2.87-.8,5.84-.54,8.78,.7,7.88-.02,31.98-34,37.45,0,0-24.63,4.65-41.32-1.09,0,0-.27-69.78,1.64-78.26,0,0-17.24-7.66-11.77-41.32,0,0,10.12-62.94,31.2-87.84,0,0,6.84-7.66,15.05-10.4,0,0,5.7-5.9,11.61-11.16Z" fill="#314f3e"></path>
      <path d="M231.08,466.41c-6.93,0-14.52-.68-20.92-2.88l-.34-.12v-.35c-.01-2.81-.25-68.11,1.58-77.99-2.48-1.38-16.72-10.75-11.7-41.67,.1-.63,10.39-63.36,31.31-88.08,.29-.33,6.97-7.73,15.16-10.51,.73-.76,6.09-6.23,11.55-11.1l.4-.35,.33,.42,26.04,33.36,.03,.1,15.67,65.05c.04,.53,2.8,44.64-2.36,71.48l-.06,.29-.28,.09c-.08,.03-8.11,2.72-10.83,13.89-.63,2.58-.8,5.48-.53,8.62,.67,7.5,.17,32.42-34.42,37.99-.14,.03-9.55,1.77-20.64,1.77Zm-20.26-3.71c16.37,5.46,40.49,1.01,40.73,.96,33.74-5.44,34.24-29.63,33.59-36.91-.29-3.25-.1-6.26,.55-8.94,2.6-10.66,9.67-13.91,11.21-14.5,5.05-26.74,2.33-70.42,2.3-70.86l-15.63-64.86-25.58-32.77c-5.68,5.09-11.13,10.72-11.18,10.78l-.08,.09-.12,.04c-7.98,2.66-14.77,10.18-14.83,10.26-20.73,24.5-30.97,86.96-31.07,87.59-5.34,32.83,11.31,40.71,11.48,40.78l.37,.17-.09,.4c-1.81,8.02-1.65,72.38-1.63,77.79Z" fill="#002346"></path>
    </g>
    <path d="M298.71,364.23c-.27,0-.49-.21-.5-.48l-1.05-31.99c-.03-.84-.24-1.68-.62-2.43l-17.08-33.68c-1.16-2.29-1.76-4.85-1.73-7.42l.22-18.5c0-.41-.32-.74-.73-.75l-6.23-.15c-2.76-.07-5.26-1.49-6.7-3.8-6.54-10.55-7.93-26.42-7.94-26.58-.02-.28,.18-.52,.46-.54,.28-.03,.52,.18,.54,.46,.01,.16,1.38,15.79,7.8,26.14,1.25,2.02,3.45,3.27,5.87,3.32l6.23,.15c.95,.02,1.71,.82,1.7,1.77l-.22,18.5c-.03,2.41,.53,4.81,1.62,6.96l17.08,33.68c.45,.88,.7,1.86,.73,2.85l1.05,31.99c0,.28-.21,.51-.48,.52,0,0-.01,0-.02,0Z" fill="#002346"></path>
    <g>
      <path d="M261.5,343.84s-.1,15.02,1.9,18.68c.37,.68,1.4,.56,1.58-.2,.45-1.84,1.25-7.16,1.63-22.31l-5.11,3.83Z" fill="#314f3e"></path>
      <path d="M264.14,363.47c-.49,0-.95-.27-1.19-.71-2.04-3.74-1.96-18.31-1.96-18.93v-.25s6.13-4.6,6.13-4.6l-.03,1.03c-.38,15.27-1.19,20.6-1.64,22.42-.13,.55-.58,.95-1.14,1.02-.06,0-.12,.01-.18,.01Zm-2.14-19.38c0,1.96,.06,14.93,1.83,18.19,.11,.2,.3,.19,.36,.18,.07,0,.25-.05,.3-.27,.43-1.74,1.2-6.79,1.59-21.17l-4.08,3.06Z" fill="#002346"></path>
    </g>
    <g>
      <path d="M304.05,314.83l-19.82-8.11,11.84-33c.64-1.78,2.41-2.91,4.3-2.72l17.15,1.65c2.84,.27,4.56,3.28,3.36,5.87l-16.84,36.32Z" fill="#fff"></path>
      <path d="M304.3,315.47l-20.7-8.47,12.01-33.46c.72-2,2.7-3.26,4.82-3.05l17.15,1.65c1.52,.15,2.83,.99,3.58,2.31s.83,2.88,.18,4.26l-17.04,36.75Zm-19.44-9.03l18.93,7.75,16.64-35.89c.5-1.09,.45-2.31-.14-3.34s-1.62-1.7-2.81-1.82l-17.15-1.65c-1.65-.15-3.21,.82-3.78,2.4l-11.68,32.55Z" fill="#002346"></path>
    </g>
    <g>
      <ellipse cx="302.39" cy="289.99" rx="3.19" ry="2.69" transform="translate(-62.89 495.18) rotate(-73.12)" fill="#bbbbc1"></ellipse>
      <path d="M302.13,293.64c-.27,0-.54-.04-.81-.12-1.68-.51-2.57-2.51-1.98-4.46,.59-1.95,2.44-3.12,4.12-2.61,.83,.25,1.49,.87,1.86,1.73,.36,.83,.4,1.8,.12,2.73-.5,1.64-1.88,2.73-3.31,2.73Zm.52-6.3c-1,0-1.98,.81-2.35,2.02-.43,1.42,.16,2.86,1.31,3.21,1.15,.35,2.44-.52,2.87-1.94,.21-.7,.19-1.43-.08-2.04-.25-.59-.69-1-1.23-1.16-.17-.05-.35-.08-.52-.08Z" fill="#002346"></path>
    </g>
    <g>
      <path d="M269.7,336.36l16.78-14.23s22.44-4.2,20.43-10.03c0,0,3.1-1.82,1.64-5.66,0,0,4.93-.36,4.01-5.66,0,0,2.19-1.46,1.09-4.01,0,0-.18-2.19-10.4,.91l-10.03,2.37s-4.19,1.02-4.94-3.2c-.28-1.55,.09-3.15,.9-4.5,1.4-2.31,3.67-7.24,.72-11.34-.29-.41-.92-.35-1.15,.1-1.25,2.49-4.97,9.35-10.13,13.47,0,0-2.92,1.46-4.56,8.21l-3.28,9.3-3.47,1.82s-1.28,9.67,2.37,22.44Z" fill="#f2b3c1"></path>
      <path d="M269.44,337.24l-.21-.75c-3.63-12.72-2.4-22.54-2.39-22.64l.03-.26,3.52-1.85,3.22-9.12c1.56-6.43,4.32-8.21,4.75-8.46,5-4.02,8.63-10.62,9.96-13.28,.19-.37,.55-.61,.96-.65,.41-.04,.8,.15,1.04,.48,3.07,4.27,.88,9.28-.7,11.89-.79,1.3-1.09,2.77-.84,4.15,.2,1.1,.66,1.89,1.38,2.37,1.26,.83,2.93,.44,2.95,.44l10.03-2.37c5.62-1.71,9.17-2.12,10.5-1.21,.33,.23,.45,.48,.49,.64,.87,2.08-.18,3.67-1.03,4.38,.23,1.65-.07,3-.88,4.05-.91,1.17-2.24,1.62-3.01,1.79,.87,3.05-.96,4.86-1.73,5.46,.14,.69,.01,1.38-.39,2.06-2.76,4.74-18.66,7.9-20.4,8.24l-17.27,14.65Zm-1.64-23c-.16,1.57-.84,10.21,2.18,21.23l16.29-13.81,.13-.02c.17-.03,17.22-3.27,19.85-7.78,.32-.55,.38-1.07,.2-1.6l-.13-.38,.35-.21c.11-.07,2.71-1.67,1.43-5.05l-.24-.62,.67-.05s1.87-.16,2.92-1.52c.68-.87,.89-2.07,.63-3.56l-.05-.32,.27-.18c.07-.05,1.83-1.27,.91-3.4l-.04-.15s-.26-.3-1.62-.3-3.79,.32-8.14,1.64l-10.06,2.38c-.08,.02-2.1,.49-3.72-.57-.96-.63-1.58-1.65-1.83-3.03-.29-1.62,.06-3.33,.97-4.84,1.45-2.4,3.48-6.99,.74-10.79-.05-.07-.11-.07-.15-.07-.04,0-.11,.02-.15,.1-1.36,2.72-5.09,9.5-10.26,13.64l-.09,.06s-2.75,1.5-4.3,7.88l-3.36,9.54-3.41,1.79Z" fill="#002346"></path>
    </g>
    <path d="M269.34,316.06c-.18,0-.36-.1-.45-.28-.12-.25-.02-.55,.22-.67l5.47-2.74c.25-.12,.55-.02,.67,.22s.02,.55-.22,.67l-5.47,2.74c-.07,.04-.15,.05-.22,.05Z" fill="#002346"></path>
    <path d="M302.72,303.11c-.24,0-.45-.17-.49-.41-.05-.27,.13-.53,.4-.58l9.85-1.82c.27-.05,.53,.13,.58,.4,.05,.27-.13,.53-.4,.58l-9.85,1.82s-.06,0-.09,0Z" fill="#002346"></path>
    <path d="M300.9,308.95c-.22,0-.42-.15-.48-.37-.07-.27,.09-.54,.36-.61l7.66-2.01c.27-.07,.54,.09,.61,.36,.07,.27-.09,.54-.36,.61l-7.66,2.01s-.08,.02-.13,.02Z" fill="#002346"></path>
    <path d="M299.15,313.56c-.41,0-.7-.03-.84-.1-.25-.12-.35-.42-.22-.67s.41-.34,.65-.23c.58,.16,4.57-.36,8.11-.95,.27-.05,.53,.14,.58,.41,.05,.27-.14,.53-.41,.58-2.37,.4-6.12,.97-7.85,.97Z" fill="#002346"></path>
    <path d="M432.02,657.26c-2.37,7-6.75,9.05-6.89,9.11,1.27-2.92-4.2-8.94-4.2-8.94-10.76-10.03-18.06-19.15-18.06-19.15-16.96-22.99-32.83-46.88-32.83-46.88-9.75-16.54-15.91-16.1-17.9-15.34-.08,.03-.15-.08-.08-.14l3.38-2.77c4.19-3.65,6.68-2.42,6.68-2.42,0,0,16.78,8.39,30.9,33.26l11.33,21.93s8.39,20.45,27.66,31.34Z" fill="#002346"></path>
    <g>
      <rect x="263.74" y="160.74" width="43.22" height="75.04" rx="21.61" ry="21.61" transform="translate(-52.85 118.58) rotate(-21.54)" fill="#f2b3c1"></rect>
      <path d="M291.18,235.18c-2.99,0-5.97-.61-8.8-1.84-5.42-2.35-9.59-6.67-11.76-12.17l-11.68-29.6c-4.48-11.34,1.11-24.21,12.45-28.68,11.34-4.47,24.21,1.11,28.68,12.45l11.68,29.6c4.48,11.34-1.11,24.21-12.45,28.68-2.63,1.04-5.38,1.56-8.12,1.56Zm-11.7-72.83c-2.57,0-5.19,.47-7.72,1.47-5.25,2.07-9.37,6.06-11.62,11.23-2.25,5.17-2.34,10.91-.27,16.15l11.68,29.6c2.07,5.25,6.06,9.37,11.23,11.62,5.17,2.25,10.91,2.34,16.15,.27h0c5.25-2.07,9.37-6.06,11.62-11.23,2.25-5.17,2.34-10.91,.27-16.15l-11.68-29.6c-3.27-8.29-11.25-13.36-19.66-13.36Z" fill="#002346"></path>
    </g>
    <path d="M262.13,229.36s-14.6-6.01-22.97-26.62c0,0-5.37-13.74,5.8-22.11,0,0-1.5-22.97,21.9-21.68l12.88,1.72s9.45-13.53,18.89,3.86c0,0,3.22,5.15,4.72,20.83,0,0-4.08-21.25-23.83-13.1,0,0-5.8,2.15-8.59,4.51,0,0-5.15,4.94-12.88,4.29,0,0,6.66,10.95,6.66,19.54l-4.08,15.46s3.65,6.44,1.5,13.31Z" fill="#002346"></path>
    <g>
      <ellipse cx="260.33" cy="206.78" rx="7.38" ry="10.81" transform="translate(-70.8 177.04) rotate(-33.33)" fill="#f2b3c1"></ellipse>
      <path d="M263.23,217.18c-1.03,0-2.13-.23-3.25-.69-2.38-.98-4.59-2.89-6.23-5.38-3.42-5.21-3.26-11.39,.37-13.78,3.63-2.39,9.37-.09,12.8,5.12h0c3.42,5.21,3.26,11.39-.37,13.78-.97,.64-2.1,.96-3.32,.96Zm-5.78-19.81c-1.01,0-1.96,.25-2.78,.79-3.17,2.08-3.21,7.64-.09,12.39,1.53,2.33,3.58,4.11,5.78,5.01,2.13,.88,4.13,.81,5.64-.18,3.17-2.08,3.21-7.64,.09-12.39-2.32-3.52-5.73-5.62-8.63-5.62Z" fill="#002346"></path>
    </g>
    <path d="M251.55,321.61c-.08,0-.16-.02-.23-.06-.25-.13-.34-.43-.22-.67,20.66-40.17,5.05-67.92,4.89-68.2-.14-.24-.06-.54,.18-.68,.24-.14,.54-.06,.68,.18,.16,.28,16.06,28.47-4.86,69.16-.09,.17-.26,.27-.45,.27Z" fill="#002346"></path>
    <path d="M220.63,340.3c-.18,0-.35-.09-.44-.26-.13-.24-.05-.55,.2-.68l42.32-23.33c.24-.13,.55-.05,.68,.2,.13,.24,.05,.55-.2,.68l-42.32,23.33c-.08,.04-.16,.06-.24,.06Z" fill="#002346"></path>
    <path d="M250.11,369.31c-.35,0-.7-.06-1.03-.19-.69-.27-1.23-.8-1.51-1.47-6.46-15.29-.87-40.41-.81-40.66,.06-.27,.33-.44,.6-.38,.27,.06,.44,.33,.38,.6-.06,.25-5.58,25.06,.76,40.05,.18,.43,.52,.76,.96,.93,.45,.18,.95,.17,1.4-.03l10.95-5.09c.25-.12,.55,0,.66,.24,.12,.25,0,.55-.24,.66l-10.96,5.09c-.37,.16-.76,.24-1.15,.24Z" fill="#002346"></path>
    <path d="M214.51,384.52c-.25,0-.46-.19-.5-.44-.03-.27,.16-.52,.43-.56,15.67-1.96,33.08-16.31,33.26-16.46,.21-.18,.53-.15,.7,.06,.18,.21,.15,.53-.06,.7-.18,.15-17.81,14.69-33.77,16.68-.02,0-.04,0-.06,0Z" fill="#002346"></path>
    <path d="M285.67,414.41s-.03,0-.04,0c-.27-.02-.48-.26-.46-.54,3.12-37.56,.87-50.63,.84-50.76-.05-.27,.13-.53,.4-.58,.28-.05,.53,.13,.58,.4,.02,.13,2.3,13.29-.83,51.02-.02,.26-.24,.46-.5,.46Z" fill="#002346"></path>
    <path d="M343.64,337.23s-.04,0-.06,0c-14.62-1.82-16.01-25.66-16.06-26.68-.01-.28,.2-.51,.47-.52,.26,0,.51,.2,.53,.47,.01,.24,1.4,24.02,15.19,25.74,.27,.03,.47,.28,.43,.56-.03,.25-.25,.44-.5,.44Z" fill="#002346"></path>
    <path d="M311.51,355.52s-.05,0-.08,0c-.27-.04-.46-.3-.41-.57,3.97-24.81,11.99-38.05,12.07-38.18,.14-.24,.45-.31,.69-.16,.24,.14,.31,.45,.16,.69-.08,.13-8,13.22-11.93,37.82-.04,.25-.25,.42-.49,.42Z" fill="#002346"></path>
    <g>
      <path d="M335.86,288.17l2.81-6.81s7.39,29.83,17.51,15.6c0,0-.76,9.82-2.71,18.59,0,0-1.38,6.07-5.26,6.13-.81,.01-1.6-.27-2.26-.74-2.72-1.94-11.79-10.17-10.1-32.76Z" fill="#fff"></path>
      <path d="M348.16,322.18c-.87,0-1.73-.29-2.5-.84-2.85-2.03-12.01-10.44-10.31-33.21l.04-.15,3.39-8.22,.37,1.48c.04,.18,4.48,17.79,10.85,19,1.88,.35,3.83-.84,5.77-3.57l1.04-1.47-.14,1.8c0,.1-.78,9.96-2.71,18.66-.06,.27-1.52,6.46-5.74,6.52-.02,0-.04,0-.06,0Zm-11.81-33.89c-1.64,22.19,7.16,30.29,9.9,32.24,.61,.44,1.24,.67,1.96,.65,3.44-.05,4.76-5.68,4.78-5.74,1.44-6.51,2.24-13.68,2.54-16.85-1.86,2.12-3.78,3-5.71,2.64-5.92-1.12-10.01-13.93-11.25-18.31l-2.21,5.37Z" fill="#002346"></path>
    </g>
    <g>
      <path d="M267.33,313.92l-4.38,2.55s-3.83,12.59-1.46,27.36l8.57-6.38s-3.47-9.3-2.74-23.53Z" fill="#fff"></path>
      <path d="M261.13,344.73l-.13-.81c-2.36-14.72,1.44-27.46,1.47-27.59l.06-.19,5.35-3.12-.05,.92c-.72,13.96,2.67,23.24,2.71,23.33l.13,.35-9.54,7.1Zm2.25-27.93c-.44,1.58-3.44,12.96-1.52,26.14l7.61-5.67c-.6-1.81-3.16-10.32-2.69-22.46l-3.41,1.99Z" fill="#002346"></path>
    </g>
    <path d="M433.66,492.75c-.21,0-.41-.14-.48-.35l-19.48-61.5c-3.67-11.58-14.3-19.52-26.45-19.74l-71.83-1.33c-.28,0-.5-.23-.49-.51s.25-.49,.51-.49l71.83,1.33c12.58,.23,23.58,8.45,27.38,20.44l19.48,61.5c.08,.26-.06,.54-.33,.63-.05,.02-.1,.02-.15,.02Z" fill="#002346"></path>
    <path d="M366.71,474.18c-.09,0-.19-.03-.27-.08-.2-.13-.28-.38-.2-.6,3.2-8.45,2.54-22.54,2.54-22.69-.01-.28,.2-.51,.47-.52,.26-.02,.51,.2,.52,.47,.03,.55,.59,12.62-1.99,21.26,2.79-2.33,9.37-6.92,17.79-6.6,.28,0,.49,.24,.48,.52-.01,.27-.23,.48-.5,.48,0,0-.01,0-.02,0-.25,0-.5-.01-.75-.01-10.14,0-17.66,7.53-17.73,7.61-.1,.1-.23,.15-.36,.15Z" fill="#002346"></path>
    <path d="M366.71,474.18c-.08,0-.17-.02-.25-.07-.24-.14-.32-.44-.19-.68l9.43-16.51c.14-.24,.44-.32,.68-.19,.24,.14,.32,.44,.19,.68l-9.43,16.51c-.09,.16-.26,.25-.43,.25Z" fill="#002346"></path>
    <path d="M397.99,543.74c-.19,0-.37-.11-.46-.3l-12.42-28c-.11-.25,0-.55,.25-.66,.25-.11,.55,0,.66,.25l12.42,28c.11,.25,0,.55-.25,.66-.07,.03-.13,.04-.2,.04Z" fill="#002346"></path>
  </g>
</svg>
