<?xml version="1.0" encoding="UTF-8"?>
<svg xmlns="http://www.w3.org/2000/svg" xmlns:xlink="http://www.w3.org/1999/xlink" viewBox="0 0 2322 1361">
  <defs>
    <style>.cls-1,.cls-100,.cls-19,.cls-20,.cls-21,.cls-31,.cls-32{fill:none;}.cls-2,.cls-61,.cls-64,.cls-66{isolation:isolate;}.cls-3{fill:#cde7ca;}.cls-22,.cls-23,.cls-3,.cls-58,.cls-70,.cls-71,.cls-72,.cls-73,.cls-74,.cls-75,.cls-76,.cls-77{fill-rule:evenodd;}.cls-4{fill:#f7fafb;}.cls-5{fill:#363636;}.cls-6{fill:#d7e8ef;}.cls-13,.cls-7{fill:#728370;}.cls-7{opacity:0.7;}.cls-8{fill:#858cf3;}.cls-9{fill:#4b514a;}.cls-10{mix-blend-mode:multiply;}.cls-11{clip-path:url(#clip-path);}.cls-12{fill:#eae5d8;}.cls-14{fill:#b1b2f5;}.cls-15{fill:#ff7072;}.cls-16{fill:#5b6bf4;}.cls-17{fill:#ffd150;}.cls-18{fill:#002745;}.cls-19,.cls-20{stroke:#004d79;}.cls-100,.cls-19,.cls-20{stroke-linecap:round;}.cls-100,.cls-19,.cls-20,.cls-21,.cls-31,.cls-32{stroke-miterlimit:10;}.cls-19,.cls-20,.cls-21{stroke-width:1.63px;}.cls-20{stroke-dasharray:2.24 4.48;}.cls-21{stroke:#ffd150;}.cls-22{fill:#c5ddfc;}.cls-23,.cls-24{fill:#fff;}.cls-25{opacity:0.7;}.cls-26{clip-path:url(#clip-path-2);}.cls-27,.cls-64{opacity:0.3;}.cls-28{clip-path:url(#clip-path-3);}.cls-29{clip-path:url(#clip-path-4);}.cls-30{clip-path:url(#clip-path-5);}.cls-31{stroke:#4b514a;stroke-width:3px;}.cls-32{stroke:#000;stroke-width:0.25px;}.cls-33{fill:#1f4190;}.cls-34{fill:#f37453;}.cls-35{fill:#619ed7;}.cls-36{fill:#f7be8f;}.cls-37{fill:#ffc778;}.cls-38{fill:#ffe100;}.cls-39{fill:#ff5340;}.cls-40{fill:#19a29b;}.cls-41{fill:#ffd679;}.cls-42{fill:#d84043;}.cls-43{fill:#f4aea2;}.cls-44{fill:#1d2f59;}.cls-45{fill:#304775;}.cls-46{fill:#fd9d81;}.cls-47{fill:#d44723;}.cls-48{fill:#192226;}.cls-49{fill:#1a2e35;}.cls-50{fill:#fe552a;}.cls-51{fill:#a8a8a8;}.cls-52{fill:#df7361;}.cls-53{fill:#ff8961;}.cls-54{clip-path:url(#clip-path-6);}.cls-55{fill:#f0ceb4;}.cls-56{fill:#90b493;}.cls-57{fill:#e7eff9;}.cls-58{fill:#d5e7d2;}.cls-59{fill:#fed0b6;}.cls-60{fill:#5a0225;}.cls-61{opacity:0.2;}.cls-62{clip-path:url(#clip-path-7);}.cls-63,.cls-75{fill:#081956;}.cls-65{clip-path:url(#clip-path-8);}.cls-66{opacity:0.4;}.cls-67{clip-path:url(#clip-path-9);}.cls-68{clip-path:url(#clip-path-10);}.cls-69{fill:#fea06b;}.cls-70{fill:#263d30;}.cls-71,.cls-78{fill:#ffb9a8;}.cls-72{fill:#ff6d4f;}.cls-73{fill:#000446;}.cls-74{fill:#ff5431;}.cls-76{fill:#bbd2ed;}.cls-77{fill:#e3f4fa;}.cls-79{opacity:0.15;}.cls-80{clip-path:url(#clip-path-11);}.cls-81{clip-path:url(#clip-path-12);}.cls-82{fill:#314f3e;}.cls-83{fill:#609c7a;}.cls-84{clip-path:url(#clip-path-13);}.cls-85{clip-path:url(#clip-path-14);}.cls-86{fill:#2f4171;}.cls-87{fill:#f18a8b;}.cls-88{opacity:0.5;}.cls-89{clip-path:url(#clip-path-15);}.cls-90{fill:#3c3c3c;}.cls-91{fill:#dd8085;}.cls-92{fill:#f15a24;}.cls-93{fill:#fbb03b;}.cls-94{fill:#29abe2;}.cls-95{fill:#2d2676;}.cls-96{fill:#ff592d;}.cls-97{fill:#3e0004;}.cls-98{fill:#0f1b1f;}.cls-99{fill:#c96c4d;}.cls-100{stroke:#5a0225;stroke-width:0.5px;}.cls-101{fill:#3a0072;}</style>
    <clipPath id="clip-path">
      <rect class="cls-1" x="1808.41" y="548.72" width="162.39" height="107.88"></rect>
    </clipPath>
    <clipPath id="clip-path-2">
      <rect class="cls-1" x="517.03" y="113.58" width="1092.12" height="724.51"></rect>
    </clipPath>
    <clipPath id="clip-path-3">
      <rect class="cls-1" x="550.66" y="130.3" width="24.72" height="24.72"></rect>
    </clipPath>
    <clipPath id="clip-path-4">
      <rect class="cls-1" x="515.53" y="130.3" width="24.72" height="24.72"></rect>
    </clipPath>
    <clipPath id="clip-path-5">
      <rect class="cls-1" x="480.41" y="130.3" width="24.72" height="24.72"></rect>
    </clipPath>
    <clipPath id="clip-path-6">
      <rect class="cls-1" x="1501.69" y="643.16" width="44.26" height="73.66"></rect>
    </clipPath>
    <clipPath id="clip-path-7">
      <rect class="cls-1" x="2045.76" y="960.74" width="39.92" height="89.14"></rect>
    </clipPath>
    <clipPath id="clip-path-8">
      <rect class="cls-1" x="1774.13" y="543.6" width="183.83" height="183.86"></rect>
    </clipPath>
    <clipPath id="clip-path-9">
      <rect class="cls-1" x="1781.69" y="575.34" width="172.55" height="48.24"></rect>
    </clipPath>
    <clipPath id="clip-path-10">
      <rect class="cls-1" x="1776.02" y="618.08" width="178.42" height="61.24"></rect>
    </clipPath>
    <clipPath id="clip-path-11">
      <rect class="cls-1" x="463.17" y="888.27" width="54.26" height="384.73"></rect>
    </clipPath>
    <clipPath id="clip-path-12">
      <rect class="cls-1" x="423.9" y="720.42" width="24.16" height="113.32"></rect>
    </clipPath>
    <clipPath id="clip-path-13">
      <rect class="cls-1" x="551.87" y="776.58" width="23.13" height="117.38"></rect>
    </clipPath>
    <clipPath id="clip-path-14">
      <rect class="cls-1" x="488.43" y="721.22" width="3.43" height="4.59"></rect>
    </clipPath>
    <clipPath id="clip-path-15">
      <rect class="cls-1" x="462.15" y="590.34" width="33.24" height="16.3"></rect>
    </clipPath>
  </defs>
  <g class="cls-2">
    <g id="Layer_1" data-name="Layer 1">
      <path class="cls-3" d="M1123.65,213.6C1027.75,247.94,936.58,321.45,864.77,390,715.23,532.71,692.92,562.72,508.43,682.55c-107.51,69.83-192.28,128.89-234,207.89C157.06,1112.34,296.8,1352,589.63,1352H1780s140,3,242.2-115.56c346.32-402-228.08-1262.87-898.55-1022.84"></path>
      <path class="cls-4" d="M1984.26,658.22v39.87a1.8,1.8,0,0,1-1.94,1.6h-1.77V656.62h1.77a1.8,1.8,0,0,1,1.94,1.6"></path>
      <path class="cls-5" d="M1970.81,1095.21a33.58,33.58,0,0,1-33.58,33.6h-249.4a33.61,33.61,0,0,1-33.6-33.6V537.53a33.62,33.62,0,0,1,33.6-33.61H1727v50.42h171V503.92h39.2a33.59,33.59,0,0,1,33.58,33.61Zm-32.68-602.49H1687a42.43,42.43,0,0,0-42.43,42.43V1097.6A42.4,42.4,0,0,0,1687,1140h251.18a42.42,42.42,0,0,0,42.43-42.4V535.15a42.45,42.45,0,0,0-42.43-42.43"></path>
      <path class="cls-6" d="M1821.77,512.7h-32.62a2.53,2.53,0,0,0,0,5.06h32.62a2.53,2.53,0,1,0,0-5.06m13.82-.35a2.87,2.87,0,1,0,2.86,2.88,2.87,2.87,0,0,0-2.86-2.88"></path>
      <path class="cls-7" d="M1970.8,537.52v557.7a33.57,33.57,0,0,1-33.56,33.59h-249.4a33.6,33.6,0,0,1-33.61-33.61V537.52a33.6,33.6,0,0,1,33.61-33.59h54.66a4.14,4.14,0,0,1,4.14,4.14v6.59a13.11,13.11,0,0,0,13.1,13.11h105.58a13.11,13.11,0,0,0,13.1-13.11v-6.59a4.14,4.14,0,0,1,4.16-4.14h54.64a33.59,33.59,0,0,1,33.58,33.59"></path>
      <path class="cls-6" d="M1934.59,1135.49H1690.47c-23.27,0-42.2-19.16-42.2-42.71V540c0-23.55,18.93-42.71,42.2-42.71h244.12c23.28,0,42.21,19.16,42.21,42.71v552.82c0,23.55-18.93,42.71-42.21,42.71m-244.12-636.3c-22.2,0-40.27,18.29-40.27,40.77v552.82c0,22.48,18.07,40.77,40.27,40.77h244.12c22.21,0,40.27-18.29,40.27-40.77V540c0-22.48-18.06-40.77-40.27-40.77Z"></path>
      <path class="cls-4" d="M1644.51,691.15v52.14h-1.77a1.94,1.94,0,0,1-1.94-1.94V693.09a1.94,1.94,0,0,1,1.94-1.94Z"></path>
      <path class="cls-4" d="M1644.51,626.2v52.14h-1.77a1.94,1.94,0,0,1-1.94-1.94V628.14a1.94,1.94,0,0,1,1.94-1.94Z"></path>
      <path class="cls-4" d="M1644.51,579.65V596h-1.77a1.94,1.94,0,0,1-1.94-1.94V581.59a1.94,1.94,0,0,1,1.94-1.94Z"></path>
      <path class="cls-8" d="M1861,1116h-97a1.95,1.95,0,0,1,0-3.89h97a1.95,1.95,0,0,1,0,3.89"></path>
      <rect class="cls-4" x="1970.81" y="556.19" width="9.74" height="4.86"></rect>
      <rect class="cls-4" x="1644.51" y="556.19" width="9.74" height="4.86"></rect>
      <rect class="cls-4" x="1970.81" y="1071.69" width="9.74" height="4.86"></rect>
      <rect class="cls-4" x="1644.51" y="1071.69" width="9.74" height="4.86"></rect>
      <path class="cls-9" d="M1945.41,566.55H1679.65a6.53,6.53,0,0,1,0-13.06h265.76a6.53,6.53,0,1,1,0,13.06"></path>
      <path class="cls-7" d="M1942.93,689.78H1682.14a6.75,6.75,0,0,1-6.75-6.74V588.63a6.74,6.74,0,0,1,6.75-6.74h260.79a6.74,6.74,0,0,1,6.74,6.74V683a6.74,6.74,0,0,1-6.74,6.74"></path>
      <g class="cls-10">
        <g class="cls-11">
          <path class="cls-12" d="M1970.8,548.72V656.61H1815.42a7,7,0,0,1-7-7V555.71a7,7,0,0,1,7-7Z"></path>
        </g>
      </g>
      <path class="cls-7" d="M1946,820.93H1765.71a6,6,0,1,1,0-12H1946a6,6,0,0,1,0,12"></path>
      <path class="cls-7" d="M1946,852.34H1765.71a6,6,0,1,1,0-12H1946a6,6,0,0,1,0,12"></path>
      <path class="cls-7" d="M1946,883.75H1765.71a6,6,0,1,1,0-12H1946a6,6,0,0,1,0,12"></path>
      <path class="cls-7" d="M1746.28,782h-69.09a2.65,2.65,0,0,1-2.65-2.65V710.55a2.65,2.65,0,0,1,2.65-2.65h69.09a2.65,2.65,0,0,1,2.65,2.65v68.81a2.65,2.65,0,0,1-2.65,2.65"></path>
      <path class="cls-7" d="M1847.08,782H1778a2.64,2.64,0,0,1-2.65-2.65V710.55a2.65,2.65,0,0,1,2.65-2.65h69.09a2.65,2.65,0,0,1,2.65,2.65v68.81a2.65,2.65,0,0,1-2.65,2.65"></path>
      <path class="cls-7" d="M1947.87,782h-69.09a2.65,2.65,0,0,1-2.65-2.65V710.55a2.65,2.65,0,0,1,2.65-2.65h69.09a2.65,2.65,0,0,1,2.65,2.65v68.81a2.64,2.64,0,0,1-2.65,2.65"></path>
      <path class="cls-7" d="M1940,912v176.41a6.23,6.23,0,0,1-6.23,6.24l-66.3-6.24,4.67-182.66h61.63A6.24,6.24,0,0,1,1940,912"></path>
      <path class="cls-13" d="M1926.86,1088.42h-212a6.23,6.23,0,0,1-6.23-6.23V905.77a6.23,6.23,0,0,1,6.23-6.24h212a6.23,6.23,0,0,1,6.23,6.24v176.42a6.23,6.23,0,0,1-6.23,6.23"></path>
      <path class="cls-14" d="M1879,924.38h-34.71a1.52,1.52,0,1,1,0-3H1879a1.52,1.52,0,1,1,0,3"></path>
      <path class="cls-15" d="M1835.26,924.38H1730.44a1.52,1.52,0,0,1,0-3h104.82a1.52,1.52,0,0,1,0,3"></path>
      <path class="cls-15" d="M1911.32,940.18h-34.59a1.52,1.52,0,0,1,0-3h34.59a1.52,1.52,0,0,1,0,3"></path>
      <path class="cls-14" d="M1760.61,940.18h-30.17a1.52,1.52,0,0,1,0-3h30.17a1.52,1.52,0,0,1,0,3"></path>
      <path class="cls-16" d="M1868.3,940.18h-98.38a1.52,1.52,0,0,1,0-3h98.38a1.52,1.52,0,0,1,0,3"></path>
      <path class="cls-17" d="M1897.81,956H1837a1.51,1.51,0,1,1,0-3h60.77a1.51,1.51,0,1,1,0,3"></path>
      <path class="cls-16" d="M1827.68,956h-97.24a1.51,1.51,0,1,1,0-3h97.24a1.51,1.51,0,0,1,0,3"></path>
      <path class="cls-15" d="M1775,971.79h-44.54a1.52,1.52,0,0,1,0-3H1775a1.52,1.52,0,1,1,0,3"></path>
      <path class="cls-14" d="M1911.32,971.79H1783.7a1.52,1.52,0,1,1,0-3h127.62a1.52,1.52,0,0,1,0,3"></path>
      <path class="cls-16" d="M1882.64,987.59h-152.2a1.52,1.52,0,0,1,0-3h152.2a1.52,1.52,0,0,1,0,3"></path>
      <path class="cls-14" d="M1754.11,1003.39h-23.67a1.52,1.52,0,0,1,0-3h23.67a1.52,1.52,0,1,1,0,3"></path>
      <path class="cls-15" d="M1863.21,1003.39h-99a1.52,1.52,0,1,1,0-3h99a1.52,1.52,0,0,1,0,3"></path>
      <path class="cls-14" d="M1901.44,1003.39h-27.72a1.52,1.52,0,1,1,0-3h27.72a1.52,1.52,0,1,1,0,3"></path>
      <path class="cls-17" d="M1832.56,1019.2H1730.44a1.52,1.52,0,0,1,0-3h102.12a1.52,1.52,0,0,1,0,3"></path>
      <path class="cls-16" d="M1911.32,1019.2h-68.77a1.52,1.52,0,1,1,0-3h68.77a1.52,1.52,0,0,1,0,3"></path>
      <path class="cls-14" d="M1903.68,1035h-13.86a1.52,1.52,0,0,1,0-3h13.86a1.52,1.52,0,0,1,0,3"></path>
      <path class="cls-16" d="M1772.69,1035h-42.25a1.52,1.52,0,0,1,0-3h42.25a1.52,1.52,0,0,1,0,3"></path>
      <path class="cls-15" d="M1879.83,1035h-97.57a1.52,1.52,0,0,1,0-3h97.57a1.52,1.52,0,1,1,0,3"></path>
      <path class="cls-16" d="M1911.32,1050.8h-80.1a1.52,1.52,0,0,1,0-3h80.1a1.52,1.52,0,0,1,0,3"></path>
      <path class="cls-15" d="M1822,1050.8h-91.52a1.52,1.52,0,0,1,0-3H1822a1.52,1.52,0,1,1,0,3"></path>
      <path class="cls-16" d="M1858.64,1066.6H1750.7a1.51,1.51,0,0,1,0-3h107.94a1.51,1.51,0,0,1,0,3"></path>
      <path class="cls-14" d="M1740.4,1066.6h-10a1.51,1.51,0,1,1,0-3h10a1.51,1.51,0,1,1,0,3"></path>
      <path class="cls-18" d="M2084.54,650H1821.9a7,7,0,0,1-7-7V549.14a7,7,0,0,1,7-7h262.64a7,7,0,0,1,7,7V643a7,7,0,0,1-7,7"></path>
      <polyline class="cls-19" points="1830.7 555.48 1830.7 636.12 2073.84 636.12"></polyline>
      <line class="cls-19" x1="1874.24" y1="555.48" x2="1874.24" y2="556.57"></line>
      <line class="cls-20" x1="1874.24" y1="561.05" x2="1874.24" y2="632.79"></line>
      <line class="cls-19" x1="1874.24" y1="635.03" x2="1874.24" y2="636.12"></line>
      <line class="cls-19" x1="1917.77" y1="555.48" x2="1917.77" y2="556.57"></line>
      <line class="cls-20" x1="1917.77" y1="561.05" x2="1917.77" y2="632.79"></line>
      <line class="cls-19" x1="1917.77" y1="635.03" x2="1917.77" y2="636.12"></line>
      <line class="cls-19" x1="1961.31" y1="555.48" x2="1961.31" y2="556.57"></line>
      <line class="cls-20" x1="1961.31" y1="561.05" x2="1961.31" y2="632.79"></line>
      <line class="cls-19" x1="1961.31" y1="635.03" x2="1961.31" y2="636.12"></line>
      <line class="cls-19" x1="2004.85" y1="555.48" x2="2004.85" y2="556.57"></line>
      <line class="cls-20" x1="2004.85" y1="561.05" x2="2004.85" y2="632.79"></line>
      <line class="cls-19" x1="2004.85" y1="635.03" x2="2004.85" y2="636.12"></line>
      <line class="cls-19" x1="2048.38" y1="555.48" x2="2048.38" y2="556.57"></line>
      <line class="cls-20" x1="2048.38" y1="561.05" x2="2048.38" y2="632.79"></line>
      <line class="cls-19" x1="2048.38" y1="635.03" x2="2048.38" y2="636.12"></line>
      <polyline class="cls-21" points="1874.1 607.58 1918.11 587.42 1961.26 599.63 2004.99 593.95 2048.71 560.16"></polyline>
      <path class="cls-17" d="M2050.77,559.88a2.24,2.24,0,1,1-2.23-2.24,2.23,2.23,0,0,1,2.23,2.24"></path>
      <path class="cls-17" d="M2007.12,593.63a2.24,2.24,0,1,1-2.24-2.23,2.24,2.24,0,0,1,2.24,2.23"></path>
      <path class="cls-17" d="M1963.39,599.31a2.24,2.24,0,1,1-2.23-2.23,2.23,2.23,0,0,1,2.23,2.23"></path>
      <path class="cls-17" d="M1920.23,587.1a2.24,2.24,0,1,1-2.23-2.23,2.23,2.23,0,0,1,2.23,2.23"></path>
      <path class="cls-17" d="M1876.58,607.12a2.24,2.24,0,1,1-2.24-2.24,2.24,2.24,0,0,1,2.24,2.24"></path>
      <path class="cls-22" d="M488.16,662.44l9.28-4.76a9.72,9.72,0,0,0,5.1-10.59,100.62,100.62,0,0,1-2-24.81,9.71,9.71,0,0,0-6.77-9.63l-9.92-3.21a9.79,9.79,0,0,1-6.35-12.31l6.12-19a9.79,9.79,0,0,1,12.33-6.32l9.93,3.19a9.71,9.71,0,0,0,11.1-3.89,100.43,100.43,0,0,1,16.11-19,9.68,9.68,0,0,0,2-11.58l-4.76-9.28a9.8,9.8,0,0,1,4.24-13.19l17.77-9.12a9.79,9.79,0,0,1,13.19,4.23l4.76,9.28a9.71,9.71,0,0,0,10.59,5.11,100.94,100.94,0,0,1,24.79-2,9.7,9.7,0,0,0,9.64-6.77l3.2-9.93a9.77,9.77,0,0,1,12.31-6.32l19,6.11a9.78,9.78,0,0,1,6.32,12.32L653,530.87a9.72,9.72,0,0,0,3.9,11.11,101.38,101.38,0,0,1,19,16.1,9.68,9.68,0,0,0,11.57,2l9.28-4.76a9.78,9.78,0,0,1,13.18,4.23L719,577.34a9.79,9.79,0,0,1-4.23,13.19l-9.28,4.76a9.74,9.74,0,0,0-5.11,10.6,100.34,100.34,0,0,1,2,24.79,9.74,9.74,0,0,0,6.77,9.65l9.92,3.18a9.79,9.79,0,0,1,6.33,12.33l-6.1,19A9.81,9.81,0,0,1,707,681.18l-9.92-3.2a9.73,9.73,0,0,0-11.12,3.9,100.26,100.26,0,0,1-16.09,19,9.71,9.71,0,0,0-2,11.59l4.77,9.28a9.78,9.78,0,0,1-4.24,13.18L650.6,744a9.82,9.82,0,0,1-13.19-4.25l-4.76-9.28a9.72,9.72,0,0,0-10.61-5.1,100.7,100.7,0,0,1-24.77,2,9.71,9.71,0,0,0-9.64,6.76l-3.19,9.93a9.82,9.82,0,0,1-12.34,6.34l-19-6.12A9.78,9.78,0,0,1,546.77,732l3.18-9.93A9.72,9.72,0,0,0,546.07,711a98.73,98.73,0,0,1-19-16.1,9.69,9.69,0,0,0-11.58-2l-9.29,4.76A9.77,9.77,0,0,1,493,693.39l-9.13-17.77a9.78,9.78,0,0,1,4.25-13.18m69.93-3.36a54.25,54.25,0,1,0,27.12-84.34,54.2,54.2,0,0,0-27.12,84.34"></path>
      <path class="cls-23" d="M639.88,567.66a69.15,69.15,0,1,1-52.08-9.44,68.93,68.93,0,0,1,52.08,9.44m-53-13.83a73.66,73.66,0,1,0,55.45,10.06,73.41,73.41,0,0,0-55.45-10.06"></path>
      <path class="cls-24" d="M608.44,708.32A82.12,82.12,0,0,0,650,693.64c.51-.34,1-.7,1.48-1.06l1.15,2.45-1.1.79a84.73,84.73,0,0,1-42.4,15.11ZM546.87,565.26a82.2,82.2,0,0,0-24.36,41.5L520,605.9a85,85,0,0,1,25.11-42.63Zm93.65-12.7a82.83,82.83,0,0,0-23.31-7.84c-1.76-.32-3.53-.57-5.31-.77l.31-2.64c1.84.21,3.66.47,5.48.8a85.45,85.45,0,0,1,23.81,8Z"></path>
      <path class="cls-22" d="M597.54,435.31l11.35-5.83a11.9,11.9,0,0,0,6.24-13,123.69,123.69,0,0,1-2.48-30.36,11.87,11.87,0,0,0-8.28-11.77l-12.13-3.93a12,12,0,0,1-7.77-15.07L592,332.13A12,12,0,0,1,607,324.39l12.15,3.9a11.88,11.88,0,0,0,13.58-4.75,122.83,122.83,0,0,1,19.71-23.23,11.82,11.82,0,0,0,2.45-14.17l-5.82-11.35a12,12,0,0,1,5.19-16.14L676,247.49a12,12,0,0,1,16.15,5.18L698,264a11.9,11.9,0,0,0,13,6.25,123.5,123.5,0,0,1,30.33-2.49,11.86,11.86,0,0,0,11.8-8.27L757,247.35a12,12,0,0,1,15.07-7.72l23.27,7.46a12,12,0,0,1,7.74,15.09l-3.9,12.15A11.87,11.87,0,0,0,804,287.91a124.36,124.36,0,0,1,23.22,19.7,11.86,11.86,0,0,0,14.16,2.48l11.35-5.83a12,12,0,0,1,16.13,5.18L880,331.18a12,12,0,0,1-5.18,16.14l-11.35,5.83a11.9,11.9,0,0,0-6.25,13,122.85,122.85,0,0,1,2.48,30.32A11.9,11.9,0,0,0,868,408.25l12.15,3.9a12,12,0,0,1,7.73,15.08l-7.46,23.25a12,12,0,0,1-15.09,7.76l-12.14-3.92a11.86,11.86,0,0,0-13.59,4.78,123.23,123.23,0,0,1-19.69,23.2,11.87,11.87,0,0,0-2.48,14.19l5.83,11.34A12,12,0,0,1,818,524L796.3,535.15a12,12,0,0,1-16.14-5.2l-5.82-11.35a11.92,11.92,0,0,0-13-6.25A122.89,122.89,0,0,1,731,514.83a11.89,11.89,0,0,0-11.79,8.27l-3.91,12.16A12,12,0,0,1,700.25,543L677,535.52a12,12,0,0,1-7.74-15.07l3.9-12.16a11.9,11.9,0,0,0-4.75-13.59A121.08,121.08,0,0,1,645.17,475,11.84,11.84,0,0,0,631,472.54l-11.37,5.82a12,12,0,0,1-16.13-5.18l-11.17-21.75a12,12,0,0,1,5.2-16.12m85.57-4.12A66.37,66.37,0,1,0,716.29,328a66.3,66.3,0,0,0-33.18,103.19"></path>
      <path class="cls-23" d="M783.18,319.34a84.61,84.61,0,1,1-63.72-11.55,84.39,84.39,0,0,1,63.72,11.55M718.3,302.42a90.09,90.09,0,1,0,67.85,12.3,89.78,89.78,0,0,0-67.85-12.3"></path>
      <path class="cls-24" d="M744.72,491.44a100.47,100.47,0,0,0,50.87-18c.62-.42,1.21-.85,1.81-1.29l1.41,3-1.35,1a103.84,103.84,0,0,1-51.88,18.49Zm-75.34-175a100.59,100.59,0,0,0-29.8,50.78l-3.09-1.05A103.88,103.88,0,0,1,667.22,314ZM784,300.87a101,101,0,0,0-28.52-9.6c-2.16-.39-4.32-.7-6.5-.94l.38-3.23c2.24.25,4.48.57,6.7,1a104.42,104.42,0,0,1,29.13,9.76Z"></path>
      <path class="cls-13" d="M454.45,136V803a35.26,35.26,0,0,0,35.26,35.26h1043.5a13.36,13.36,0,0,0,13.36-13.36V131.46a17.89,17.89,0,0,0-17.88-17.88H476.84A22.4,22.4,0,0,0,454.45,136"></path>
      <g class="cls-25">
        <g class="cls-26">
          <path class="cls-7" d="M455.14,136V803c0,19.47,15.79,35.26,39.5,35.11h1043.5c3.14.15,9.12-5.83,9.12-13.21V131.46a17.89,17.89,0,0,0-17.88-17.88H477.53A22.4,22.4,0,0,0,455.14,136"></path>
        </g>
      </g>
      <path class="cls-9" d="M1546.58,171.75H454.45V118.44a4.87,4.87,0,0,1,4.86-4.86H1542.7a3.88,3.88,0,0,1,3.88,3.88Z"></path>
      <g class="cls-27">
        <g class="cls-28">
          <path class="cls-24" d="M575.38,142.66A12.36,12.36,0,1,1,563,130.3a12.36,12.36,0,0,1,12.36,12.36"></path>
        </g>
      </g>
      <g class="cls-27">
        <g class="cls-29">
          <path class="cls-24" d="M540.25,142.66a12.36,12.36,0,1,1-12.36-12.36,12.36,12.36,0,0,1,12.36,12.36"></path>
        </g>
      </g>
      <g class="cls-27">
        <g class="cls-30">
          <path class="cls-24" d="M505.13,142.66a12.36,12.36,0,1,1-12.36-12.36,12.36,12.36,0,0,1,12.36,12.36"></path>
        </g>
      </g>
      <path class="cls-24" d="M1414,290.58H587a35.27,35.27,0,1,1,0-70.53h827a35.27,35.27,0,0,1,0,70.53"></path>
      <path class="cls-31" d="M1410.88,253.43a15.56,15.56,0,1,1-15.56-15.56A15.52,15.52,0,0,1,1410.88,253.43Z"></path>
      <line class="cls-31" x1="1417.91" y1="272.77" x2="1407.32" y2="264.46"></line>
      <path class="cls-24" d="M1701.07,561.7H1475.79A14.73,14.73,0,0,1,1461.06,547v-38.9A13.92,13.92,0,0,1,1475,494.15h227.08a14.8,14.8,0,0,1,14.8,14.79v37a15.79,15.79,0,0,1-15.79,15.79"></path>
      <path d="M1702.05,562.36H1475.87a15.49,15.49,0,0,1-15.47-15.47V509a15.49,15.49,0,0,1,15.47-15.47h226.18A15.49,15.49,0,0,1,1717.52,509v37.93a15.49,15.49,0,0,1-15.47,15.47m-226.18-67.55A14.16,14.16,0,0,0,1461.72,509v37.93A14.17,14.17,0,0,0,1475.87,561h226.18a14.17,14.17,0,0,0,14.15-14.15V509a14.16,14.16,0,0,0-14.15-14.15Z"></path>
      <path d="M1703.65,497.61a28.32,28.32,0,1,0-16.2,41.72L1705,568.55a7.06,7.06,0,1,0,12.1-7.26l-17.55-29.23a28.32,28.32,0,0,0,4.1-34.45m-15.54,34.66a21.9,21.9,0,1,1,8.43-33.69,21.95,21.95,0,0,1-8.43,33.69"></path>
      <path d="M1472.78,523.61a29.47,29.47,0,1,1,29.46-29.46,29.5,29.5,0,0,1-29.46,29.46m0-56.76a27.3,27.3,0,1,0,27.29,27.3,27.32,27.32,0,0,0-27.29-27.3"></path>
      <path d="M1472.78,523.61c-8.6,0-15.33-12.94-15.33-29.46s6.73-29.47,15.33-29.47,15.31,12.94,15.31,29.47-6.73,29.46-15.31,29.46m0-56.76c-7.14,0-13.16,12.5-13.16,27.3s6,27.29,13.16,27.29,13.15-12.5,13.15-27.29-6-27.3-13.15-27.3"></path>
      <rect x="1444.39" y="493.06" width="56.76" height="2.17"></rect>
      <path d="M1473,481.79c-14.64,0-25.28-1-25.44-1l.21-2.15a303.72,303.72,0,0,0,49.38,0l.19,2.15c-8.57.77-17,1-24.34,1"></path>
      <path d="M1497.19,509.1a301.06,301.06,0,0,0-49.38,0l-.2-2.16a305.82,305.82,0,0,1,49.77,0Z"></path>
      <polygon points="1559.62 519.17 1552.68 540.4 1547.4 540.4 1542.73 526.03 1537.91 540.4 1532.66 540.4 1525.68 519.17 1530.78 519.17 1535.57 534.09 1540.58 519.17 1545.13 519.17 1549.98 534.22 1554.92 519.17 1559.62 519.17"></polygon>
      <polygon points="1594.9 519.17 1587.95 540.4 1582.67 540.4 1578 526.03 1573.18 540.4 1567.93 540.4 1560.96 519.17 1566.06 519.17 1570.85 534.09 1575.85 519.17 1580.4 519.17 1585.25 534.22 1590.19 519.17 1594.9 519.17"></polygon>
      <polygon points="1630.17 519.17 1623.22 540.4 1617.95 540.4 1613.28 526.03 1608.45 540.4 1603.21 540.4 1596.23 519.17 1601.33 519.17 1606.12 534.09 1611.12 519.17 1615.67 519.17 1620.53 534.22 1625.47 519.17 1630.17 519.17"></polygon>
      <path class="cls-24" d="M1414,712.25v79.22l-12.82-13.54h-100a2.56,2.56,0,0,1-2.76-2.29V712.25a2.56,2.56,0,0,1,2.76-2.29h110.06a2.6,2.6,0,0,1,2.8,2.29"></path>
      <path class="cls-32" d="M1414,712.25v79.22l-12.82-13.54h-100a2.56,2.56,0,0,1-2.76-2.29V712.25a2.56,2.56,0,0,1,2.76-2.29h110.06A2.6,2.6,0,0,1,1414,712.25Z"></path>
      <path d="M1414,712.26v5H1298.42v-5a2.57,2.57,0,0,1,2.78-2.29h110a2.57,2.57,0,0,1,2.78,2.29"></path>
      <rect class="cls-24" x="1406.23" y="764.58" width="1.52" height="1.91"></rect>
      <rect class="cls-24" x="1406.23" y="768.69" width="1.52" height="1.91"></rect>
      <rect class="cls-24" x="1406.23" y="772.79" width="1.52" height="1.91"></rect>
      <rect class="cls-24" x="1371.54" y="764.58" width="16.17" height="1.91"></rect>
      <rect class="cls-33" x="1360.36" y="768.25" width="27.34" height="1.91"></rect>
      <rect class="cls-34" x="1368.82" y="772.79" width="3.55" height="1.91"></rect>
      <rect class="cls-34" x="1326.56" y="747.76" width="5.32" height="1.91"></rect>
      <rect class="cls-35" x="1322.68" y="747.76" width="3.04" height="1.91"></rect>
      <rect class="cls-36" x="1347.48" y="768.25" width="2.24" height="1.91"></rect>
      <rect class="cls-33" x="1350.86" y="768.25" width="8.45" height="1.91"></rect>
      <rect class="cls-24" x="1358.51" y="764.58" width="5.24" height="1.91"></rect>
      <rect class="cls-24" x="1406.23" y="719.09" width="1.52" height="1.91"></rect>
      <rect class="cls-24" x="1406.23" y="723.19" width="1.52" height="1.91"></rect>
      <rect class="cls-24" x="1406.23" y="727.29" width="1.52" height="1.91"></rect>
      <rect class="cls-24" x="1406.23" y="731.4" width="1.52" height="1.91"></rect>
      <rect class="cls-24" x="1406.23" y="735.5" width="1.52" height="1.91"></rect>
      <rect class="cls-24" x="1406.23" y="739.6" width="1.52" height="1.91"></rect>
      <rect class="cls-24" x="1406.23" y="743.7" width="1.52" height="1.91"></rect>
      <rect class="cls-24" x="1406.23" y="747.8" width="1.52" height="1.91"></rect>
      <rect class="cls-24" x="1406.23" y="751.91" width="1.52" height="1.91"></rect>
      <rect class="cls-24" x="1406.23" y="756.01" width="1.52" height="1.91"></rect>
      <rect class="cls-24" x="1390.11" y="719.09" width="7.58" height="1.91"></rect>
      <rect class="cls-37" x="1384.87" y="722.75" width="12.82" height="1.91"></rect>
      <rect class="cls-34" x="1393.91" y="727.29" width="3.79" height="1.91"></rect>
      <rect class="cls-34" x="1389.3" y="731.4" width="5.69" height="1.91"></rect>
      <rect class="cls-34" x="1389.3" y="735.5" width="5.69" height="1.91"></rect>
      <rect class="cls-34" x="1392.42" y="739.6" width="5.69" height="1.91"></rect>
      <rect class="cls-34" x="1392.78" y="743.7" width="2.21" height="1.91"></rect>
      <rect class="cls-34" x="1336.25" y="735.5" width="11.35" height="1.91"></rect>
      <rect class="cls-24" x="1382.44" y="735.5" width="5.69" height="1.91"></rect>
      <rect class="cls-33" x="1349.63" y="735.5" width="29.12" height="1.91"></rect>
      <rect class="cls-35" x="1385.15" y="731.4" width="3.25" height="1.91"></rect>
      <rect class="cls-36" x="1355.88" y="731.4" width="6.48" height="1.91"></rect>
      <rect class="cls-33" x="1326.13" y="731.4" width="28.53" height="1.91"></rect>
      <rect class="cls-37" x="1310.75" y="731.4" width="14.04" height="1.91"></rect>
      <rect class="cls-33" x="1364.25" y="731.4" width="20.08" height="1.91"></rect>
      <rect class="cls-33" x="1334.92" y="722.6" width="20.08" height="1.91"></rect>
      <rect class="cls-33" x="1384.79" y="743.7" width="6.86" height="1.91"></rect>
      <rect class="cls-36" x="1367.9" y="743.7" width="5.06" height="1.91"></rect>
      <rect class="cls-24" x="1355.29" y="747.8" width="19" height="1.91"></rect>
      <rect class="cls-33" x="1332.9" y="747.8" width="21.54" height="1.91"></rect>
      <rect class="cls-24" x="1373.91" y="743.7" width="10.07" height="1.91"></rect>
      <rect class="cls-36" x="1357.94" y="722.75" width="4.77" height="1.91"></rect>
      <rect class="cls-33" x="1365.14" y="722.75" width="18.01" height="1.91"></rect>
      <rect class="cls-34" x="1391.2" y="747.8" width="3.79" height="1.91"></rect>
      <rect class="cls-36" x="1375.62" y="747.8" width="6.01" height="1.91"></rect>
      <rect class="cls-35" x="1382.85" y="747.8" width="7.22" height="1.91"></rect>
      <rect class="cls-24" x="1382.89" y="719.09" width="5.6" height="1.91"></rect>
      <rect class="cls-24" x="1387.41" y="752.35" width="7.58" height="1.91"></rect>
      <rect class="cls-34" x="1383.97" y="756.01" width="11.02" height="1.91"></rect>
      <rect class="cls-33" x="1362.98" y="756.01" width="11.43" height="1.91"></rect>
      <rect class="cls-35" x="1375.62" y="756.01" width="7.22" height="1.91"></rect>
      <rect class="cls-24" x="1381.99" y="752.35" width="3.79" height="1.91"></rect>
      <path class="cls-38" d="M1396.13,714.12a1.37,1.37,0,1,1,1.34,1.1,1.24,1.24,0,0,1-1.34-1.1"></path>
      <path class="cls-39" d="M1400.4,714.12a1.36,1.36,0,1,1,1.34,1.1,1.24,1.24,0,0,1-1.34-1.1"></path>
      <path class="cls-24" d="M1404.79,714.12a1.36,1.36,0,1,1,1.34,1.1,1.24,1.24,0,0,1-1.34-1.1"></path>
      <path class="cls-24" d="M1407.44,686.31h62.13a2.94,2.94,0,0,1,2.94,2.93V727.3a2.94,2.94,0,0,1-2.94,2.93h-62.13a2.93,2.93,0,0,1-2.94-2.93V689.24a2.93,2.93,0,0,1,2.94-2.93"></path>
      <path class="cls-32" d="M1407.44,686.31h62.13a2.94,2.94,0,0,1,2.94,2.93V727.3a2.94,2.94,0,0,1-2.94,2.93h-62.13a2.93,2.93,0,0,1-2.94-2.93V689.24a2.93,2.93,0,0,1,2.94-2.93"></path>
      <path d="M1407.44,686.31h62.13a2.94,2.94,0,0,1,2.94,2.93v3h-68v-3a2.93,2.93,0,0,1,2.94-2.93"></path>
      <path class="cls-40" d="M1460.75,687.62a1.67,1.67,0,1,1-1.68,1.67,1.67,1.67,0,0,1,1.68-1.67"></path>
      <path class="cls-41" d="M1465.11,687.62a1.67,1.67,0,1,1-1.67,1.67,1.68,1.68,0,0,1,1.67-1.67"></path>
      <path class="cls-42" d="M1469.59,687.62a1.67,1.67,0,1,1-1.67,1.67,1.67,1.67,0,0,1,1.67-1.67"></path>
      <polygon points="1422.08 708.94 1415.16 708.94 1415.16 702.97 1413.32 702.97 1413.32 717.25 1415.16 717.25 1415.16 710.55 1422.08 710.55 1422.08 717.25 1423.94 717.25 1423.94 702.97 1422.08 702.97 1422.08 708.94"></polygon>
      <polygon points="1425.52 704.54 1429.86 704.54 1429.86 717.25 1431.73 717.25 1431.73 704.54 1436.1 704.54 1436.1 702.97 1425.52 702.97 1425.52 704.54"></polygon>
      <path d="M1448.66,703l-2.55,6.9c-.63,1.81-1.14,3.37-1.5,4.81h-.07c-.36-1.48-.85-3-1.44-4.81l-2.44-6.9h-2.35l-1,14.28h1.76l.38-6.12c.13-2.14.24-4.54.28-6.32h0c.4,1.7,1,3.54,1.65,5.55l2.32,6.8h1.4l2.52-6.92c.72-2,1.32-3.75,1.8-5.43h.07c0,1.78.1,4.18.21,6.17l.36,6.27h1.8L1451,703Z"></path>
      <polygon points="1456.59 702.97 1454.75 702.97 1454.75 717.25 1462.7 717.25 1462.7 715.7 1456.59 715.7 1456.59 702.97"></polygon>
      <path class="cls-24" d="M1382.6,632.43h63a3,3,0,0,1,3,3V674a3,3,0,0,1-3,3h-63a3,3,0,0,1-3-3V635.4a3,3,0,0,1,3-3"></path>
      <path class="cls-32" d="M1382.6,632.43h63a3,3,0,0,1,3,3V674a3,3,0,0,1-3,3h-63a3,3,0,0,1-3-3V635.4a3,3,0,0,1,3-3"></path>
      <path d="M1382.6,632.43h63a3,3,0,0,1,3,3v3.08h-68.94V635.4a3,3,0,0,1,3-3"></path>
      <path class="cls-40" d="M1436.64,633.76a1.7,1.7,0,1,1-1.7,1.69,1.7,1.7,0,0,1,1.7-1.69"></path>
      <path class="cls-41" d="M1441.06,633.76a1.7,1.7,0,1,1-1.69,1.69,1.7,1.7,0,0,1,1.69-1.69"></path>
      <path class="cls-42" d="M1445.6,633.76a1.7,1.7,0,1,1-1.69,1.69,1.7,1.7,0,0,1,1.69-1.69"></path>
      <path d="M1404.38,659.76l2.09.52a7,7,0,0,1-2.37,3.94,6.48,6.48,0,0,1-4.18,1.36,7.58,7.58,0,0,1-4.17-1,6.58,6.58,0,0,1-2.44-3,10.78,10.78,0,0,1-.84-4.25,9.36,9.36,0,0,1,1-4.32,6.42,6.42,0,0,1,2.69-2.79,7.82,7.82,0,0,1,3.84-1,6.49,6.49,0,0,1,4,1.21,6.26,6.26,0,0,1,2.25,3.4l-2.06.49a4.94,4.94,0,0,0-1.6-2.52,4.3,4.3,0,0,0-2.63-.79,5.1,5.1,0,0,0-3.06.88,4.55,4.55,0,0,0-1.72,2.35,9.45,9.45,0,0,0-.5,3,9.74,9.74,0,0,0,.59,3.53,4.39,4.39,0,0,0,1.83,2.25,5.13,5.13,0,0,0,2.69.75,4.52,4.52,0,0,0,3-1,5.23,5.23,0,0,0,1.65-3"></path>
      <path d="M1408.34,660.22l2-.17a4.37,4.37,0,0,0,.66,2,3.51,3.51,0,0,0,1.59,1.23,6.09,6.09,0,0,0,2.43.47,5.78,5.78,0,0,0,2.12-.36,2.93,2.93,0,0,0,1.37-1,2.35,2.35,0,0,0,.44-1.36,2,2,0,0,0-.43-1.3,3.2,3.2,0,0,0-1.42-.94c-.43-.16-1.37-.42-2.82-.77a14.27,14.27,0,0,1-3.06-1,4.33,4.33,0,0,1-1.69-1.47,3.65,3.65,0,0,1-.56-2,4.06,4.06,0,0,1,.68-2.24,4.23,4.23,0,0,1,2-1.58,7.54,7.54,0,0,1,2.91-.54,7.9,7.9,0,0,1,3.1.57,4.37,4.37,0,0,1,2.07,1.67,4.82,4.82,0,0,1,.78,2.49l-2,.15a3.25,3.25,0,0,0-1.1-2.27,4.27,4.27,0,0,0-2.76-.76,4.45,4.45,0,0,0-2.77.69,2.1,2.1,0,0,0-.87,1.68,1.82,1.82,0,0,0,.62,1.41,8.3,8.3,0,0,0,3.16,1.13,20.1,20.1,0,0,1,3.5,1,4.75,4.75,0,0,1,2,1.61,4,4,0,0,1,.65,2.26,4.33,4.33,0,0,1-.72,2.38,4.85,4.85,0,0,1-2.08,1.74,7.29,7.29,0,0,1-3.05.62,9.09,9.09,0,0,1-3.61-.63,5.08,5.08,0,0,1-2.28-1.88,5.37,5.37,0,0,1-.87-2.85"></path>
      <path d="M1423.1,660.22l2-.17a4.37,4.37,0,0,0,.66,2,3.51,3.51,0,0,0,1.59,1.23,6.09,6.09,0,0,0,2.43.47,5.78,5.78,0,0,0,2.12-.36,2.93,2.93,0,0,0,1.37-1,2.35,2.35,0,0,0,.44-1.36,2,2,0,0,0-.43-1.3,3.2,3.2,0,0,0-1.42-.94c-.43-.16-1.37-.42-2.82-.77a14.27,14.27,0,0,1-3.06-1,4.33,4.33,0,0,1-1.69-1.47,3.65,3.65,0,0,1-.56-2,4.06,4.06,0,0,1,.68-2.24,4.23,4.23,0,0,1,2-1.58,7.54,7.54,0,0,1,2.91-.54,7.9,7.9,0,0,1,3.1.57,4.37,4.37,0,0,1,2.07,1.67,4.82,4.82,0,0,1,.78,2.49l-2,.15a3.25,3.25,0,0,0-1.1-2.27,4.27,4.27,0,0,0-2.76-.76,4.45,4.45,0,0,0-2.77.69,2.1,2.1,0,0,0-.87,1.68,1.82,1.82,0,0,0,.62,1.41,8.3,8.3,0,0,0,3.16,1.13,20.1,20.1,0,0,1,3.5,1,4.75,4.75,0,0,1,2,1.61,4,4,0,0,1,.65,2.26,4.33,4.33,0,0,1-.72,2.38,4.85,4.85,0,0,1-2.08,1.74,7.29,7.29,0,0,1-3.05.62,9.09,9.09,0,0,1-3.61-.63,5.08,5.08,0,0,1-2.28-1.88,5.37,5.37,0,0,1-.87-2.85"></path>
      <path class="cls-43" d="M1677.9,1258.69s2.15,14.73-4.15,21.09-19.38,5.44-19.38,5.44l-8-10.65,24.21-24.26Z"></path>
      <path class="cls-43" d="M1680.59,1261.55C1661.94,1260.33,1648,1277,1648,1277l-1.9-2.54,24.55-24.12Z"></path>
      <path class="cls-44" d="M1676.21,1261.3a10.29,10.29,0,0,1,.61-7.56c19.62,3.78,30.32,21.76,30.32,21.76-1.23,4.49-18.12,26.36-18.12,26.36s-.69-1.63-6.7-.49-8.76,19.53-8.76,19.53l-34.24,28.82a21.52,21.52,0,0,1-6.61-10.93c-1.43-6.65,5.93-11,11-19.27s5.63-38.38,5.63-38.38c26.18-.57,28.19-15.64,26.9-19.84"></path>
      <path class="cls-24" d="M1699.46,1266.16a51.17,51.17,0,0,1,7.68,9.34c-1.23,4.49-18.12,26.36-18.12,26.36s-.69-1.63-6.7-.5-8.76,19.54-8.76,19.54l-34.24,28.82a22,22,0,0,1-4.13-4.93c2.91-2.29,28.44-22.53,34.33-31.72,6.21-9.7,29.79-41.14,29.94-46.91"></path>
      <path class="cls-45" d="M1658.42,1280.21l0,.16c1.55,6.84-3.54,31.38-5.14,37.22s-9.64,1.93-9.64,1.93c5-8.3,5.62-38.38,5.62-38.38a53.88,53.88,0,0,0,9.12-.93"></path>
      <path class="cls-24" d="M1646.7,1310.85a11.61,11.61,0,0,0,3.93.73,1,1,0,0,1,1.17.84,1,1,0,0,1,0,.42,1,1,0,0,1-.83.73c-1.73.27-4.6-.71-4.92-.82a1,1,0,0,1-.62-1.29,1,1,0,0,1,1.3-.61"></path>
      <path class="cls-24" d="M1647.55,1305.12a11.44,11.44,0,0,0,3.91.87,1,1,0,0,1,1.27.69,1.14,1.14,0,0,1,0,.55,1,1,0,0,1-.7.7c-1.36.4-4.32-.6-5.19-.91a1,1,0,0,1-.61-1.3,1,1,0,0,1,1.31-.6"></path>
      <path class="cls-24" d="M1648.47,1298.93a18.39,18.39,0,0,0,3.81.88,1.06,1.06,0,0,1,1.16.84,1.08,1.08,0,0,1,0,.44,1,1,0,0,1-.74.7c-1,.19-3.44-.5-4.82-.94a1,1,0,0,1-.67-1.26,1,1,0,0,1,1.29-.66"></path>
      <path class="cls-24" d="M1649.29,1292.35a6.6,6.6,0,0,0,3.71,1,1,1,0,0,1,1.19.81,1.12,1.12,0,0,1,0,.45,1,1,0,0,1-.8.73c-2.29.42-4.85-1.06-5.13-1.23a1,1,0,0,1-.35-1.38,1,1,0,0,1,1.4-.35"></path>
      <path class="cls-43" d="M1547.4,1307.62s-8.9,12-17.91,12.2-17.7-9.5-17.7-9.5l1.84-13.13,34.49-.61Z"></path>
      <path class="cls-43" d="M1547.29,1311.52c-12.46-13.76-34.24-11.53-34.24-11.53l.44-3.14,34.63-.27Z"></path>
      <path class="cls-44" d="M1544.35,1308.31a10.52,10.52,0,0,1,5.78-5c11.34,16.26,6.25,36.49,6.25,36.49-4.06,2.37-31.63,6.33-31.63,6.33s.67-1.65-4.43-5-20.1,7.91-20.1,7.91l-44.89-3.07a21.31,21.31,0,0,1,3-12.37c3.69-5.75,12-3.74,21.48-6.19s31.22-23.54,31.22-23.54c19.12,17.68,31.23,8.31,33.29,4.41"></path>
      <path class="cls-24" d="M1557.51,1327.85a50.52,50.52,0,0,1-1.13,12c-4.06,2.36-31.63,6.33-31.63,6.33s.67-1.65-4.43-5-20.1,7.91-20.1,7.91l-44.89-3.07a21.59,21.59,0,0,1,.55-6.37c3.69.37,36.28,3.55,47,1,11.31-2.64,50.43-8.81,54.63-12.83"></path>
      <path class="cls-45" d="M1518.23,1309.54l-.08.13c-3.74,6-24.76,20-30.05,23s-8.26-5.28-8.26-5.28c9.49-2.46,31.22-23.54,31.22-23.54a53.74,53.74,0,0,0,7.17,5.64"></path>
      <path class="cls-24" d="M1488.16,1323.33a11,11,0,0,0,2.28,3.23,1,1,0,0,1,.24,1.41,1,1,0,0,1-1.43.23c-1.43-1-2.78-3.68-2.93-4a1,1,0,0,1,.47-1.34,1,1,0,0,1,1.37.46"></path>
      <path class="cls-24" d="M1492.82,1319.82a11.37,11.37,0,0,0,2.17,3.33,1,1,0,0,1,.42,1.36,1,1,0,0,1-.38.4,1,1,0,0,1-1,0c-1.26-.66-2.67-3.41-3.07-4.24a1,1,0,0,1,.48-1.34,1,1,0,0,1,1.37.47"></path>
      <path class="cls-24" d="M1497.86,1316a17.52,17.52,0,0,0,2.1,3.26,1,1,0,0,1,.23,1.4.94.94,0,0,1-.33.3,1,1,0,0,1-1,0c-.83-.53-2.1-2.73-2.78-4a1,1,0,0,1,.43-1.36,1,1,0,0,1,1.38.41"></path>
      <path class="cls-24" d="M1503.11,1311.9a6.42,6.42,0,0,0,2,3.25,1,1,0,0,1,.27,1.4,1,1,0,0,1-.33.31,1,1,0,0,1-1.09,0c-1.92-1.28-2.71-4.1-2.79-4.42a1,1,0,0,1,.73-1.23,1,1,0,0,1,1.25.72"></path>
      <polygon class="cls-46" points="1391.14 906.28 1506.46 908.84 1508.53 870.83 1369.61 882.03 1391.14 906.28"></polygon>
      <path class="cls-47" d="M1464.57,741.79s-7.16,19.42-7.65,47.19-16.06,87-16.24,88.27,29.58,32.58,36.12,29.73-12.23-165.19-12.23-165.19"></path>
      <path class="cls-48" d="M1447.67,950.9c.27,5.39,53.72,352.81,53.72,352.81l53.8-4.37-18-350.6Z"></path>
      <path class="cls-49" d="M1491.22,968.43c-.42.11,9.65,93.13,14.22,135.17a72.58,72.58,0,0,0,14.62,36.38l111.77,148.39,39.25-39.73-94.95-142.27,12.78-154.06L1520.08,907Z"></path>
      <path class="cls-50" d="M1589.61,942.41s5.81,9.23,5.81,16c0,7.33-4.13,11-4.13,11-8.45-15.41-24-20.56-36.41-24.64s-25.08,13-42.23,20.56c-8.82,3.9-25.76,0-40.13-4.78a263.35,263.35,0,0,1-24.85-9.69,26.23,26.23,0,0,1-2.23-11.21c0-6.92,15.77-95.55,15.77-95.55s-3-91.31,4.13-104.16,32.52-20.44,32.52-20.44l49.81-7.07c36.08-1.16,49.39,18.43,49.39,18.43l.16,61.69.17,70.94Z"></path>
      <path class="cls-47" d="M1589.61,942.41s5.81,9.23,5.81,16c0,7.33-4.13,11-4.13,11-8.45-15.41-24-20.56-36.41-24.64s-25.08,13-42.23,20.56c-8.82,3.9-25.76,0-40.13-4.78,22.22-1.5,44.08-11.87,50.55-21.87,9.46-14.61,35.26-16.85,42.68-36.87s-4.28-37.49-8.67-53.13,9.78-76.43,9.78-76.43l30.36,20.3.17,70.94Z"></path>
      <path class="cls-46" d="M1586.8,797.23c-1.51.93-25.11,71.21-25.11,71.21l-72-7.33c-4.9,7.63.21,7.57,3.73,24.43,0,0,81.37,26.41,95.92,23s30.38-76.6,30.38-76.6Z"></path>
      <path class="cls-50" d="M1591.7,725.06s38.33,26.37,28.37,137.11a12,12,0,0,1-15.75,10.16c-16.48-5.54-41.42-14-41.17-14.69.38-1,4.22-98.1,4.22-98.1Z"></path>
      <path class="cls-24" d="M1562.85,846.23s58.61,18.48,61.1,21.65-4,8.27-3.56,11.17-1,8.43-4.49,10.27-58.17-24.62-58.77-27.15,5.19-6.58,4.59-8.41-.49-6.81,1.13-7.53"></path>
      <path d="M1303.83,786.26c0,.15-1.26,2.81-1.26,2.81,10.06,18.95,46.61,87.59,46.61,87.59l44.93,21.51,94.75-4.12v-5.73l-42.66-21.68-69,1.68-37.06-72.48a6.77,6.77,0,0,0-4.76-3.55Z"></path>
      <path class="cls-51" d="M1394.11,898.17c-.14.06-1.23-1.59-2.86-4.32s-3.83-6.52-6.19-10.75-4.44-8.08-5.9-10.9-2.29-4.6-2.15-4.67,1.22,1.57,2.85,4.3,3.83,6.53,6.2,10.76,4.44,8.1,5.9,10.92,2.29,4.59,2.15,4.66"></path>
      <polygon class="cls-49" points="1404.11 888.8 1450.03 887.31 1415.38 869.47 1378.28 870.29 1404.11 888.8"></polygon>
      <path class="cls-5" d="M1488.86,888.09a3.26,3.26,0,0,1-1,.12l-2.84.13-10.47.33c-8.83.28-21,.81-34.51,1.41s-25.7,1-34.54,1.06c-4.43,0-8,0-10.48,0l-2.85-.1a3.12,3.12,0,0,1-1-.11,3.42,3.42,0,0,1,1-.13l2.85-.12,10.46-.33c8.84-.29,21-.82,34.52-1.41s25.69-1,34.54-1.07c4.42,0,8,0,10.47,0l2.85.09a3.26,3.26,0,0,1,1,.12"></path>
      <path class="cls-5" d="M1387.53,895a7.84,7.84,0,0,1-.78-1.27l-2-3.73-7.31-13.83-23.74-45.81L1336,795.8l.33.25-24.52-4.93-6.83-1.45a18.28,18.28,0,0,1-2.4-.6,15.12,15.12,0,0,1,2.45.32l6.88,1.2,24.6,4.54.23,0,.11.21c5.14,10,11.26,21.8,17.83,34.5,9.13,17.89,17.39,34.09,23.45,46,2.9,5.82,5.28,10.57,7,14,.76,1.58,1.37,2.85,1.85,3.83a6.59,6.59,0,0,1,.57,1.37"></path>
      <path class="cls-46" d="M1360.18,869.69s1.91-1.89,5.72,2.93,10.18,18.85,10.18,18.85l7,3.14s-6.15-7.12-6.15-10.05,4.66-2.94,7.21,1.25,10,12.36,10,12.36-2.34,8.47-3,8.11-12.3-1-12.3-1l-3.18-1.47s-7.85,0-8.27-2.09S1354,890.84,1354,889V876.81s-5.94-14.24-4.67-15.71,6.58-4.6,10.82,8.59"></path>
      <path class="cls-52" d="M1361,869.47c0,.06-.23,0-.56.17a1.2,1.2,0,0,0-.7,1.2v-.07c.49,1.54,1.08,3.92,1.72,6.84s1.35,6.38,2.44,9.95a17.94,17.94,0,0,0,3.73,6.41l3.87,4.93c2.18,2.84,3.46,4.64,3.34,4.73s-1.62-1.53-4-4.23c-1.23-1.46-2.59-3.07-4.06-4.79a32.48,32.48,0,0,1-2.28-3,15.54,15.54,0,0,1-1.71-3.72,89.37,89.37,0,0,1-2.3-10.1l-1.29-6.9v-.07a1.5,1.5,0,0,1,1.14-1.45c.44-.06.64.06.64.09"></path>
      <path class="cls-52" d="M1359.13,894.09c-.3.09-1.69-3.71-3.09-8.49s-2.31-8.71-2-8.79,1.68,3.71,3.09,8.48,2.3,8.71,2,8.8"></path>
      <path class="cls-52" d="M1380.87,882.88c0,.08-.32.11-.86.17a2.85,2.85,0,0,0-1.87.74c-.53.57-.31,1.64.26,2.75s1.19,2.48,1.81,3.79l1.85,3.71c.63,1.09,1.31,2,1.84,2.86,1.1,1.65,1.56,2.81,1.42,2.88a15.54,15.54,0,0,1-2.06-2.42,31.54,31.54,0,0,1-2.09-2.79c-.62-1.15-1.3-2.43-2-3.78s-1.17-2.58-1.73-3.83a5.67,5.67,0,0,1-.53-1.92,2.24,2.24,0,0,1,.62-1.78,3,3,0,0,1,2.46-.64c.57.08.86.19.86.26"></path>
      <path class="cls-46" d="M1423.58,866.39a5.29,5.29,0,0,1,2.75-5.14c3.27-2,10.14-6.4,10.14-6.4l20.8-1.87,39.22,8.83,1.37,24.54s-20,1.08-24.61.92-17.53-4.25-17.53-4.25-21.66,2.72-22.69,1.53-2.4-2.55-1-3.4,18-5.09,18-5.09l-11.17-.85s-16.33,3.4-17.53,2.89-2.76-2.55-1.72-4.07l1-1.53s-1-3.06,1.72-4.24l1.54-.51Z"></path>
      <path class="cls-52" d="M1453.23,866.08c0,.11-1.86.7-5,.83s-7.51-.26-12,1a59.91,59.91,0,0,0-6.12,2.55,47.31,47.31,0,0,1-5.19,1.86,17.8,17.8,0,0,1-5,1,49.67,49.67,0,0,1,4.76-1.65c1.46-.52,3.17-1.18,5-2A52.21,52.21,0,0,1,1436,867a23.61,23.61,0,0,1,6.76-.86c2.08,0,3.93.07,5.48.07,3.11,0,5-.29,5-.14"></path>
      <path class="cls-52" d="M1451.42,860.31c0,.12-1.68.59-4.49.57s-6.62-.37-10.47,1.35-7.39,3.15-10,4.16a21,21,0,0,1-4.25,1.49c-.06-.12,1.46-.92,4-2.11s6-2.82,9.89-4.44a16.84,16.84,0,0,1,6-1.31c1.87,0,3.52.11,4.9.18,2.75.19,4.44,0,4.47.11"></path>
      <path d="M1477.07,666.34s-18.42-44-11.57-59.66,25.28-18.19,41.13-12.27,38,3.29,46.28,16.92c5.14,8.47,17.56,17.77-2.15,66.43s-73.69-11.42-73.69-11.42"></path>
      <path class="cls-53" d="M1520.52,735.5l-2.59.49c-9,0-21.53-5.71-14.78-26l1-50.62a16.34,16.34,0,0,1,16.39-16.19h8.67a16.34,16.34,0,0,1,16.39,16.19l1,43.95c0,13.62-12.23,32.2-26,32.2"></path>
      <g class="cls-10">
        <g class="cls-54">
          <path class="cls-55" d="M1546,676.22l-.37-16.87a16.33,16.33,0,0,0-16.39-16.18h-8.67a16.33,16.33,0,0,0-16.39,16.18l-1,50.62a39.69,39.69,0,0,0-1.46,5.68,27.81,27.81,0,0,0,5.48,1.14c9.31.88,28.68-13.78,38.78-40.57"></path>
        </g>
      </g>
      <path class="cls-53" d="M1542.85,658.71c-3.1,22.14-14.36,44-41.79,43.17-18.35-.57-21.57-21-24.73-43.17-4.4-30.87,6.37-48.22,24.73-48.22s48.85-2.12,41.79,48.22"></path>
      <path d="M1468.07,612.6c24,44.43,48.9,24.81,61.27,28.77,15.86,5.08,17.57,29.2,17.57,29.2l2.57-52.47-38.56-15.23Z"></path>
      <path d="M1529.34,641.37c11.57,2.54,8.36,17.19,6.75,25.76,3,2.11,2,6.24,1.12,10.47s5.09-8.78,4.67-15.55,4.76-8.51,8.19-11.9-16.44-16-16.44-16l-4.29,5.5Z"></path>
      <path d="M1555.91,622.86a1,1,0,0,1-.3,0,1,1,0,0,1-.64-1.13c.15-.62,3.44-15.31-11.8-20.46a1,1,0,0,1-.6-1.2,1,1,0,0,1,1.22-.6c9.5,3.21,12.46,9.92,13.22,15.22a17.37,17.37,0,0,0,.1-6.5.94.94,0,0,1,.74-1.13,1,1,0,0,1,1.14.73c1.34,6.15-2,14.19-2.19,14.53a1,1,0,0,1-.89.58"></path>
      <path class="cls-56" d="M399.86,1350s43-19.56,36.59-49.82-41.31-27.09-36.59-51,27.66-61.11,5.36-88.2-59.41-10.85-64.07-52.84c-3.74-33.85-19.38-57.82-49.69-50.8-28,6.51-49,28.23-49.48,79.88-.56,55-39.3,39.55-39.78,80.07-.49,40.81,32,40.81,44.73,68.19,6,12.94-9.65,58.37,36.57,64.51Z"></path>
      <path class="cls-57" d="M296.16,1079.4s-.11.93-.26,2.72c-.49,5.42-1.47,18.62-1.47,37,0,53.79,8.47,152.06,62,230.5a2.35,2.35,0,0,1-3.89,2.64c-54.41-79.8-62.82-178.87-62.84-233.14a394.45,394.45,0,0,1,1.77-40.25,2.35,2.35,0,1,1,4.66.53"></path>
      <path class="cls-58" d="M344,1349.94s6.95-38.46-19.15-54.11S272.06,1268,275,1242.77s-4.21-55-46-55.56c-25.86-.34-16.15-27.59-42.41-33-16-3.29-26.5,13.36-28.54,29.73-2.33,18.64,8.24,36.95-3.88,52.14-15.7,19.66-22.07,56.34,11.67,66.77s3.68,42.39,49.64,47.12Z"></path>
      <path class="cls-57" d="M188.26,1172.45c.87,24.5,11.75,59.37,30.34,92.63s44.85,65,76.24,83.72a2.41,2.41,0,1,1-2.46,4.14c-32.44-19.33-59.11-51.68-78-85.5s-30-69.13-31-94.8a2.42,2.42,0,0,1,4.84-.19"></path>
      <path class="cls-59" d="M2047.59,606.52s-2.29,17.35-5.88,20.69c-7.4,6.9-6.64,33.21-2.3,36.27s18.91,4.86,18.91,4.86v42.4h45.21l-17.37-75.86Z"></path>
      <path class="cls-59" d="M2058.52,872.87c7.26,5.62,42.95,37.43,36.44,115.7a3.74,3.74,0,0,0,0,.58l7.38,97.33a3.72,3.72,0,0,0,.84,2.09c6.68,8.14,56.77,72,90,198.79a3.74,3.74,0,0,1-2.15,4.39,144.8,144.8,0,0,1-20.17,6.45,3.77,3.77,0,0,1-4.09-1.59l-111.8-172.92a78.72,78.72,0,0,1-12.42-37.33l-13.68-200a3.72,3.72,0,0,0-3.11-3.44,3.75,3.75,0,0,1,.2-7.42l29.89-3.4a3.74,3.74,0,0,1,2.72.76"></path>
      <path class="cls-59" d="M2122.55,747c1.25,0,9.93,55.22,9.35,56.84-2.14,6-66-7.37-66-7.37l-4,17.06s27.86,13.53,57.83,18.42c30.92,5,42.49-8.65,42.63-29.62.14-19.22-7.81-66-7.81-66Z"></path>
      <path class="cls-49" d="M1917.64,717.06c7.58,11.23,16.15,21.71,24.83,32.06,4.47,5.1,66.74,73.8,71.35,78.74l6.87,7.5a12.86,12.86,0,0,0,10.46,4.55c4.6,0,8.66-3.33,9.27-7.59A11.14,11.14,0,0,0,2037,822l-7-7.34c-4.65-4.93-67.52-73.16-72.33-78-9.81-9.45-17.52-20.86-28.45-29.38-2.41-2-8.51.49-10.81,2.87a5.33,5.33,0,0,0-.74,6.84"></path>
      <path class="cls-59" d="M2000.83,877s-14.59,50.27-27,170.5c-2.37,22.93,5.33,57.61,9.14,79l38,194.19,25.93,3.69c6.07-93.31-3.62-209.49-12.18-246.59l56.42-174.91Z"></path>
      <path class="cls-49" d="M2161.05,1289.62l10.22-4.58a5.64,5.64,0,0,1,5.13,1.72c6.12,6.14,9,2.72,12.67-5,3.11-1.09,4.84,2.86,5.33,3.92l11.15,23.29a4,4,0,0,1-1.35,5.27,3.16,3.16,0,0,1-1,.36l-26.49,5.56-30.88,1.71c-10.11,2.12-14.61-8.9-10.67-10.84,17.76-8.59,21.3-8.61,25.81-16,.85-1.3-.43-1.87.05-5.44"></path>
      <path class="cls-49" d="M2019.7,1316.56h8.41a6,6,0,0,1,4.78,2.5c4.85,6.63,8.5,4.12,13.77-2.1,3.35-.4,4.26,3.45,4.53,4.49l6.28,22.86a3.59,3.59,0,0,1-2.46,4.45,3.74,3.74,0,0,1-1.05.14h-66.62c-10.59,0-12.79-10.68-8.43-11.67,19.63-4.34,33.53-10.11,39.59-15.82,1.13-1,0-1.75,1.2-4.85"></path>
      <path class="cls-60" d="M2117.24,849.2s22.46,54.14,18.44,91.71-12.13,135.15-12.13,135.15H1967s3.7-56.72,8.22-85.37,15.51-99.34,30.5-127.33,111.54-14.16,111.54-14.16"></path>
      <g class="cls-61">
        <g class="cls-62">
          <path d="M2051.22,1026c10.22-45,27.77-57.35,34.46-65.25l-39.92,89.14Z"></path>
        </g>
      </g>
      <path class="cls-63" d="M2008.11,708.12a203.48,203.48,0,0,0-16.86,43.15l48.49,9.14s10.68-50.11,5.46-62.54c-4.84-11.54-8.32-6-25.8.38a20.92,20.92,0,0,0-11.29,9.87"></path>
      <path class="cls-63" d="M2134.39,756.37l14.72-50.21c-9.31-13.9-55.4-24.58-55.4-24.58l-30.36,1.66s-11.67,2.6-21.66,5.86c-13.34,4.35-20.55,7.85-23.73,15.25a457.27,457.27,0,0,0,2,61.14c.92,9.29-1.16,47.38-3.76,63.33l-14.84,39c86.16,35.9,125.15-1.26,125.15-1.26-2.5-7.63-8.42-27.59-9.54-35,.81-9.52,1.25-13.47,5.28-30.13.78-3.21,10.82-41.86,12.17-45"></path>
      <path class="cls-63" d="M2145.28,702.09c10.8,5.88,15.84,44.18,15.84,44.18l-37.65,16.31s-14.58-32.8-8.35-47.33c5.31-12.26,16.46-20.65,30.16-13.16"></path>
      <path class="cls-59" d="M1995.46,752.06l-13.73,34.46L1958,755.21,1939.37,763s14.57,24.46,26.07,49.22c12.24,26.35,28.78,21.77,38.77,3.33,9.15-16.9,24.41-57.23,24.41-57.23Z"></path>
      <path class="cls-59" d="M1926.33,738.84c.13,3.24,10.52,19.62,10.52,19.62l12.4,22.29,12.85-19.14-5.72-8.24c1.8-2.73,4.14-12.64,2.78-15.81a16.59,16.59,0,0,0-4.84-5.91h-1.63s-.1,6.68-4.41,6.94a51.18,51.18,0,0,1-13.75-1.75c-2.85-1-8.2-7.13-8.2-7.13a4.08,4.08,0,0,0-1.4,3.71,8.3,8.3,0,0,0,1.8,4.18Z"></path>
      <g class="cls-64">
        <g class="cls-65">
          <path class="cls-24" d="M1793.44,691.72a91.79,91.79,0,0,0,102.78,30.67,90.8,90.8,0,0,0,26-14.15,91.91,91.91,0,1,0-128.94-16.53Z"></path>
        </g>
      </g>
      <g class="cls-66">
        <g class="cls-67">
          <path class="cls-24" d="M1781.69,601.44l172.55,22.14c-.15-1.37-.29-2.7-.49-4.05a88.37,88.37,0,0,0-7.71-25.07l-149-19.12a88.15,88.15,0,0,0-15.34,26.1"></path>
        </g>
      </g>
      <g class="cls-66">
        <g class="cls-68">
          <path class="cls-24" d="M1779.69,658.55l162.23,20.77a88.55,88.55,0,0,0,12.52-38.51l-177.12-22.73a89.37,89.37,0,0,0,2.37,40.47"></path>
        </g>
      </g>
      <path class="cls-49" d="M1802.16,551.69a101.75,101.75,0,1,0,.24-.19l-.24.19m118.1,152.49-.13.1a63.41,63.41,0,1,1,.17,0Z"></path>
      <path class="cls-69" d="M2058.32,686.12,2095,673.29l-5.54-24.21c-17.22,11.41-42.82,17-50,14.4,4.34,3.07,18.9,4.86,18.9,4.86Z"></path>
      <path d="M2047.59,606.52s1.64,29.38,19.59,41.13c0,0-14.74,16.86,4.16,50.32,0,0-14.85,19.92,23.61,47.25s80.86-8.94,55.32-58c0,0,16.86-14.31-18.39-41.38,0,0,10.79-53.57-46.23-61.3-15.07-2-60.12-18.72-53.9,20.69,1.53,9.7,12.42,17.24,12.42,17.24Z"></path>
      <path class="cls-70" d="M387.67,858.41c18.56-1.68,30-15.28,38.86-33.58.68-1.42,1.35-2.86,2-4.34,5.86-13.13,10.64-28.25,15.83-43,3.93-11.14,8.09-22,13.14-31.67,2.57-4.92,2.4-12.54.94-20a73.57,73.57,0,0,0-2.11-8.18A47.33,47.33,0,0,0,451,706l-19.21,8.88c-1.9,1.87-3.77,3.91-5.62,6l-.74.87c-18.37,21.73-33.52,54.49-35.05,64.93-4.24-16.59-22-54.38-26.14-62.89-6.35-13.12-31.68,14.61-32.08,21.25-.78,13.28,18.68,111.79,55.52,113.33"></path>
      <path class="cls-70" d="M359.88,725.9c-2.23,7.92-15,19.33-22.89,21-.14-1.93-1.54-20.36-1.54-20.36,4.8-7.24,12.42-11.31,18-11.3Z"></path>
      <path class="cls-71" d="M351.61,707.54c1-3.47,4.68-17.28,3.57-20.51-.57-1.65-1.09-1.31-1.93-.9a6.7,6.7,0,0,0-2.39,2.94,57.83,57.83,0,0,0-2.15,6c-4.74-7.13-6.66-19-8.47-27.44-.74-3.42-10-4.31-10.28.94-.63,10.68-14.46,19.13-4.74,29.29,7.68,8,8,19.27,12.3,28.75,2.59-.52,10.75-3.82,15-10.42Z"></path>
      <path class="cls-72" d="M363.89,667.34c-12,14.72-14.87,32.09-21.36,38.44a20.39,20.39,0,0,1-4.27,3.31,3.67,3.67,0,0,1-4.78-1c-2.15-2.67-5.26-6.49-7.52-9.32-1.76-2.22.48-4.61,2-6.26a19,19,0,0,0,3.74-6.28c3-8.75,3.1-10.65,5.88-16.32a60.8,60.8,0,0,1,7.1-11.56l18,7.16Z"></path>
      <path class="cls-73" d="M341.66,672.7c-2.78,5.68-2.87,7.58-5.88,16.33a18.88,18.88,0,0,1-3.75,6.28c-1.55,1.65-3.79,4-2,6.26,1.91,2.39,4.43,5.5,6.47,8a3.69,3.69,0,0,1-3-1.46c-2.15-2.67-5.26-6.49-7.52-9.32-1.77-2.22.48-4.61,2-6.26a19,19,0,0,0,3.74-6.28c3-8.75,3.1-10.65,5.88-16.32.75-1.52,1.48-2.89,2.17-4.11l5.47.34c-1.07,1.74-2.31,3.92-3.59,6.52"></path>
      <path class="cls-74" d="M293,567.34c3.39,7.35,21.44,26.2,33.5,31.93,11.86,5.64,28,11.07,35.92,13.59,2.91.93,4.68,1.47,4.68,1.47,13.15,14.88,7.7,43.58-3.71,58.39L320,670c-24.7-1.54-42,6.67-63,19l-1.68-59.53,22.45-57Z"></path>
      <path class="cls-74" d="M262.47,518.17c-16.79-2.95-32.14,10.54-42,23.36-14.35,18.61-23.87,43.28-28.88,66.42-4.67,21.56-6.36,46.07-1.79,67.73,3.15,15,10.4,32.52,25,38.39a26,26,0,0,0,5.25,1.5c16.79,3,32.14-10.53,42-23.36C276.43,673.6,286,648.93,291,625.79c4.67-21.56,6.36-46.07,1.79-67.73-3.15-15-10.41-32.52-25-38.39a26.67,26.67,0,0,0-5.25-1.5"></path>
      <path class="cls-72" d="M260.25,523.55c-24.75-4.41-53.76,33.8-64.79,85.33s.09,96.88,24.84,101.29,53.76-33.8,64.79-85.34S285,528,260.25,523.55"></path>
      <path class="cls-72" d="M367.14,614.33c11.33,15.87,4.76,46.93-5.06,58.31,37.34,3.36,46.61-43.87,10.15-56.66Z"></path>
      <path class="cls-71" d="M324.21,696.74s9.17,8.21,10.42,5.45-4.77-10.26-4.77-10.26l11.38,2.93s2.49-1.42.22-4.5a51.19,51.19,0,0,0-6.84-6.86l12.13,1.64s1.6-1.91-.05-3a78,78,0,0,0-8-3.51l10.57.92s1.69-2.89-2.1-4.14-10.37-4.36-10.37-4.36l-4.87,2.09s-2.6,5-2.6,5.77-3.8,10.35-3.8,10.35Z"></path>
      <polygon class="cls-75" points="186.63 562.05 149.97 534.99 157.59 525.53 189.76 557.1 186.63 562.05"></polygon>
      <polygon class="cls-75" points="178.53 587.21 115.69 570.19 111.81 587.35 176.59 595.44 178.53 587.21"></polygon>
      <polygon class="cls-75" points="174.32 619.95 131.54 635.65 136.2 646.87 175.93 625.58 174.32 619.95"></polygon>
      <path class="cls-76" d="M284.6,604.25l-31.83,1.86c-7.68,3.82-9.37,22-6.13,26.07l28.58,14.69a178.29,178.29,0,0,0,9.38-42.62"></path>
      <path class="cls-77" d="M252.77,606.11c-5.71.62-10.18,19.85-6.13,26.07,5.37,3.1,13.43-26,6.13-26.07"></path>
      <path class="cls-78" d="M473.22,1259.43s5.64,49.17,0,60.39l41.47,8.2-12.48-80.67Z"></path>
      <path class="cls-78" d="M528.05,1253.82s5.64,49.17,0,60.39l41.47,8.2L557,1241.74Z"></path>
      <path class="cls-63" d="M517.43,888.27l-26.49,183.5L507.86,1273H470.21L433,1085.46a311.84,311.84,0,0,1-4.44-57.18L431,866.44l87.77,12.94Z"></path>
      <g class="cls-79">
        <g class="cls-80">
          <polygon points="490.94 1071.77 507.86 1273.01 497.09 1273.01 469.03 1076.13 463.18 888.27 517.43 888.27 490.94 1071.77"></polygon>
        </g>
      </g>
      <path class="cls-63" d="M554.75,872.26s12.88,31.49,6.84,108.71l-5.08,97.51,10.12,191.73L522.1,1273l-30.3-162.74a537,537,0,0,1-8.75-89.52l-2.18-159.49Z"></path>
      <path class="cls-78" d="M531.44,694l-.19,34.7-49.77,9.42-28.92-15.3L465.07,706l6.91-9.29a8.93,8.93,0,0,0,1.62-6.61l-6-39.84,48.49-22.55L512,659.33l-.67,5.2C509.84,681.4,531.44,694,531.44,694"></path>
      <g class="cls-79">
        <g class="cls-81">
          <path d="M448.07,778.09l-20,55.65L423.9,809.5l.89-35,1.37-53.63a3.6,3.6,0,0,1,2.91-.35l3,55.09Z"></path>
        </g>
      </g>
      <path class="cls-82" d="M425.42,721.79l.23,7.42.16,5.16v0l.3,9.18.87,27.92.46,14.37,1.09,34.63,0,1v.07a9.27,9.27,0,0,1,0,1.29l-.8,8.94h0l-.38,4.13-2.22,24.72-1,11-.32,3.4-1,11L422,896.22l-1.12,14.42-2.41,31.19,155.22,2.73-.46-33.26-.2-14.42-.05-3.34.14-7.49.2-10.32.07-4.05.2-10.37.48-25.36.27-14.37.61-32.35c0-.25,0-.5,0-.76l-.12-2.61-.38-7.58-.34-6.79-1.36-27.92-.71-14.36-.36-7.42L535.17,696.2,533.46,695l-10.27-7.2v0c.25.53,6.66,14.79-26.35,31.22a19.44,19.44,0,0,1-8.54,2.08,17.91,17.91,0,0,1-2.07-.08,18.77,18.77,0,0,1-8.31-2.88c-5.52-3.51-9.93-10-5.5-22.08l-.05,0-11.46,5.3-1.27.58L451,706l-10.67,4.93a47.19,47.19,0,0,0-14.9,10.87"></path>
      <polygon class="cls-83" points="572.77 743.58 426.1 743.58 425.65 729.21 572.06 729.21 572.77 743.58"></polygon>
      <polygon class="cls-83" points="574.84 785.86 427.44 785.86 426.98 771.49 574.14 771.49 574.47 778.28 574.84 785.86"></polygon>
      <path class="cls-83" d="M574.38,821.59,574.11,836H427.34l1.18-13.08a9.17,9.17,0,0,0,0-1.28Z"></path>
      <polygon class="cls-83" points="573.63 861.31 573.43 871.68 573.36 875.73 423.82 875.08 424.12 871.68 425.12 860.66 573.63 861.31"></polygon>
      <polygon class="cls-83" points="573.27 911.3 420.92 910.64 422.04 896.22 573.07 896.88 573.27 911.3"></polygon>
      <g class="cls-79">
        <g class="cls-84">
          <polygon points="574.99 788.85 573.02 893.54 566.57 893.96 551.87 776.58 574.47 778.28 574.99 788.85"></polygon>
        </g>
      </g>
      <g class="cls-79">
        <g class="cls-85">
          <path d="M491.86,725.81c-2.91-.71-3.4-4.32-3.43-4.59a7.83,7.83,0,0,0,3.43,4.59"></path>
        </g>
      </g>
      <path class="cls-86" d="M523,1340.88c0,.29,0,.57,0,.85,0,1.28.08,2.44.13,3.43.13,2.19.28,3.53.28,3.53H592.4a42,42,0,0,0,.08-7c-.45-7.41-2.79-19.11-12.31-26.84-13-10.59-8-8.38-10.68-13.21-.3-.54-2.65-8.74-2.9-9.31-2.24-5-4.3-7.38-16.66-7.38-16.38,0-17.82,8.36-19.57,12.76a82.12,82.12,0,0,0-2.73,10.23c-.41,1.83-.83,3.79-1.23,5.78-1,5-2,10.21-2.6,14.37a79.46,79.46,0,0,0-.77,12.75"></path>
      <path d="M523,1340.88c0,.29,0,.57,0,.85,0,1.28.08,2.44.13,3.43a20.2,20.2,0,0,0,7.17-9.76c4.26-12.21-2.3-26.87-2.57-27.49l-.14.07c-.41,1.83-.83,3.79-1.23,5.78,1.55,5,3.34,13.37.86,20.46a17.07,17.07,0,0,1-4.23,6.66"></path>
      <path d="M523,1341.73c.09,4.12.41,7,.41,7H592.4a42,42,0,0,0,.08-7Z"></path>
      <path class="cls-24" d="M547.66,1307.58a2.05,2.05,0,0,0,.49-.06,32.54,32.54,0,0,1,16-.35,2,2,0,0,0,2.42-1.44,2.08,2.08,0,0,0-1.37-2.54,35.92,35.92,0,0,0-18,.32,2.07,2.07,0,0,0-1.41,2.52,2,2,0,0,0,1.9,1.55"></path>
      <path class="cls-24" d="M550.61,1314.13a1.66,1.66,0,0,0,.49-.07,32.81,32.81,0,0,1,16-.34,2,2,0,0,0,2.42-1.45,2.09,2.09,0,0,0-1.37-2.54,36.14,36.14,0,0,0-18,.33,2.08,2.08,0,0,0-1.42,2.52,2,2,0,0,0,1.91,1.55"></path>
      <path class="cls-24" d="M554.07,1321.57a2.14,2.14,0,0,0,.5-.06,32.9,32.9,0,0,1,16-.35,2,2,0,0,0,2.41-1.44,2.07,2.07,0,0,0-1.37-2.54,36,36,0,0,0-18,.33,2.08,2.08,0,0,0-1.41,2.52,2,2,0,0,0,1.9,1.54"></path>
      <path class="cls-86" d="M412,1346.17H514a14.23,14.23,0,0,0,1.34-5.66c.64-8.63-2.11-22.4-3.46-31.08-.16-1-.3-2-.41-2.81a29.7,29.7,0,0,1-.31-3.55c0-7.08-6.27-5.87-6.27-5.87-10.32,10.12-22-5-28.82-.08,0,0-2.94,2.11-11,9.4s-21.86,12.09-33.58,17c-15.14,6.33-19.43,12.64-20.27,17a8,8,0,0,0,.84,5.66"></path>
      <path d="M412,1346.17H514a14.23,14.23,0,0,0,1.34-5.66H411.13a8,8,0,0,0,.84,5.66"></path>
      <path d="M503.54,1346.17h3a22.38,22.38,0,0,1-5.48-16.33c.49-10.07,6.54-16.87,10.74-20.41-.16-1-.3-2-.41-2.81-4.53,3.46-12.16,11-12.76,23.1a24.8,24.8,0,0,0,4.88,16.45"></path>
      <path class="cls-24" d="M466.71,1312.53a1.68,1.68,0,0,0,.4-3.31l-6.37-1.58a1.68,1.68,0,0,0-.81,3.26l6.37,1.58a2,2,0,0,0,.41,0"></path>
      <path class="cls-24" d="M460.34,1316.23a1.68,1.68,0,0,0,.4-3.31l-6.37-1.58a1.68,1.68,0,0,0-.81,3.26l6.37,1.58a1.48,1.48,0,0,0,.41,0"></path>
      <path class="cls-24" d="M454,1319.79a1.68,1.68,0,0,0,.4-3.31L448,1314.9a1.68,1.68,0,0,0-.81,3.26l6.37,1.58a1.48,1.48,0,0,0,.41,0"></path>
      <path class="cls-24" d="M447,1323.09a1.69,1.69,0,0,0,.41-3.32l-6.37-1.58a1.68,1.68,0,1,0-.81,3.26l6.37,1.58a1.39,1.39,0,0,0,.4.06"></path>
      <path class="cls-24" d="M439.49,1325.89a1.68,1.68,0,0,0,.4-3.31l-6.37-1.58a1.68,1.68,0,0,0-.81,3.26l6.38,1.58a1.37,1.37,0,0,0,.4.05"></path>
      <path class="cls-78" d="M516.83,683.13l.78-30.56-44.45,3.82,1.09,40.19,4.58,11.95s23.7-4.12,34.52-15.52a12.55,12.55,0,0,0,3.48-9.88"></path>
      <path class="cls-87" d="M473.89,683.34s21.72-5.76,29.07-12.2c0,0-4.51,23-28.71,25.44Z"></path>
      <path d="M536.32,608.74C529.55,603.82,525,605,525,605S507.32,573.3,477.8,578.2c-28.48,4.73-27.37,28.83-20.92,37.2-2,5.18-6.45,20.78,7.88,30.84l5.13-24.8c4.65,0,41.62,32.27,41.92,30.9,1.59-7.08,12.95-6.51,13.78-5.86l2.84-1.13c4.73-2.61,8.62-13,9.33-15.92,1.51-6.38,3.25-17.28-1.44-20.69"></path>
      <g class="cls-88">
        <g class="cls-89">
          <path class="cls-90" d="M495.39,590.34s-18.88,9-33.24,5.32c0,0,3.55,5.59,14.5,5.53,0,0-6.32,4.9-12.82,4.15,0,0,7.81,5.42,26.28-5.87L485,597.9s8.68-4.82,10.43-7.56"></path>
        </g>
      </g>
      <path class="cls-78" d="M523.49,660.1a8.51,8.51,0,0,1-.86.13,13,13,0,0,1-12.59-2.3c-4.78-3.8-18.61,14.05-24.14,25.19-7.49,3.08-16.08,3.93-22.86-2.92-5.59-5.65-7.38-15.52-6.83-25.91.7-13.15,4.88-27.08,6.88-33.68.76-2.5,1.27-4,1.27-4s17.18,8.12,42.88,1.2l-4.91,11.3a4.73,4.73,0,0,0-.2.5c-.18.49-.32,1-.45,1.48,0,.16-.08.32-.11.49h0l-.09.48c0,.16-.06.31-.08.46-.07.42-.12.85-.15,1.27V634q0,.69,0,1.38a17,17,0,0,0,5.16,11.82,18.38,18.38,0,0,0,5.39,3.74l0,0a.86.86,0,0,1,0-.16,9.82,9.82,0,0,1,.85-4.65,9.06,9.06,0,0,1,6.41-5.18,9.88,9.88,0,0,1,11.47,7.63,9.42,9.42,0,0,1-7,11.54"></path>
      <path class="cls-91" d="M515.86,653.6a.64.64,0,0,1-.59-.36.65.65,0,0,1,.15-.79l7-6.16a.67.67,0,1,1,.88,1l-5.09,4.48,4.66-1a.66.66,0,0,1,.27,1.3l-7.11,1.5h-.14"></path>
      <path d="M454.49,657.87c-5.51,18.18,14.3,33.89,32.49,25.82l.38-.17A43.08,43.08,0,0,0,495,679c10.91-8,15-19.73,16.8-28.13a19.22,19.22,0,0,1-5.28-4.07c-.68,4.92-2.68,10.88-7.42,13.44-6,3.26-9.26,1.41-10.52.82-4.43-2-7.29-4.74-15.47-6.75-4.26-1.05-8.32.08-13.87.43a2.92,2.92,0,0,1-2.54-.57,2,2,0,0,1-.43-.77,27.21,27.21,0,0,0-1.74,4.44"></path>
      <path class="cls-78" d="M463.43,665.06l10.38.78s-.65,5.66-5.46,4.92-4.92-5.7-4.92-5.7"></path>
      <path class="cls-70" d="M541,763c-7.69-15.81-6.21-30,8.52-39.79h0c14.73-9.83,27.3,2.16,35,18,15.08,31,26.12,100.19,10.16,119.88-9.71,12-56.78,20.54-84.45,23.15-9.47.9-20.58,1.08-23.23.35-9.64-2.65-15.27-23.16-10.74-31.57,1.76-3.27,12.21-4.41,16.25-5.2,19.7-3.88,53.38-16.21,59.08-19.29C562,822.85,546.42,774.05,541,763"></path>
      <path class="cls-70" d="M485.55,854.82c7.94,2.55,19.56,28.14,1.42,26.67-7.35-.59-9.61-.23-9.61-.23-9.21-6.6-11.07-16.71-10.74-24Z"></path>
      <path class="cls-71" d="M470.6,859.55l-8.2,1.06-16.72-6.27c-1.76-1.23-13.79-6.52-11.23-1.74,1.8,3.35,8.14,9.5,7.9,9.79-3.11,3.78-27.71,5.71-28,6.05-4.25,4.72,11.44,4.41,14.1,4.47.7,0-10.75,2.63-10.35,3.16a5.33,5.33,0,0,0,4.64,2.4c3.6,0,9.77-1,10.37-.36s-10.5,3.1-9.87,3.66a4.65,4.65,0,0,0,3.7,1.31c3.74-.1,9.38-1.38,10.2-.86s-7.23,1.8-6.43,2.23c.64.33.59,1.56,1.27,1.6,18.54,1,20-8.34,41.18-6.62,11.79,1,1.09-17.35-2.55-19.88"></path>
      <rect class="cls-1" width="2322" height="1361"></rect>
      <rect class="cls-1" width="2322" height="1361"></rect>
      <rect class="cls-24" x="628.71" y="314.15" width="24.05" height="24.05"></rect>
      <rect class="cls-24" x="628.71" y="347.22" width="24.05" height="24.05"></rect>
      <rect class="cls-24" x="628.71" y="380.28" width="24.05" height="24.05"></rect>
      <rect class="cls-24" x="628.71" y="413.35" width="24.05" height="24.05"></rect>
      <rect class="cls-24" x="628.71" y="446.42" width="24.05" height="24.05"></rect>
      <rect class="cls-24" x="628.71" y="479.49" width="24.05" height="24.05"></rect>
      <rect class="cls-24" x="628.71" y="512.55" width="24.05" height="24.05"></rect>
      <rect class="cls-24" x="628.71" y="545.62" width="24.05" height="24.05"></rect>
      <rect class="cls-24" x="628.71" y="578.69" width="24.05" height="24.05"></rect>
      <rect class="cls-24" x="628.71" y="611.76" width="24.05" height="24.05"></rect>
      <rect class="cls-24" x="628.71" y="644.82" width="24.05" height="24.05"></rect>
      <rect class="cls-24" x="628.71" y="677.89" width="24.05" height="24.05"></rect>
      <rect class="cls-24" x="628.71" y="710.96" width="24.05" height="24.05"></rect>
      <rect class="cls-24" x="628.71" y="744.02" width="24.05" height="24.05"></rect>
      <rect class="cls-24" x="628.71" y="777.09" width="24.05" height="24.05"></rect>
      <rect class="cls-92" x="711.38" y="314.15" width="84.92" height="20.29"></rect>
      <rect class="cls-93" x="711.38" y="382.54" width="49.6" height="20.29"></rect>
      <rect class="cls-94" x="746.7" y="415.61" width="136.03" height="20.29"></rect>
      <rect class="cls-92" x="772.25" y="446.42" width="84.92" height="20.29"></rect>
      <rect class="cls-24" x="801.56" y="481.74" width="84.92" height="20.29"></rect>
      <rect class="cls-94" x="711.38" y="514.81" width="35.32" height="20.29"></rect>
      <rect class="cls-92" x="757.22" y="514.81" width="39.08" height="20.29"></rect>
      <rect class="cls-93" x="802.31" y="514.81" width="39.08" height="20.29"></rect>
      <rect class="cls-93" x="730.16" y="547.87" width="84.92" height="20.29"></rect>
      <rect class="cls-92" x="822.6" y="547.87" width="110.48" height="20.29"></rect>
      <rect class="cls-24" x="945.1" y="547.87" width="54.86" height="20.29"></rect>
      <rect class="cls-92" x="1005.98" y="547.12" width="202.91" height="20.29"></rect>
      <rect class="cls-94" x="746.7" y="580.94" width="84.92" height="20.29"></rect>
      <rect class="cls-24" x="839.89" y="580.94" width="29.31" height="20.29"></rect>
      <rect class="cls-93" x="875.21" y="580.94" width="101.46" height="20.29"></rect>
      <rect class="cls-92" x="711.38" y="614.01" width="39.83" height="20.29"></rect>
      <rect class="cls-93" x="711.38" y="647.08" width="84.92" height="20.29"></rect>
      <rect class="cls-94" x="808.32" y="646.33" width="39.08" height="20.29"></rect>
      <rect class="cls-92" x="854.92" y="646.33" width="20.29" height="20.29"></rect>
      <rect class="cls-24" x="881.97" y="646.33" width="44.34" height="20.29"></rect>
      <rect class="cls-92" x="711.38" y="680.14" width="126.26" height="20.29"></rect>
      <rect class="cls-94" x="789.53" y="712.46" width="84.92" height="20.29"></rect>
      <rect class="cls-92" x="818.84" y="746.28" width="84.92" height="20.29"></rect>
      <rect class="cls-24" x="917.29" y="746.28" width="42.09" height="20.29"></rect>
      <rect class="cls-94" x="1029.27" y="777.09" width="26.3" height="20.29"></rect>
      <rect class="cls-93" x="844.4" y="777.09" width="84.92" height="20.29"></rect>
      <rect class="cls-92" x="938.34" y="777.09" width="77.41" height="20.29"></rect>
      <rect class="cls-94" x="711.38" y="349.47" width="193.89" height="20.29"></rect>
      <rect class="cls-93" x="814.33" y="314.15" width="46.59" height="20.29"></rect>
      <rect class="cls-24" x="773" y="382.54" width="28.56" height="20.29"></rect>
      <rect class="cls-24" x="918.8" y="349.47" width="46.59" height="20.29"></rect>
      <rect class="cls-24" x="878.21" y="314.15" width="27.06" height="20.29"></rect>
      <rect class="cls-24" x="896.25" y="415.61" width="27.06" height="20.29"></rect>
      <rect class="cls-92" x="1063.09" y="446.42" width="27.06" height="20.29"></rect>
      <rect class="cls-93" x="1099.17" y="446.42" width="59.37" height="20.29"></rect>
      <rect class="cls-94" x="1166.8" y="446.42" width="140.54" height="20.29"></rect>
      <rect class="cls-94" x="1218.66" y="547.87" width="27.06" height="20.29"></rect>
      <rect class="cls-93" x="869.2" y="446.42" width="54.11" height="20.29"></rect>
      <rect class="cls-24" x="933.08" y="446.42" width="122.5" height="20.29"></rect>
      <rect class="cls-93" x="933.08" y="414.85" width="79.66" height="20.29"></rect>
      <rect class="cls-24" x="1158.54" y="349.47" width="27.06" height="20.29"></rect>
      <rect class="cls-92" x="976.67" y="349.47" width="63.13" height="20.29"></rect>
      <rect class="cls-93" x="1055.58" y="349.47" width="90.18" height="20.29"></rect>
      <path class="cls-95" d="M936.5,1159.71H836.87a4,4,0,0,1-4-4v-.64a4,4,0,0,1,4-4H936.5a4,4,0,0,1,4,4v.64a4,4,0,0,1-4,4"></path>
      <path d="M1061.71,657.52h-56.9a21.1,21.1,0,0,0-21.09,21.1v27.61a21.1,21.1,0,0,0,21.09,21.1h56.9a21.1,21.1,0,0,0,21.1-21.1V678.62a21.1,21.1,0,0,0-21.1-21.1m20,48.71a20,20,0,0,1-20,20h-56.9a20,20,0,0,1-20-20V678.62a20,20,0,0,1,20-20h56.9a20,20,0,0,1,20,20Z"></path>
      <path class="cls-24" d="M1081.72,678.62v27.61a20,20,0,0,1-20,20h-56.9a20,20,0,0,1-20-20V678.62a20,20,0,0,1,20-20h56.9a20,20,0,0,1,20,20"></path>
      <path d="M1026.09,701a11.81,11.81,0,0,1-4.83.87c-5.15,0-9-3.26-9-9.25,0-5.72,3.88-9.6,9.54-9.6a9.69,9.69,0,0,1,4.34.82l-.57,1.92a8.59,8.59,0,0,0-3.68-.76c-4.29,0-7.13,2.74-7.13,7.54,0,4.47,2.57,7.35,7,7.35a9.48,9.48,0,0,0,3.85-.76Z"></path>
      <polygon points="1035.93 687.2 1035.93 693.57 1042.06 693.57 1042.06 695.2 1035.93 695.2 1035.93 701.63 1034.19 701.63 1034.19 695.2 1028.07 695.2 1028.07 693.57 1034.19 693.57 1034.19 687.2 1035.93 687.2"></polygon>
      <polygon points="1052.09 687.2 1052.09 693.57 1058.22 693.57 1058.22 695.2 1052.09 695.2 1052.09 701.63 1050.36 701.63 1050.36 695.2 1044.23 695.2 1044.23 693.57 1050.36 693.57 1050.36 687.2 1052.09 687.2"></polygon>
      <path d="M1173.76,699.1h-56.9a21.18,21.18,0,0,0-21.1,21.14v27.62a21.16,21.16,0,0,0,21.1,21.09h56.9a21.13,21.13,0,0,0,21.1-21.09V720.24a21.15,21.15,0,0,0-21.1-21.14m20,48.76a20,20,0,0,1-20,20h-56.9a20,20,0,0,1-20-20V720.24a20.06,20.06,0,0,1,20-20h56.9a20.06,20.06,0,0,1,20,20Z"></path>
      <path class="cls-24" d="M1193.76,720.24v27.62a20,20,0,0,1-20,20h-56.9a20,20,0,0,1-20-20V720.24a20.06,20.06,0,0,1,20-20h56.9a20.06,20.06,0,0,1,20,20"></path>
      <path d="M1142.64,742.64a11.75,11.75,0,0,1-4.82.87c-5.15,0-9-3.26-9-9.25,0-5.72,3.88-9.6,9.54-9.6a9.72,9.72,0,0,1,4.34.82l-.57,1.92a8.64,8.64,0,0,0-3.69-.76c-4.28,0-7.13,2.74-7.13,7.54,0,4.47,2.58,7.35,7,7.35a9.41,9.41,0,0,0,3.85-.76Z"></path>
      <path d="M1146.06,743.24l.71-5.32h-2.23v-1.6H1147l.52-3.93h-2.34v-1.6h2.58l.71-5.18H1150l-.67,5.18h2.82l.71-5.18h1.59l-.67,5.18H1156v1.6h-2.47l-.49,3.93h2.34v1.6h-2.58l-.71,5.32h-1.62l.7-5.32h-2.81l-.71,5.32Zm5.4-6.92.51-3.93h-2.82l-.51,3.93Z"></path>
      <path d="M1077.47,765.1H1031.6a21.14,21.14,0,0,0-21.1,21.1v19.91a21.11,21.11,0,0,0,21.1,21.1h45.87a21.11,21.11,0,0,0,21.1-21.1V786.2a21.14,21.14,0,0,0-21.1-21.1m20,41a20,20,0,0,1-20,20H1031.6a20,20,0,0,1-20-20V786.2a20,20,0,0,1,20-20h45.87a20,20,0,0,1,20,20Z"></path>
      <path class="cls-24" d="M1097.47,786.2v19.91a20,20,0,0,1-20,20H1031.6a20,20,0,0,1-20-20V786.2a20,20,0,0,1,20-20h45.87a20,20,0,0,1,20,20"></path>
      <path d="M1032.56,788.12h2.09V799c0,4.3-2.12,5.62-4.9,5.62a7,7,0,0,1-2.24-.38l.31-1.71a4.94,4.94,0,0,0,1.75.31c1.88,0,3-.84,3-4Z"></path>
      <path d="M1040.77,799.23l-1.69,5.1h-2.16l5.5-16.21H1045l5.53,16.21h-2.24l-1.73-5.1Zm5.31-1.63-1.59-4.67c-.36-1.06-.6-2-.84-2.95h-.05c-.24,1-.51,1.94-.82,2.93l-1.58,4.69Z"></path>
      <path d="M1055.16,804.33l-5.29-16.2h2.26l2.52,8c.7,2.19,1.3,4.17,1.73,6.07h0c.46-1.88,1.13-3.92,1.85-6l2.75-8h2.23l-5.8,16.2Z"></path>
      <path d="M1066.28,799.23l-1.69,5.1h-2.16l5.51-16.21h2.52l5.53,16.21h-2.24l-1.73-5.1Zm5.31-1.63-1.59-4.67c-.36-1.06-.6-2-.84-2.95h-.05c-.24,1-.5,1.94-.81,2.93l-1.59,4.69Z"></path>
      <path class="cls-95" d="M804.88,1336.81l48.4-344.39h-31.4a10.81,10.81,0,0,1-10.82-10.82v-2.55a10.82,10.82,0,0,1,10.82-10.82H940.73a10.83,10.83,0,0,1,10.83,10.82v2.55a10.82,10.82,0,0,1-10.83,10.82H926.59l49.11,342.11a5.09,5.09,0,0,1-4.32,5.77,6,6,0,0,1-.73,0,5.09,5.09,0,0,1-5-4.37L916.3,992.42H863.57L815,1338.23a5.1,5.1,0,0,1-5,4.39,5.81,5.81,0,0,1-.72,0,5.1,5.1,0,0,1-4.33-5.76"></path>
      <path class="cls-53" d="M957.5,1129.93l17.13-28.65,24.3,22.1L974.49,1148c.14,4.69,2.73,14.16,4.26,17.65a36.14,36.14,0,0,0-16.1-4.24l-9.68-.35L951.2,1143a17.77,17.77,0,0,1,6.3-13"></path>
      <path class="cls-44" d="M980.85,1160.78s1.63,11.18,2.84,14.79,8.72,15.75,10.49,21.72.26,8.4.26,8.4-5,3.19-16.65-2.83-29.54-18.44-32-44.31c0,0-4.39-3.87-6.29-7.6s7.8-14.14,15.13-17.48c0,0,10.5,10,21.5,12.6,0,0,4.72,10.79,4.74,14.71"></path>
      <path class="cls-53" d="M907.65,1291.31l2.31-36.56,34.81,9.34-11.47,36.29c2.49,4.5,9.78,12.44,13,15.07a39.59,39.59,0,0,0-17.83,4l-9.62,4.53-10.82-16.77s-4-7.63-.4-15.86"></path>
      <path class="cls-60" d="M821.89,940.49c1.12,14.39,5.57,43,23.12,62.55,0,0,46.42,110.36,62.83,152.81L905,1260.54s7.23,1.26,15.72,2.65c11.27,1.83,24.79,3.9,26.72,3.6,3.4-.58,21.5-92.84,9-143.2S906.14,968,906.14,968L1012,1034.72s-34.53,39.63-43.6,74.16l26,22.62s57.15-53.18,66.79-73.55,6.8-43.61-24.34-75.29S933.3,928.33,933.3,928.33s-55.45-9.07-111.79,3.12c0,0-.06,3.47.38,9"></path>
      <path class="cls-96" d="M1001.22,875.41s60,28.87,72.73,49.24h-46.7l-59.14-27.73s13-24.62,33.11-21.51"></path>
      <path class="cls-97" d="M845,1003s46.42,110.36,62.83,152.81L905,1260.54s7.23,1.26,15.72,2.65c2.14-17.08,2.22-89.89-3.28-115.83-6.22-29.41-25.46-86-49.81-125.65s-19.24-78.1-19.24-78.1l-26.52-3.12c1.12,14.39,5.57,43,23.12,62.55"></path>
      <path class="cls-49" d="M785,800.41c3.12,19.52,5.09,39.05,15.86,56.88s11.31,25.77,11.31,34,10.18,19,10.18,19l-1.12,25.3,117.57-3s-4.52-27.77-3.4-49c10.49,10.12,22.68,18.27,31,18,3.23-.1,6.9-1.56,10.6-3.77,12.43-7.37,25.5-23,25.5-23s-6-3.39-8.49-11.88-20-14.43-28.86-27.17a254.64,254.64,0,0,1-29.75-58.57,50.66,50.66,0,0,0-28.12-30.36,8.73,8.73,0,0,0-3.12-1.06c-9.92-.57-23.5-13.31-64.52-12.73,0,0-35.66,24-43.88,31.68S781.92,780.88,785,800.41"></path>
      <path class="cls-98" d="M876.14,895.79s1.7-9.34-8.21-15.29-14.14-17.26-16.41-24.33-4.24-42.45-14.43-55.75-16.7-18.68-16.7-18.68,8.78,1.14,20.1,16.13c6.28,8.34,7.92,23.21,11.31,34.24s6.23,29.15,13,36.79,14.43,12.74,17,22.64-4,10.75-4,10.75Z"></path>
      <rect class="cls-95" x="702.39" y="931.73" width="517.01" height="13.58"></rect>
      <path class="cls-53" d="M826.74,676.63a101.55,101.55,0,0,0,10.19,25.67c2.14,10,1.29,35.46,1.29,35.46,5.3,6.79,19.73,13.58,26.76,11.88s6.79-7.67,6.79-7.67l-.44-3.4-1.26-9.3a32.5,32.5,0,0,0,10.8,1.25c15.28-6.79,18.27-16.33,17.19-28.22s-.41-20.37.23-28.86A35.13,35.13,0,0,0,896,658.16c-9.54-21.67-49.24-22.72-59.63-17.42s-13.18,21-9.58,35.89"></path>
      <path d="M850.32,658.79s11,4.45,33.53,5.73,30.78-13.16,30.56-16.77-12.94-4.24-19.31-9.13-24.62-16.13-43.93-11.88-22.92,19.31-22.92,19.31a20.16,20.16,0,0,0-10.83,11.89c-2.76,8.7,2.34,25.68,19.53,44.36,0,0-4-11.68-.43-17s10,3,10,3,5.09-6.79,6.79-12.31-3-17.19-3-17.19"></path>
      <path class="cls-99" d="M844.44,711.57s0,8.9,12.46,18.68c7.5,5.88,12.05,7.74,14.43,8.32l-1.26-9.3s-16.3-3.26-25.63-17.7"></path>
      <path class="cls-100" d="M839.49,689.14s4.67,5,4,7.32-3,2.23-1.81,5.3a33.68,33.68,0,0,0,1.91,4.36"></path>
      <path class="cls-98" d="M924,784.58c6.52,20.65,11.44,99,11.44,99,10.49,10.12,22.68,18.27,31,18,3.23-.1,6.9-1.56,10.6-3.77-4.86-4.35-10.16-9.34-11.72-11.65-3.12-4.51-8.79-3.94-15.28-11.88S942.64,834.1,936.43,814,924,784.58,924,784.58"></path>
      <path class="cls-53" d="M838.22,909.93c2.29-6.14,7.08-11.6,24.34-13.29s58.86,5.65,69.33,2.54,35-13.09,39.4-13.09,17,10,19.53,14.44,4.88,13.58,1.91,14-6.58-8.7-6.58-8.7l-6.37-4.46s4.25,8.07,4.46,11.89-9.76,5.09-16.34,3.18-8.92-4.88-8.92-4.88,3.61,4.67-.42,5.31-10.19-3.82-10.19-3.82-6.15,5.09-14,5.3-9.56-2.12-9.56-2.12-33.39,11.46-60.55,12.95-28.86-11.66-26-19.25"></path>
      <path d="M935.85,932.51l170.47,1.32,21.56-73.89a13,13,0,0,0,.28-6,12.47,12.47,0,0,0-12.26-9.85l-90.71.51a12.44,12.44,0,0,0-11.78,8.73L991.92,922.9H937.51l-.71,4.21Z"></path>
      <path class="cls-44" d="M945.93,1309.65s7.22,10.09,10.2,13,16.43,11,21.16,15.92,4.48,8.07,4.48,8.07-3.24,5.6-17.67,5.6-38.08-3.14-53.51-27.12c0,0-6.22-1.57-10-4.26s.5-17.7,6-24.65c0,0,15.29,4.53,27.31,1.48,0,0,10,8.15,12,12"></path>
      <path class="cls-101" d="M878.69,748.07s.28,9.34-17.83,8.49-26-7.64-26-7.64,32.82,11.88,43.86-.85"></path>
      <path class="cls-5" d="M935.85,932.51l170.47,1.32,21.56-73.89a13,13,0,0,0,.28-6c-20.82,19.22-77,67.06-125,72.7-43.7,5.13-60.45,2.38-66.39.48Z"></path>
      <path class="cls-5" d="M1024.42,853.62l-24.05,68.77s3.4-48.11,24.05-68.77"></path>
      <path class="cls-96" d="M977.17,912.06a73.75,73.75,0,0,0-7.08-10c-3.25-3.54-10.75-5.52-10.75-5.52s16.55,12.46,17.83,15.57"></path>
      <path class="cls-96" d="M979.15,900.74s-5.66-6.09-10.61-7.64c0,0,7.49-1.13,10.61,7.64"></path>
      <path class="cls-96" d="M957.5,909.93s-3.4-4.38-6.79-5.09-2.55.71-.57,2a49.72,49.72,0,0,0,7.36,3.11"></path>
      <path class="cls-24" d="M1061.57,894.21c-2.7,5.95-1,12.5,3.67,14.65s10.74-1,13.44-6.9,1.06-12.5-3.67-14.65-10.74,1-13.44,6.9"></path>
    </g>
  </g>
</svg>
