<?xml version="1.0" encoding="UTF-8" standalone="no"?><!DOCTYPE svg PUBLIC "-//W3C//DTD SVG 1.1//EN" "http://www.w3.org/Graphics/SVG/1.1/DTD/svg11.dtd"><svg width="100%" height="100%" viewBox="0 0 625 84" version="1.1" xmlns="http://www.w3.org/2000/svg" xmlns:xlink="http://www.w3.org/1999/xlink" xml:space="preserve" xmlns:serif="http://www.serif.com/" style="fill-rule:evenodd;clip-rule:evenodd;stroke-linejoin:round;stroke-miterlimit:2;"><g id="_x30_"></g><g id="Symbole_x28_DIN_x29_"></g><g id="Sichtbare_Kanten_x28_DIN_x29_"><g id="LINE_00000160874510630303441470000012618790279370735018_"><g id="XMLID_00000006676414734563191130000009584721300391349428_"><g><path d="M530.167,27.333l-0,38.959l-11.375,-0l-0,-38.959l-15,0l-0,-11.291l40.416,-0l0,11.291l-14.041,0Z" style="fill:#314f3e;fill-rule:nonzero;"/><path d="M497.583,55.875l0,10.417l-26.25,-0l0,-10.417l7.334,0l-0,-28.542l-7.334,0l0,-11.291l26.25,-0l0,11.291l-6.791,0l-0,28.542l6.791,0Z" style="fill:#314f3e;fill-rule:nonzero;"/><rect x="438" y="41.583" width="25.958" height="10.583" style="fill:#314f3e;"/><rect x="391.708" y="55.875" width="38.458" height="10.417" style="fill:#314f3e;"/><rect x="391.708" y="16.042" width="38.458" height="11.292" style="fill:#314f3e;"/><rect x="395.208" y="35.833" width="31.417" height="11.5" style="fill:#314f3e;"/><path d="M386.5,16.042l-17.333,50.25l-12.167,-0l-18.417,-50.25l12.209,-0l12.125,33.125l11.375,-33.125l12.208,-0Z" style="fill:#314f3e;fill-rule:nonzero;"/><path d="M310.708,55.875l25.084,0l-0,10.417l-37.084,-0l0,-50.25l12,-0l0,39.833Z" style="fill:#314f3e;fill-rule:nonzero;"/><path d="M248.125,34.833c0,-11.166 9.083,-20.25 20.292,-20.25c11.208,0 20.291,9.084 20.291,20.25l0,13.667c0,11.208 -9.083,20.292 -20.291,20.292c-11.209,-0 -20.292,-9.084 -20.292,-20.292l0,-13.667Zm20.292,-8.916c-4.917,-0 -8.959,4 -8.959,8.916l0,13.667c0,4.958 4.042,8.958 8.959,8.958c4.958,0 8.958,-4 8.958,-8.958l0,-13.667c-0,-4.916 -4,-8.916 -8.958,-8.916Z" style="fill:#314f3e;fill-rule:nonzero;"/><path d="M199.333,49.917l11.375,-0c-3,7.541 11.834,11.166 16.5,3.833l0.042,-0.042l0,-0.041l0.042,-0.042l-0,-0.042l0.041,-0.041l0,-0.042l0.042,-0.042l0,-0.041l0.042,-0.042l-0,-0.042l0.041,-0.041l0,-0.042l0.042,-0.042l-0,-0.083l0.042,-0.042l-0,-0.083l0.041,-0.042l0,-0.166l0.042,-0.042l-0,-0.208l0.042,-0.042l-0,-0.625l-0.042,-0.083l-0,-0.209l-0.042,-0.083l0,-0.083l-0.083,-0.167l0,-0.083l-0.458,-0.917l-0.209,-0.208l-0.041,-0.084l-0.084,-0.083l-0.041,-0.083l-0.542,-0.542l-0.083,-0.042l-0.167,-0.166l-0.083,-0.042l-0.167,-0.167l-0.083,-0.041l-0.084,-0.084l-0.125,-0.041l-0.166,-0.167l-0.125,-0.042l-0.084,-0.083l-0.125,-0.042l-0.083,-0.083l-0.125,-0.042l-0.083,-0.083l-0.25,-0.083l-0.084,-0.084l-0.125,-0.041l-0.125,-0.084l-0.25,-0.083l-0.125,-0.083l-0.083,-0.042l-0.25,-0.083l-0.125,-0.084l-0.375,-0.125l-0.167,-0.041l-0.25,-0.084l-0.125,-0.083l-0.125,-0.042l-0.166,-0.041l-0.375,-0.125l-0.167,-0.042l-0.125,-0.042l-0.167,-0.041l-0.25,-0.084l-0.166,-0.041l-0.125,-0l-0.167,-0.042l-0.125,-0.042l-0.167,-0.041l-0.125,-0.042l-0.333,-0.083l-0.125,-0l-0.167,-0.042l-0.125,-0.042l-0.166,-0.041l-0.167,-0l-0.125,-0.042l-0.333,-0.083l-0.167,-0l-0.125,-0.042l-0.333,-0.042l-0.334,-0.083l-0.291,-0.042l-0.334,-0.041l-0.333,-0.084l-0.292,-0.041l-1,-0.125l-0.333,-0.084l-0.292,-0.041l-0.666,-0.084l-0.334,-0.083l-0.666,-0.083l-0.334,-0.084l-0.291,-0.041l-0.334,-0.084l-0.166,0l-0.834,-0.208l-0.166,0l-0.167,-0.042l-0.125,-0.041l-0.833,-0.209l-0.125,-0.041l-0.167,-0.084l-0.5,-0.125l-0.125,-0.041l-0.167,-0.084l-0.333,-0.083l-0.125,-0.083l-0.167,-0.042l-0.166,-0.083l-0.125,-0.042l-0.167,-0.083l-0.167,-0.042l-0.125,-0.083l-0.166,-0.084l-0.125,-0.041l-0.167,-0.084l-0.125,-0.083l-0.167,-0.083l-0.125,-0.084l-0.166,-0.083l-0.125,-0.083l-0.167,-0.084l-0.125,-0.083l-0.167,-0.083l-0.125,-0.125l-0.083,-0.042l-0.042,-0.042l-0.166,-0.083l-0.042,-0.083l-0.167,-0.084l-0.125,-0.125l-0.083,-0.041l-0.125,-0.125l-0.083,-0.042l-0.25,-0.25l-0.084,-0.042l-0.041,-0.083l-0.084,-0.042l-0.041,-0.083l-0.084,-0.042l-0.041,-0.083l-0.084,-0.042l-0.041,-0.083l-0.084,-0.042l-0.083,-0.083l-0.042,-0.083l-0.083,-0.042l-0.042,-0.083l-0.208,-0.209l-0.083,-0.166l-0.209,-0.209l-0.041,-0.083l-0.084,-0.083l-0.041,-0.084l-0.084,-0.083l-0.083,-0.167l-0.083,-0.083l-0.042,-0.083l-0.083,-0.084l-0.084,-0.166l-0.083,-0.084l-0.042,-0.083l-0.041,-0.125l-0.084,-0.083l-0.083,-0.167l-0.083,-0.125l-0.084,-0.167l-0.083,-0.125l-0.083,-0.166l-0.042,-0.125l-0.083,-0.084l-0.042,-0.125l-0.042,-0.083l-0.041,-0.125l-0.084,-0.083l-0.083,-0.25l-0.042,-0.084l-0.083,-0.25l-0.083,-0.083l-0.209,-0.625l-0.041,-0.083l-0.084,-0.125l-0.125,-0.375l-0.041,-0.167l-0.209,-0.625l-0.041,-0.167l-0.084,-0.25l-0.041,-0.166l-0.084,-0.25l-0.041,-0.167l-0.042,-0.125l-0.083,-0.333l-0.042,-0.125l-0.042,-0.167l0,-0.125l-0.166,-0.667l-0.042,-0.125l-0.042,-0.166l0,-0.167l-0.125,-0.5l0,-0.167l-0.041,-0.166l-0.042,-0.209l-0.042,-0.166c-1.625,-22.042 43.417,-19.375 39.209,0.791l-11.334,0l-0.041,-0.083l-0,-0.083l-0.084,-0.167l0,-0.042l-0.083,-0.166l0,-0.042l-0.083,-0.167l-0.042,-0.041l0,-0.084l-0.042,-0.083l-0.041,-0.042l-0,-0.083l-0.042,-0.042l-0.042,-0.083l-0.041,-0.042l-0.042,-0.083l0,-0.083l-0.042,-0.042l-0.041,-0.083l-0.042,-0.042l0,-0.083l-0.083,-0.084l-0.042,-0.083l-0.042,-0.042l-0.041,-0.083l-0,-0.042l-0.042,-0.083l-0.083,-0.083l-0.042,-0.084l-0.042,-0.041l0,-0.042l-0.041,-0.083l-0.084,-0.084l-0.041,-0.083l-0.125,-0.125l-0.042,-0.083l-0.042,-0.042l0,-0.042l-0.083,-0.083l-0.042,-0.083l-0.25,-0.25l-0.041,-0.084l-0.75,-0.75l-0.042,0l-0.25,-0.25l-0.042,0l-0.041,-0.041l-0.084,-0.042l-0.083,-0.083l-0.083,-0.042l-0.084,-0.083l-0.083,-0.042l-0.083,-0.083l-0.125,-0.042l-0.084,-0.042l-0.083,-0.083l-0.083,-0.042l-0.125,-0.041l-0.084,-0.084l-0.166,-0.083l-0.125,-0.042l-0.25,-0.125l-0.125,-0.041l-0.167,-0.084l-0.125,-0.041l-0.083,-0.042l-0.084,0l-0.125,-0.042l-0.166,-0.083l-0.084,0l-0.125,-0.042l-0.083,-0.041l-0.083,-0l-0.125,-0.042l-0.084,0l-0.083,-0.042l-0.125,0l-0.083,-0.041l-0.084,-0l-0.125,-0.042l-0.166,0l-0.125,-0.042l-0.292,0l-0.083,-0.041l-1.417,-0l-0.125,0.041l-0.333,0l-0.125,0.042l-0.167,0l-0.083,0.042l-0.209,-0l-0.083,0.041l-0.083,0l-0.084,0.042l-0.083,0l-0.083,0.042l-0.084,-0l-0.083,0.041l-0.083,0l-0.084,0.042l-0.125,0l-0.083,0.042l-0.083,-0l-0.167,0.083l-0.083,0l-0.084,0.042l-0.041,0.041l-0.084,0l-0.25,0.125l-0.083,0l-0.25,0.125l-0.042,0l-0.333,0.167l-0.042,0.042l-0.083,-0l-0.167,0.083l-0.041,0.042l-0.167,0.083l-0.042,0.042l-0.083,0.041l-0.042,0.042l-0.166,0.083l-0.042,0.042l-0.083,0.042l-0.042,0.041l-0.083,0.042l-0.042,0.042l-0.083,0.041l-0.084,0.084l-0.083,0.041l-0.042,0.042l-0.083,0.042l-0.083,0.083l-0.042,0.083l-0.083,0.042l-0.125,0.125l-0.084,0.042l-0.083,0.083l-0.042,0.083l-0.125,0.125l-0.083,0.042l-0.042,0.042l-0.041,0.083l-0.125,0.125l-0,0.042l-0.042,0.083l-0.125,0.125l-0.042,0.083l-0.041,0.042l-0,0.042l-0.084,0.083l-0.041,0.083l-0,0.042l-0.084,0.083l0,0.084l-0.083,0.083l0,0.042l-0.042,0.083l0,0.042l-0.041,0.041l-0,0.042l-0.042,0.083l0,0.084l-0.042,0.083l0,0.042l-0.041,0.041l-0,0.167l-0.042,0.042l0,0.208l-0.042,0.042l0,0.583l0.042,0.042l0,0.291l0.042,0.042l-0,0.083l0.041,0.084l0,0.083l0.042,0.042l0,0.041l0.042,0.084l-0,0.041l0.041,0.042l0,0.042l0.042,0.041l0,0.084l0.042,0.041l-0,0.042l0.083,0.083l-0,0.084l0.083,0.083l0,0.042l0.125,0.125l0,0.083l0.292,0.292l0.042,0.083l0.458,0.458l0.083,0.042l0.167,0.167l0.083,0.041l0.084,0.084l0.083,0.041l0.083,0.084l0.084,0.041l0.041,0.042l0.084,0.042l0.083,0.083l0.083,0.042l0.042,0.041l0.083,0.042l0.042,0.042l0.083,0.041l0.042,0.042l0.167,0.083l0.041,0l0.084,0.042l0.041,0.042l0.167,0.083l0.042,0.042l0.166,0.083l0.042,-0l0.167,0.083l0.041,0.042l0.167,0.083l0.083,0l0.042,0.042l0.25,0.125l0.083,-0l0.042,0.042l0.167,0.083l0.083,-0l0.25,0.125l0.042,-0l0.166,0.083l0.167,0.042l0.167,0.083l0.333,0.084l0.167,0.083l0.5,0.125l0.166,0.083l0.667,0.167l0.167,0.083l0.208,0.042l0.667,0.167l0.208,0.041l0.5,0.125l0.208,0.042l0.5,0.125l0.375,0.083l0.334,0.084l0.375,0.041l0.333,0.084l0.375,0.083l0.333,0.083l0.375,0.042l0.5,0.125l0.209,0.042l0.5,0.125l0.166,-0l0.334,0.083l0.208,0.042l1.167,0.291l0.166,0.084l0.5,0.125l0.125,0.041l0.167,0.084l0.5,0.125l0.25,0.125l0.083,-0l0.084,0.041l0.041,0.042l0.084,0.042l0.083,-0l0.25,0.125l0.083,-0l0.167,0.083l0.042,0.042l0.25,0.125l0.083,-0l0.167,0.083l0.041,0.042l0.334,0.166l0.041,0.042l0.417,0.208l0.125,0.125l0.25,0.125l0.042,0.042l0.166,0.083l0.125,0.125l0.375,0.25l0.125,0.125l0.167,0.084l0.125,0.125l0.125,0.083l0.125,0.125l0.125,0.083l0.125,0.125l0.125,0.084l0.25,0.25l0.125,0.083l0.25,0.25l0.125,0.083l0.25,0.25l0.083,0.125l0.5,0.5l0.084,0.125l0.375,0.375l0.083,0.125l0.125,0.125l0.083,0.125l0.125,0.125l0.084,0.125l0.125,0.167l0.083,0.125l0.125,0.125l0.083,0.125l0.125,0.167l0.167,0.25l0.125,0.166l0.167,0.25l0.125,0.167l0.166,0.25l0.084,0.167l0.083,0.125l0.083,0.166l0.084,0.125l0.083,0.167l0.083,0.125l0.084,0.167l0.083,0.125l0.083,0.166l0.084,0.125l0.041,0.167l0.084,0.125l0.083,0.167l0.083,0.125l0.042,0.166l0.083,0.167l0.084,0.125l0.041,0.167l0.084,0.125l0.083,0.333l0.083,0.125l0.042,0.167l0.083,0.166l0.042,0.125l0.042,0.167l0.041,0.125l0.042,0.167l0.083,0.166l0.042,0.125l0.083,0.334l0.042,0.125l0.042,0.166l-0,0.167l0.041,0.125l0.084,0.333l0.041,0.125l0,0.167l0.042,0.167l0.042,0.125l-0,0.166l0.041,0.167l0,0.125l0.042,0.167l-0,0.291l0.042,0.167l-0,0.583l0.041,0.167l0,0.583l-0.041,0.167l-0,0.583l-0.042,0.125l-0,0.292l-0.042,0.167l0,0.125l-0.041,0.166l-0,0.125l-0.042,0.167l-0.042,0.125l0,0.167l-0.041,0.125l-0.042,0.166l-0.083,0.25l-0,0.167l-0.084,0.25l-0.041,0.167l-0.084,0.125l-0.041,0.125l-0.042,0.166l-0.125,0.375l-0.083,0.167l-0.042,0.125l-0.083,0.125l-0.084,0.25l-0.083,0.167l-0.083,0.125l-0.042,0.125l-0.167,0.25l-0.041,0.125l-0.334,0.5l-0.041,0.125l-0.25,0.375l-0.125,0.125l-0.167,0.25l-0.083,0.083l-0.167,0.25l-0.125,0.125l-0.083,0.125l-0.209,0.208l-0.083,0.125l-0.125,0.084l-0.083,0.125l-0.667,0.666l-0.125,0.084l-0.333,0.333l-0.25,0.167l-0.125,0.125l-0.25,0.166l-0.125,0.125l-0.25,0.167l-0.125,0.125l-0.167,0.083l-0.375,0.25l-0.167,0.084l-0.125,0.125l-0.125,0.083l-0.166,0.083l-0.25,0.167l-0.167,0.083l-0.125,0.084l-0.167,0.083l-0.125,0.042l-0.166,0.083l-0.125,0.083l-0.334,0.167l-0.125,0.083l-0.166,0.042l-0.125,0.083l-0.334,0.167l-0.166,0.042l-0.125,0.083l-0.167,0.083l-0.167,0.042l-0.166,0.083l-0.125,0.042l-0.167,0.083l-0.167,0.042l-0.166,0.083l-0.167,0.042l-0.167,0.083l-0.333,0.084l-0.167,0.083l-0.333,0.083l-0.167,0.084l-0.666,0.166l-0.167,0.084l-1.5,0.375l-0.208,0.041l-0.167,0.042l-0.167,-0l-0.666,0.167l-0.209,-0l-0.333,0.083l-0.167,0l-0.166,0.042l-0.209,0.041l-0.166,0l-0.167,0.042l-0.167,0l-0.166,0.042l-0.167,-0l-0.208,0.041l-0.167,0l-0.167,0.042l-0.333,0l-0.208,0.042l-0.5,-0l-0.167,0.041l-0.708,0l-0.167,0.042l-1.375,0l-0.167,-0.042l-0.875,0l-0.166,-0.041l-0.334,-0l-0.166,-0.042l-0.334,0l-0.166,-0.042l-0.167,0l-0.167,-0.041l-0.333,-0l-0.333,-0.084l-0.167,0l-0.167,-0.041l-0.166,-0l-0.167,-0.042l-0.125,0l-0.5,-0.125l-0.167,0l-0.166,-0.042l-0.125,-0.041l-0.167,-0.042l-0.167,-0l-0.166,-0.042l-0.125,-0.041l-0.5,-0.125l-0.125,-0.042l-0.167,-0.042l-0.125,-0.041l-0.333,-0.084l-0.125,-0.041l-0.167,-0.042l-0.125,-0.042l-0.333,-0.083l-0.125,-0.042l-0.167,-0.083l-0.25,-0.083l-0.167,-0.042l-0.125,-0.083l-0.166,-0.042l-0.125,-0.042l-0.125,-0.083l-0.167,-0.042l-0.125,-0.041l-0.125,-0.084l-0.167,-0.041l-0.125,-0.042l-0.125,-0.083l-0.125,-0.042l-0.166,-0.083l-0.125,-0.042l-0.125,-0.083l-0.125,-0.042l-0.25,-0.167l-0.125,-0.041l-0.125,-0.084l-0.125,-0.041l-0.25,-0.167l-0.125,-0.042l-0.25,-0.166l-0.125,-0.042l-0.375,-0.25l-0.084,-0.083l-0.125,-0.042l-0.25,-0.167l-0.083,-0.083l-0.375,-0.25l-0.083,-0.083l-0.125,-0.084l-0.084,-0.083l-0.125,-0.083l-0.083,-0.084l-0.125,-0.083l-0.083,-0.083l-0.125,-0.084l-0.084,-0.083l-0.125,-0.083l-0.083,-0.084l-0.125,-0.083l-0.25,-0.25l-0.125,-0.083l-0.083,-0.125l-0.167,-0.167l-0.125,-0.083l-0.083,-0.084l-0.084,-0.125l-0.25,-0.25l-0.083,-0.125l-0.167,-0.166l-0.083,-0.125l-0.167,-0.167l-0.083,-0.125l-0.083,-0.083l-0.042,-0.084l-0.083,-0.125l-0.084,-0.083l-0.083,-0.125l-0.083,-0.083l-0.042,-0.084l-0.083,-0.125l-0.084,-0.083l-0.041,-0.125l-0.084,-0.083l-0.041,-0.125l-0.084,-0.084l-0.083,-0.125l-0.042,-0.083l-0.083,-0.125l-0.042,-0.083l-0.041,-0.125l-0.084,-0.084l-0.041,-0.125l-0.084,-0.083l-0.041,-0.125l-0.042,-0.083l-0.083,-0.125l-0.042,-0.125l-0.042,-0.084l-0.041,-0.125l-0.084,-0.083l-0.083,-0.25l-0.042,-0.083l-0.041,-0.125l-0.042,-0.084l-0.083,-0.25l-0.042,-0.083l-0.083,-0.25l-0.042,-0.083l-0.042,-0.125l-0.041,-0.084l-0.084,-0.25l-0.041,-0.083l-0,-0.125l-0.042,-0.125l-0.042,-0.083l-0.041,-0.125l-0,-0.125l-0.042,-0.084l-0.042,-0.125l0,-0.125l-0.041,-0.083l-0.042,-0.125l0,-0.125l-0.042,-0.083l0,-0.125l-0.041,-0.125l-0,-0.125l-0.042,-0.084l0,-0.125l-0.042,-0.125l0,-0.208l-0.041,-0.125l-0,-0.083l-0.042,-0.125l0,-0.334l-0.042,-0.083l0,-0.333l-0.041,-0.125l-0,-2.125l0.041,-0.125l0,-0.417l0.042,-0.083l0,-0.292l0.042,-0.125l-0,-0.167l0.041,-0.125l0,-0.166Z" style="fill:#314f3e;fill-rule:nonzero;"/><rect x="153.708" y="55.875" width="38.458" height="10.417" style="fill:#314f3e;"/><rect x="153.708" y="16.042" width="38.458" height="11.292" style="fill:#314f3e;"/><rect x="157.208" y="36.042" width="31.458" height="11.458" style="fill:#314f3e;"/><path d="M96.292,66.292l-15.459,-50.25l12.042,-0l8.625,27.958l9,-27.958l8.417,-0l8.416,27.25l8.792,-27.25l12.958,-0l-16.208,50.25l-9.667,-0l-8.333,-27l-8.708,27l-9.875,-0Z" style="fill:#314f3e;fill-rule:nonzero;"/></g></g></g></g></svg>