<?xml version="1.0" encoding="UTF-8" standalone="no"?>
<!DOCTYPE svg PUBLIC "-//W3C//DTD SVG 1.1//EN" "http://www.w3.org/Graphics/SVG/1.1/DTD/svg11.dtd">
<svg width="100%" height="100%" viewBox="0 0 150 100" version="1.1" xmlns="http://www.w3.org/2000/svg" xmlns:xlink="http://www.w3.org/1999/xlink" xml:space="preserve" xmlns:serif="http://www.serif.com/" style="fill-rule:evenodd;clip-rule:evenodd;stroke-linejoin:round;stroke-miterlimit:2;">
    <g id="Sichtbare-Kanten-DIN-" serif:id="Sichtbare Kanten(DIN)">
        <g>
            <g transform="matrix(1,0,0,1,127.236,76.4507)">
                <path d="M0,-6.64L0,2.71L-2.73,2.71L-2.73,-6.64L-6.33,-6.64L-6.33,-9.35L3.37,-9.35L3.37,-6.64L0,-6.64Z" style="fill:rgb(49,79,62);fill-rule:nonzero;"/>
            </g>
            <g transform="matrix(1,0,0,1,119.416,69.6007)">
                <path d="M0,7.06L0,9.56L-6.3,9.56L-6.3,7.06L-4.54,7.06L-4.54,0.21L-6.3,0.21L-6.3,-2.5L0,-2.5L0,0.21L-1.63,0.21L-1.63,7.06L0,7.06Z" style="fill:rgb(49,79,62);fill-rule:nonzero;"/>
            </g>
            <g transform="matrix(-1,0,0,1,216.462,49.002)">
                <rect x="105.116" y="24.229" width="6.23" height="2.54" style="fill:rgb(49,79,62);"/>
            </g>
            <g transform="matrix(-1,0,0,1,197.242,55.822)">
                <rect x="94.006" y="20.839" width="9.23" height="2.5" style="fill:rgb(49,79,62);"/>
            </g>
            <g transform="matrix(-1,0,0,1,197.232,46.462)">
                <rect x="94.846" y="25.389" width="7.54" height="2.76" style="fill:rgb(49,79,62);"/>
            </g>
            <g transform="matrix(-1,0,0,1,197.242,36.912)">
                <rect x="94.006" y="30.189" width="9.23" height="2.71" style="fill:rgb(49,79,62);"/>
            </g>
            <g transform="matrix(1,0,0,1,92.7558,79.1607)">
                <path d="M0,-12.06L-4.16,0L-7.08,0L-11.5,-12.06L-8.57,-12.06L-5.66,-4.11L-2.93,-12.06L0,-12.06Z" style="fill:rgb(49,79,62);fill-rule:nonzero;"/>
            </g>
            <g transform="matrix(1,0,0,1,74.5658,69.6007)">
                <path d="M0,7.06L6.02,7.06L6.02,9.56L-2.88,9.56L-2.88,-2.5L0,-2.5L0,7.06Z" style="fill:rgb(49,79,62);fill-rule:nonzero;"/>
            </g>
            <g transform="matrix(1,0,0,1,64.4158,77.0407)">
                <path d="M0,-7.57C-1.18,-7.57 -2.15,-6.61 -2.15,-5.43L-2.15,-2.15C-2.15,-0.96 -1.18,0 0,0C1.19,0 2.15,-0.96 2.15,-2.15L2.15,-5.43C2.15,-6.61 1.19,-7.57 0,-7.57M-4.87,-5.43C-4.87,-8.11 -2.69,-10.29 0,-10.29C2.69,-10.29 4.87,-8.11 4.87,-5.43L4.87,-2.15C4.87,0.54 2.69,2.72 0,2.72C-2.69,2.72 -4.87,0.54 -4.87,-2.15L-4.87,-5.43Z" style="fill:rgb(49,79,62);fill-rule:nonzero;"/>
            </g>
            <g transform="matrix(1,0,0,1,53.1257,75.6007)">
                <path d="M0,-6.16L-0.02,-6.16L-0.05,-6.17L-0.07,-6.17L-0.09,-6.18L-0.12,-6.18L-0.14,-6.19L-0.16,-6.19L-0.19,-6.2L-0.23,-6.2L-0.26,-6.21L-0.33,-6.21L-0.35,-6.22L-0.69,-6.22L-0.72,-6.21L-0.8,-6.21L-0.83,-6.2L-0.87,-6.2L-0.89,-6.19L-0.94,-6.19L-0.96,-6.18L-0.98,-6.18L-1,-6.17L-1.02,-6.17L-1.04,-6.16L-1.06,-6.16L-1.08,-6.15L-1.1,-6.15L-1.12,-6.14L-1.15,-6.14L-1.17,-6.13L-1.19,-6.13L-1.23,-6.11L-1.25,-6.11L-1.27,-6.1L-1.28,-6.09L-1.3,-6.09L-1.36,-6.06L-1.38,-6.06L-1.44,-6.03L-1.45,-6.03L-1.53,-5.99L-1.54,-5.98L-1.56,-5.98L-1.6,-5.96L-1.61,-5.95L-1.65,-5.93L-1.66,-5.92L-1.68,-5.91L-1.69,-5.9L-1.73,-5.88L-1.74,-5.87L-1.76,-5.86L-1.77,-5.85L-1.79,-5.84L-1.8,-5.83L-1.82,-5.82L-1.84,-5.8L-1.86,-5.79L-1.87,-5.78L-1.89,-5.77L-1.91,-5.75L-1.92,-5.73L-1.94,-5.72L-1.97,-5.69L-1.99,-5.68L-2.01,-5.66L-2.02,-5.64L-2.05,-5.61L-2.07,-5.6L-2.08,-5.59L-2.09,-5.57L-2.12,-5.54L-2.12,-5.53L-2.13,-5.51L-2.16,-5.48L-2.17,-5.46L-2.18,-5.45L-2.18,-5.44L-2.2,-5.42L-2.21,-5.4L-2.21,-5.39L-2.23,-5.37L-2.23,-5.35L-2.25,-5.33L-2.25,-5.32L-2.26,-5.3L-2.26,-5.29L-2.27,-5.28L-2.27,-5.27L-2.28,-5.25L-2.28,-5.23L-2.29,-5.21L-2.29,-5.2L-2.3,-5.19L-2.3,-5.15L-2.31,-5.14L-2.31,-5.09L-2.32,-5.08L-2.32,-4.94L-2.31,-4.93L-2.31,-4.86L-2.3,-4.85L-2.3,-4.83L-2.29,-4.81L-2.29,-4.79L-2.28,-4.78L-2.28,-4.77L-2.27,-4.75L-2.27,-4.74L-2.26,-4.73L-2.26,-4.72L-2.25,-4.71L-2.25,-4.69L-2.24,-4.68L-2.24,-4.67L-2.22,-4.65L-2.22,-4.63L-2.2,-4.61L-2.2,-4.6L-2.17,-4.57L-2.17,-4.55L-2.1,-4.48L-2.09,-4.46L-1.98,-4.35L-1.96,-4.34L-1.92,-4.3L-1.9,-4.29L-1.88,-4.27L-1.86,-4.26L-1.84,-4.24L-1.82,-4.23L-1.81,-4.22L-1.79,-4.21L-1.77,-4.19L-1.75,-4.18L-1.74,-4.17L-1.72,-4.16L-1.71,-4.15L-1.69,-4.14L-1.68,-4.13L-1.64,-4.11L-1.63,-4.11L-1.61,-4.1L-1.6,-4.09L-1.56,-4.07L-1.55,-4.06L-1.51,-4.04L-1.5,-4.04L-1.46,-4.02L-1.45,-4.01L-1.41,-3.99L-1.39,-3.99L-1.38,-3.98L-1.32,-3.95L-1.3,-3.95L-1.29,-3.94L-1.25,-3.92L-1.23,-3.92L-1.17,-3.89L-1.16,-3.89L-1.12,-3.87L-1.08,-3.86L-1.04,-3.84L-0.96,-3.82L-0.92,-3.8L-0.8,-3.77L-0.76,-3.75L-0.6,-3.71L-0.56,-3.69L-0.51,-3.68L-0.35,-3.64L-0.3,-3.63L-0.18,-3.6L-0.13,-3.59L-0.01,-3.56L0.08,-3.54L0.16,-3.52L0.25,-3.51L0.33,-3.49L0.42,-3.47L0.5,-3.45L0.59,-3.44L0.71,-3.41L0.76,-3.4L0.88,-3.37L0.92,-3.37L1,-3.35L1.05,-3.34L1.33,-3.27L1.37,-3.25L1.49,-3.22L1.52,-3.21L1.56,-3.19L1.68,-3.16L1.74,-3.13L1.76,-3.13L1.78,-3.12L1.79,-3.11L1.81,-3.1L1.83,-3.1L1.89,-3.07L1.91,-3.07L1.95,-3.05L1.96,-3.04L2.02,-3.01L2.04,-3.01L2.08,-2.99L2.09,-2.98L2.17,-2.94L2.18,-2.93L2.28,-2.88L2.31,-2.85L2.37,-2.82L2.38,-2.81L2.42,-2.79L2.45,-2.76L2.54,-2.7L2.57,-2.67L2.61,-2.65L2.64,-2.62L2.67,-2.6L2.7,-2.57L2.73,-2.55L2.76,-2.52L2.79,-2.5L2.85,-2.44L2.88,-2.42L2.94,-2.36L2.97,-2.34L3.03,-2.28L3.05,-2.25L3.17,-2.13L3.19,-2.1L3.28,-2.01L3.3,-1.98L3.33,-1.95L3.35,-1.92L3.38,-1.89L3.4,-1.86L3.43,-1.82L3.45,-1.79L3.48,-1.76L3.5,-1.73L3.53,-1.69L3.57,-1.63L3.6,-1.59L3.64,-1.53L3.67,-1.49L3.71,-1.43L3.73,-1.39L3.75,-1.36L3.77,-1.32L3.79,-1.29L3.81,-1.25L3.83,-1.22L3.85,-1.18L3.87,-1.15L3.89,-1.11L3.91,-1.08L3.92,-1.04L3.94,-1.01L3.96,-0.97L3.98,-0.94L3.99,-0.9L4.01,-0.86L4.03,-0.83L4.04,-0.79L4.06,-0.76L4.08,-0.68L4.1,-0.65L4.11,-0.61L4.13,-0.57L4.14,-0.54L4.15,-0.5L4.16,-0.47L4.17,-0.43L4.19,-0.39L4.2,-0.36L4.22,-0.28L4.23,-0.25L4.24,-0.21L4.24,-0.17L4.25,-0.14L4.27,-0.06L4.28,-0.03L4.28,0.01L4.29,0.05L4.3,0.08L4.3,0.12L4.31,0.16L4.31,0.19L4.32,0.23L4.32,0.3L4.33,0.34L4.33,0.48L4.34,0.52L4.34,0.66L4.33,0.7L4.33,0.84L4.32,0.87L4.32,0.94L4.31,0.98L4.31,1.01L4.3,1.05L4.3,1.08L4.29,1.12L4.28,1.15L4.28,1.19L4.27,1.22L4.26,1.26L4.24,1.32L4.24,1.36L4.22,1.42L4.21,1.46L4.19,1.49L4.18,1.52L4.17,1.56L4.14,1.65L4.12,1.69L4.11,1.72L4.09,1.75L4.07,1.81L4.05,1.85L4.03,1.88L4.02,1.91L3.98,1.97L3.97,2L3.89,2.12L3.88,2.15L3.82,2.24L3.79,2.27L3.75,2.33L3.73,2.35L3.69,2.41L3.66,2.44L3.64,2.47L3.59,2.52L3.57,2.55L3.54,2.57L3.52,2.6L3.36,2.76L3.33,2.78L3.25,2.86L3.19,2.9L3.16,2.93L3.1,2.97L3.07,3L3.01,3.04L2.98,3.07L2.94,3.09L2.85,3.15L2.81,3.17L2.78,3.2L2.75,3.22L2.71,3.24L2.65,3.28L2.61,3.3L2.58,3.32L2.54,3.34L2.51,3.35L2.47,3.37L2.44,3.39L2.36,3.43L2.33,3.45L2.29,3.46L2.26,3.48L2.18,3.52L2.14,3.53L2.11,3.55L2.07,3.57L2.03,3.58L1.99,3.6L1.96,3.61L1.92,3.63L1.88,3.64L1.84,3.66L1.8,3.67L1.76,3.69L1.68,3.71L1.64,3.73L1.56,3.75L1.52,3.77L1.36,3.81L1.32,3.83L0.96,3.92L0.91,3.93L0.87,3.94L0.83,3.94L0.67,3.98L0.62,3.98L0.54,4L0.5,4L0.46,4.01L0.41,4.02L0.37,4.02L0.33,4.03L0.29,4.03L0.25,4.04L0.21,4.04L0.16,4.05L0.12,4.05L0.08,4.06L0,4.06L-0.05,4.07L-0.17,4.07L-0.21,4.08L-0.38,4.08L-0.42,4.09L-0.75,4.09L-0.79,4.08L-1,4.08L-1.04,4.07L-1.12,4.07L-1.16,4.06L-1.24,4.06L-1.28,4.05L-1.32,4.05L-1.36,4.04L-1.44,4.04L-1.52,4.02L-1.56,4.02L-1.6,4.01L-1.64,4.01L-1.68,4L-1.71,4L-1.83,3.97L-1.87,3.97L-1.91,3.96L-1.94,3.95L-1.98,3.94L-2.02,3.94L-2.06,3.93L-2.09,3.92L-2.21,3.89L-2.24,3.88L-2.28,3.87L-2.31,3.86L-2.39,3.84L-2.42,3.83L-2.46,3.82L-2.49,3.81L-2.57,3.79L-2.6,3.78L-2.64,3.76L-2.7,3.74L-2.74,3.73L-2.77,3.71L-2.81,3.7L-2.84,3.69L-2.87,3.67L-2.91,3.66L-2.94,3.65L-2.97,3.63L-3.01,3.62L-3.04,3.61L-3.07,3.59L-3.1,3.58L-3.14,3.56L-3.17,3.55L-3.2,3.53L-3.23,3.52L-3.29,3.48L-3.32,3.47L-3.35,3.45L-3.38,3.44L-3.44,3.4L-3.47,3.39L-3.53,3.35L-3.56,3.34L-3.65,3.28L-3.67,3.26L-3.7,3.25L-3.76,3.21L-3.78,3.19L-3.87,3.13L-3.89,3.11L-3.92,3.09L-3.94,3.07L-3.97,3.05L-3.99,3.03L-4.02,3.01L-4.04,2.99L-4.07,2.97L-4.09,2.95L-4.12,2.93L-4.14,2.91L-4.17,2.89L-4.23,2.83L-4.26,2.81L-4.28,2.78L-4.32,2.74L-4.35,2.72L-4.37,2.7L-4.39,2.67L-4.45,2.61L-4.47,2.58L-4.51,2.54L-4.53,2.51L-4.57,2.47L-4.59,2.44L-4.61,2.42L-4.62,2.4L-4.64,2.37L-4.66,2.35L-4.68,2.32L-4.7,2.3L-4.71,2.28L-4.73,2.25L-4.75,2.23L-4.76,2.2L-4.78,2.18L-4.79,2.15L-4.81,2.13L-4.83,2.1L-4.84,2.08L-4.86,2.05L-4.87,2.03L-4.88,2L-4.9,1.98L-4.91,1.95L-4.93,1.93L-4.94,1.9L-4.95,1.88L-4.97,1.85L-4.98,1.82L-4.99,1.8L-5,1.77L-5.02,1.75L-5.04,1.69L-5.05,1.67L-5.06,1.64L-5.07,1.62L-5.09,1.56L-5.1,1.54L-5.12,1.48L-5.13,1.46L-5.14,1.43L-5.15,1.41L-5.17,1.35L-5.18,1.33L-5.18,1.3L-5.19,1.27L-5.2,1.25L-5.21,1.22L-5.21,1.19L-5.22,1.17L-5.23,1.14L-5.23,1.11L-5.24,1.09L-5.25,1.06L-5.25,1.03L-5.26,1.01L-5.26,0.98L-5.27,0.95L-5.27,0.92L-5.28,0.9L-5.28,0.87L-5.29,0.84L-5.29,0.79L-5.3,0.76L-5.3,0.74L-5.31,0.71L-5.31,0.63L-5.32,0.61L-5.32,0.53L-5.33,0.5L-5.33,-0.01L-5.32,-0.04L-5.32,-0.14L-5.31,-0.16L-5.31,-0.23L-5.3,-0.26L-5.3,-0.3L-5.29,-0.33L-5.29,-0.37L-2.56,-0.37C-3.28,1.44 0.28,2.31 1.4,0.55L1.41,0.54L1.41,0.53L1.42,0.52L1.42,0.51L1.43,0.5L1.43,0.49L1.44,0.48L1.44,0.47L1.45,0.46L1.45,0.45L1.46,0.44L1.46,0.43L1.47,0.42L1.47,0.4L1.48,0.39L1.48,0.37L1.49,0.36L1.49,0.32L1.5,0.31L1.5,0.26L1.51,0.25L1.51,0.1L1.5,0.08L1.5,0.03L1.49,0.01L1.49,-0.01L1.47,-0.05L1.47,-0.07L1.36,-0.29L1.31,-0.34L1.3,-0.36L1.28,-0.38L1.27,-0.4L1.14,-0.53L1.12,-0.54L1.08,-0.58L1.06,-0.59L1.02,-0.63L1,-0.64L0.98,-0.66L0.95,-0.67L0.91,-0.71L0.88,-0.72L0.86,-0.74L0.83,-0.75L0.81,-0.77L0.78,-0.78L0.76,-0.8L0.7,-0.82L0.68,-0.84L0.65,-0.85L0.62,-0.87L0.56,-0.89L0.53,-0.91L0.51,-0.92L0.45,-0.94L0.42,-0.96L0.33,-0.99L0.29,-1L0.23,-1.02L0.2,-1.04L0.17,-1.05L0.13,-1.06L0.04,-1.09L0,-1.1L-0.03,-1.11L-0.07,-1.12L-0.13,-1.14L-0.17,-1.15L-0.2,-1.15L-0.24,-1.16L-0.27,-1.17L-0.31,-1.18L-0.34,-1.19L-0.42,-1.21L-0.45,-1.21L-0.49,-1.22L-0.52,-1.23L-0.56,-1.24L-0.6,-1.24L-0.63,-1.25L-0.71,-1.27L-0.75,-1.27L-0.78,-1.28L-0.86,-1.29L-0.94,-1.31L-1.01,-1.32L-1.09,-1.33L-1.17,-1.35L-1.24,-1.36L-1.48,-1.39L-1.56,-1.41L-1.63,-1.42L-1.79,-1.44L-1.87,-1.46L-2.03,-1.48L-2.11,-1.5L-2.18,-1.51L-2.26,-1.53L-2.3,-1.53L-2.5,-1.58L-2.54,-1.58L-2.58,-1.59L-2.61,-1.6L-2.81,-1.65L-2.84,-1.66L-2.88,-1.68L-3,-1.71L-3.03,-1.72L-3.07,-1.74L-3.15,-1.76L-3.18,-1.78L-3.22,-1.79L-3.26,-1.81L-3.29,-1.82L-3.33,-1.84L-3.37,-1.85L-3.4,-1.87L-3.44,-1.89L-3.47,-1.9L-3.51,-1.92L-3.54,-1.94L-3.58,-1.96L-3.61,-1.98L-3.65,-2L-3.68,-2.02L-3.72,-2.04L-3.75,-2.06L-3.79,-2.08L-3.82,-2.11L-3.84,-2.12L-3.85,-2.13L-3.89,-2.15L-3.9,-2.17L-3.94,-2.19L-3.97,-2.22L-3.99,-2.23L-4.02,-2.26L-4.04,-2.27L-4.1,-2.33L-4.12,-2.34L-4.13,-2.36L-4.15,-2.37L-4.16,-2.39L-4.18,-2.4L-4.19,-2.42L-4.21,-2.43L-4.22,-2.45L-4.24,-2.46L-4.26,-2.48L-4.27,-2.5L-4.29,-2.51L-4.3,-2.53L-4.35,-2.58L-4.37,-2.62L-4.42,-2.67L-4.43,-2.69L-4.45,-2.71L-4.46,-2.73L-4.48,-2.75L-4.5,-2.79L-4.52,-2.81L-4.53,-2.83L-4.55,-2.85L-4.57,-2.89L-4.59,-2.91L-4.6,-2.93L-4.61,-2.96L-4.63,-2.98L-4.65,-3.02L-4.67,-3.05L-4.69,-3.09L-4.71,-3.12L-4.73,-3.16L-4.74,-3.19L-4.76,-3.21L-4.77,-3.24L-4.78,-3.26L-4.79,-3.29L-4.81,-3.31L-4.83,-3.37L-4.84,-3.39L-4.86,-3.45L-4.88,-3.47L-4.93,-3.62L-4.94,-3.64L-4.96,-3.67L-4.99,-3.76L-5,-3.8L-5.05,-3.95L-5.06,-3.99L-5.08,-4.05L-5.09,-4.09L-5.11,-4.15L-5.12,-4.19L-5.13,-4.22L-5.15,-4.3L-5.16,-4.33L-5.17,-4.37L-5.17,-4.4L-5.21,-4.56L-5.22,-4.59L-5.23,-4.63L-5.23,-4.67L-5.26,-4.79L-5.26,-4.83L-5.27,-4.87L-5.28,-4.92L-5.29,-4.96C-5.68,-10.25 5.13,-9.61 4.12,-4.77L1.4,-4.77L1.39,-4.79L1.39,-4.81L1.37,-4.85L1.37,-4.86L1.35,-4.9L1.35,-4.91L1.33,-4.95L1.32,-4.96L1.32,-4.98L1.31,-5L1.3,-5.01L1.3,-5.03L1.29,-5.04L1.28,-5.06L1.27,-5.07L1.26,-5.09L1.26,-5.11L1.25,-5.12L1.24,-5.14L1.23,-5.15L1.23,-5.17L1.21,-5.19L1.2,-5.21L1.19,-5.22L1.18,-5.24L1.18,-5.25L1.17,-5.27L1.15,-5.29L1.14,-5.31L1.13,-5.32L1.13,-5.33L1.12,-5.35L1.1,-5.37L1.09,-5.39L1.06,-5.42L1.05,-5.44L1.04,-5.45L1.04,-5.46L1.02,-5.48L1.01,-5.5L0.95,-5.56L0.94,-5.58L0.76,-5.76L0.75,-5.76L0.69,-5.82L0.68,-5.82L0.67,-5.83L0.65,-5.84L0.63,-5.86L0.61,-5.87L0.59,-5.89L0.57,-5.9L0.55,-5.92L0.52,-5.93L0.5,-5.94L0.48,-5.96L0.46,-5.97L0.43,-5.98L0.41,-6L0.37,-6.02L0.34,-6.03L0.28,-6.06L0.25,-6.07L0.21,-6.09L0.18,-6.1L0.16,-6.11L0.14,-6.11L0.11,-6.12L0.07,-6.14L0.05,-6.14L0.02,-6.15L0,-6.16Z" style="fill:rgb(49,79,62);fill-rule:nonzero;"/>
            </g>
            <g transform="matrix(-1,0,0,1,83.002,55.822)">
                <rect x="36.886" y="20.839" width="9.23" height="2.5" style="fill:rgb(49,79,62);"/>
            </g>
            <g transform="matrix(-1,0,0,1,83.002,46.552)">
                <rect x="37.726" y="25.349" width="7.55" height="2.75" style="fill:rgb(49,79,62);"/>
            </g>
            <g transform="matrix(-1,0,0,1,83.002,36.912)">
                <rect x="36.886" y="30.189" width="9.23" height="2.71" style="fill:rgb(49,79,62);"/>
            </g>
            <g transform="matrix(1,0,0,1,22.2858,79.1607)">
                <path d="M0,-12.06L2.07,-5.35L4.23,-12.06L6.25,-12.06L8.27,-5.52L10.38,-12.06L13.49,-12.06L9.6,0L7.28,0L5.28,-6.48L3.19,0L0.82,0L-2.89,-12.06L0,-12.06Z" style="fill:rgb(49,79,62);fill-rule:nonzero;"/>
            </g>
            <g transform="matrix(1,0,0,1,93.7157,42.1907)">
                <path d="M0,-5.04C1.38,-3.65 1.38,-1.41 0,-0.03L-8.94,8.9L-12.19,5.64L-4.55,-2C-4.25,-2.3 -4.24,-2.79 -4.54,-3.1L-12.14,-10.7L-8.89,-13.94L0,-5.04Z" style="fill:rgb(49,79,62);fill-rule:nonzero;"/>
            </g>
            <g transform="matrix(1,0,0,1,60.9258,39.3107)">
                <path d="M0,0.75L15.75,16.57L12.48,19.82L-4.12,3.16C-4.12,3.16 -4.13,3.15 -4.14,3.14C-5.69,1.56 -5.67,-0.98 -4.09,-2.53L12.48,-19.07L15.75,-15.95L-0.01,-0.22C-0.27,0.05 -0.27,0.48 -0.01,0.75L0,0.75Z" style="fill:rgb(49,79,62);fill-rule:nonzero;"/>
            </g>
        </g>
    </g>
</svg>
