<?xml version="1.0" encoding="UTF-8" standalone="no"?>
<!DOCTYPE svg PUBLIC "-//W3C//DTD SVG 1.1//EN" "http://www.w3.org/Graphics/SVG/1.1/DTD/svg11.dtd">
<svg width="100%" height="100%" viewBox="0 0 150 100" version="1.1" xmlns="http://www.w3.org/2000/svg" xmlns:xlink="http://www.w3.org/1999/xlink" xml:space="preserve" xmlns:serif="http://www.serif.com/" style="fill-rule:evenodd;clip-rule:evenodd;stroke-linejoin:round;stroke-miterlimit:2;">
    <g transform="matrix(1,0,0,1,-0.193802,10.3143)">
        <g id="Sichtbare-Kanten-DIN-" serif:id="Sichtbare Kanten(DIN)">
            <g>
                <g transform="matrix(1,0,0,1,93.7157,42.1907)">
                    <path d="M0,-5.04C1.38,-3.65 1.38,-1.41 0,-0.03L-8.94,8.9L-12.19,5.64L-4.55,-2C-4.25,-2.3 -4.24,-2.79 -4.54,-3.1L-12.14,-10.7L-8.89,-13.94L0,-5.04Z" style="fill:rgb(187,187,193);fill-rule:nonzero;"/>
                </g>
                <g transform="matrix(1,0,0,1,60.9258,39.3107)">
                    <path d="M0,0.75L15.75,16.57L12.48,19.82L-4.12,3.16C-4.12,3.16 -4.13,3.15 -4.14,3.14C-5.69,1.56 -5.67,-0.98 -4.09,-2.53L12.48,-19.07L15.75,-15.95L-0.01,-0.22C-0.27,0.05 -0.27,0.48 -0.01,0.75L0,0.75Z" style="fill:rgb(187,187,193);fill-rule:nonzero;"/>
                </g>
            </g>
        </g>
    </g>
</svg>
